<mxfile host="app.diagrams.net" agent="Mozilla/5.0 (Macintosh; Intel Mac OS X 10_15_7) AppleWebKit/605.1.15 (KHTML, like Gecko) Version/17.6 Safari/605.1.15" version="24.7.17">
  <diagram name="Page-1" id="LYiI-WRUKs5P4INztQWy">
    <mxGraphModel dx="1026" dy="692" grid="0" gridSize="10" guides="1" tooltips="1" connect="1" arrows="1" fold="1" page="0" pageScale="1" pageWidth="827" pageHeight="1169" math="0" shadow="0">
      <root>
        <mxCell id="0" />
        <mxCell id="1" parent="0" />
        <mxCell id="c_AYpVPlN-h9lZ-HARwW-27" value="" style="group" vertex="1" connectable="0" parent="1">
          <mxGeometry x="8" y="250" width="889" height="370" as="geometry" />
        </mxCell>
        <mxCell id="c_AYpVPlN-h9lZ-HARwW-19" value="" style="group" vertex="1" connectable="0" parent="c_AYpVPlN-h9lZ-HARwW-27">
          <mxGeometry x="158" y="102" width="728" height="261" as="geometry" />
        </mxCell>
        <mxCell id="c_AYpVPlN-h9lZ-HARwW-7" value="" style="group;fillColor=default;" vertex="1" connectable="0" parent="c_AYpVPlN-h9lZ-HARwW-19">
          <mxGeometry x="340" width="290" height="178" as="geometry" />
        </mxCell>
        <mxCell id="c_AYpVPlN-h9lZ-HARwW-2" value="" style="ellipse;shape=cloud;whiteSpace=wrap;html=1;" vertex="1" parent="c_AYpVPlN-h9lZ-HARwW-7">
          <mxGeometry width="290" height="178" as="geometry" />
        </mxCell>
        <mxCell id="c_AYpVPlN-h9lZ-HARwW-8" style="edgeStyle=orthogonalEdgeStyle;rounded=0;orthogonalLoop=1;jettySize=auto;html=1;exitX=1;exitY=0.5;exitDx=0;exitDy=0;entryX=0;entryY=0.5;entryDx=0;entryDy=0;" edge="1" parent="c_AYpVPlN-h9lZ-HARwW-7" source="c_AYpVPlN-h9lZ-HARwW-5" target="c_AYpVPlN-h9lZ-HARwW-6">
          <mxGeometry relative="1" as="geometry" />
        </mxCell>
        <mxCell id="c_AYpVPlN-h9lZ-HARwW-5" value="" style="shape=image;verticalLabelPosition=bottom;labelBackgroundColor=default;verticalAlign=top;aspect=fixed;imageAspect=0;image=data:image/png,iVBORw0KGgoAAAANSUhEUgAAAPYAAACQCAYAAAA7v5aPAAAMQGlDQ1BJQ0MgUHJvZmlsZQAASImVVwdYU8kWnluSkEBCCSAgJfQmCEgJICWEFkB6EWyEJEAoMQaCiB1dVHDtYgEbuiqi2AGxI3YWwd4XRRSUdbFgV96kgK77yvfm++bOf/85858z5869cwcA9VNcsTgH1QAgV5QviQ0JYIxNTmGQugEZUAANGANXLi9PzIqOjgCwDLZ/L+9uAkTWXnOQaf2z/78WTb4gjwcAEg1xGj+PlwvxIQDwSp5Ykg8AUcabT80XyzCsQFsCA4R4oQxnKHClDKcp8D65TXwsG+JmAFTUuFxJBgC0NsgzCngZUIPWB7GTiC8UAaDOgNg3N3cyH+JUiG2gjRhimT4z7QedjL9ppg1pcrkZQ1gxF3lRCRTmiXO40/7PdPzvkpsjHfRhBatapiQ0VjZnmLfb2ZPDZVgN4l5RWmQUxFoQfxDy5fYQo5RMaWiCwh415OWxYc6ALsROfG5gOMSGEAeLciIjlHxaujCYAzFcIWihMJ8TD7EexAsFeUFxSpvNksmxSl9oXbqEzVLyF7gSuV+Zr4fS7ASWUv91poCj1MdoRZnxSRBTILYoECZGQkyD2DEvOy5caTO6KJMdOWgjkcbK4reAOFYgCglQ6GMF6ZLgWKV9aW7e4HyxzZlCTqQSH8jPjA9V5Adr5nHl8cO5YG0CESthUEeQNzZicC58QWCQYu5Yt0CUEKfU+SDOD4hVjMUp4pxopT1uJsgJkfFmELvmFcQpx+KJ+XBBKvTxdHF+dLwiTrwoixsWrYgHXwYiABsEAgaQwpoGJoMsIGztre+Fd4qeYMAFEpABBMBByQyOSJL3iOA1DhSBPyESgLyhcQHyXgEogPzXIVZxdQDp8t4C+Yhs8BTiXBAOcuC9VD5KNOQtETyBjPAf3rmw8mC8ObDK+v89P8h+Z1iQiVAy0kGPDPVBS2IQMZAYSgwm2uIGuC/ujUfAqz+sLjgT9xycx3d7wlNCO+Ex4Qahg3BnkrBY8lOUY0AH1A9W5iLtx1zgVlDTDQ/AfaA6VMZ1cQPggLtCPyzcD3p2gyxbGbcsK4yftP82gx+ehtKO7ERGycPI/mSbn0fS7GhuQyqyXP+YH0WsaUP5Zg/1/Oyf/UP2+bAN/9kSW4gdxM5jp7GL2DGsHjCwk1gD1oIdl+Gh1fVEvroGvcXK48mGOsJ/+Bt8srJM5jnVOPU4fVH05QsKZd9owJ4sniYRZmTmM1hwRxAwOCKe4wiGi5OLKwCy/UXx+XoTI983EN2W79y8PwDwOTkwMHD0Oxd2EoD9HvD1P/Kds2HCrUMVgAtHeFJJgYLDZRcC/EqowzdNH+5d5sAGzscFuANv4A+CQBiIAvEgGUyE0WfCdS4BU8EMMBeUgDKwDKwG68EmsBXsBHvAAVAPjoHT4By4DNrADXAPrp4u8AL0gXfgM4IgJISK0BF9xASxROwRF4SJ+CJBSAQSiyQjqUgGIkKkyAxkHlKGrEDWI1uQamQ/cgQ5jVxE2pE7yCOkB3mNfEIxVA3VRo1QK3QkykRZaDgaj05AM9ApaBE6H12CrkWr0N1oHXoavYzeQDvQF2g/BjBVTBczxRwwJsbGorAULB2TYLOwUqwcq8JqsUb4nK9hHVgv9hEn4nScgTvAFRyKJ+A8fAo+C1+Mr8d34nV4M34Nf4T34d8IVIIhwZ7gReAQxhIyCFMJJYRywnbCYcJZ+C51Ed4RiURdojXRA76LycQs4nTiYuIG4l7iKWI7sZPYTyKR9En2JB9SFIlLyieVkNaRdpNOkq6SukgfVFRVTFRcVIJVUlREKsUq5Sq7VE6oXFV5pvKZrEG2JHuRo8h88jTyUvI2ciP5CrmL/JmiSbGm+FDiKVmUuZS1lFrKWcp9yhtVVVUzVU/VGFWh6hzVtar7VC+oPlL9qKalZqfGVhuvJlVborZD7ZTaHbU3VCrViupPTaHmU5dQq6lnqA+pH2h0miONQ+PTZtMqaHW0q7SX6mR1S3WW+kT1IvVy9YPqV9R7NcgaVhpsDa7GLI0KjSMatzT6NemazppRmrmaizV3aV7U7NYiaVlpBWnxteZrbdU6o9VJx+jmdDadR59H30Y/S+/SJmpba3O0s7TLtPdot2r36WjpuOok6hTqVOgc1+nQxXStdDm6ObpLdQ/o3tT9NMxoGGuYYNiiYbXDrg57rzdcz19PoFeqt1fvht4nfYZ+kH62/nL9ev0HBriBnUGMwVSDjQZnDXqHaw/3Hs4bXjr8wPC7hqihnWGs4XTDrYYthv1GxkYhRmKjdUZnjHqNdY39jbOMVxmfMO4xoZv4mghNVpmcNHnO0GGwGDmMtYxmRp+poWmoqdR0i2mr6Wcza7MEs2KzvWYPzCnmTPN081XmTeZ9FiYWYyxmWNRY3LUkWzItMy3XWJ63fG9lbZVktcCq3qrbWs+aY11kXWN934Zq42czxabK5rot0ZZpm227wbbNDrVzs8u0q7C7Yo/au9sL7TfYt48gjPAcIRpRNeKWg5oDy6HAocbhkaOuY4RjsWO948uRFiNTRi4feX7kNyc3pxynbU73nLWcw5yLnRudX7vYufBcKlyuj6KOCh41e1TDqFeu9q4C142ut93obmPcFrg1uX1193CXuNe693hYeKR6VHrcYmozo5mLmRc8CZ4BnrM9j3l+9HL3yvc64PWXt4N3tvcu7+7R1qMFo7eN7vQx8+H6bPHp8GX4pvpu9u3wM/Xj+lX5PfY39+f7b/d/xrJlZbF2s14GOAVIAg4HvGd7sWeyTwVigSGBpYGtQVpBCUHrgx4GmwVnBNcE94W4hUwPORVKCA0PXR56i2PE4XGqOX1hHmEzw5rD1cLjwteHP46wi5BENI5Bx4SNWTnmfqRlpCiyPgpEcaJWRj2Ito6eEn00hhgTHVMR8zTWOXZG7Pk4etykuF1x7+ID4pfG30uwSZAmNCWqJ45PrE58nxSYtCKpY+zIsTPHXk42SBYmN6SQUhJTtqf0jwsat3pc13i38SXjb06wnlA44eJEg4k5E49PUp/EnXQwlZCalLor9Qs3ilvF7U/jpFWm9fHYvDW8F3x//ip+j8BHsELwLN0nfUV6d4ZPxsqMnky/zPLMXiFbuF74Kis0a1PW++yo7B3ZAzlJOXtzVXJTc4+ItETZoubJxpMLJ7eL7cUl4o4pXlNWT+mThEu25yF5E/Ia8rXhj3yL1Eb6i/RRgW9BRcGHqYlTDxZqFooKW6bZTVs07VlRcNFv0/HpvOlNM0xnzJ3xaCZr5pZZyKy0WU2zzWfPn901J2TOzrmUudlzfy92Kl5R/HZe0rzG+Ubz58zv/CXkl5oSWomk5NYC7wWbFuILhQtbF41atG7Rt1J+6aUyp7Lysi+LeYsv/er869pfB5akL2ld6r504zLiMtGym8v9lu9cobmiaEXnyjEr61YxVpWuert60uqL5a7lm9ZQ1kjXdKyNWNuwzmLdsnVf1meuv1ERULG30rByUeX7DfwNVzf6b6zdZLSpbNOnzcLNt7eEbKmrsqoq30rcWrD16bbEbed/Y/5Wvd1ge9n2rztEOzp2xu5srvaort5luGtpDVojrenZPX53257APQ21DrVb9uruLdsH9kn3Pd+fuv/mgfADTQeZB2sPWR6qPEw/XFqH1E2r66vPrO9oSG5oPxJ2pKnRu/HwUcejO46ZHqs4rnN86QnKifknBk4Wnew/JT7VezrjdGfTpKZ7Z8aeud4c09x6NvzshXPB586cZ50/ecHnwrGLXhePXGJeqr/sfrmuxa3l8O9uvx9udW+tu+JxpaHNs62xfXT7iat+V09fC7x27jrn+uUbkTfabybcvH1r/K2O2/zb3Xdy7ry6W3D387059wn3Sx9oPCh/aPiw6g/bP/Z2uHccfxT4qOVx3ON7nbzOF0/ynnzpmv+U+rT8mcmz6m6X7mM9wT1tz8c973ohfvG5t+RPzT8rX9q8PPSX/18tfWP7ul5JXg28XvxG/82Ot65vm/qj+x++y333+X3pB/0POz8yP57/lPTp2eepX0hf1n61/dr4Lfzb/YHcgQExV8KV/wpgsKLp6QC83gEANRkAOjyfUcYpzn/ygijOrHIE/hNWnBHlxR2AWvj/HtML/25uAbBvGzx+QX318QBEUwGI9wToqFFDdfCsJj9XygoRngM2R35Ny00D/6Yozpw/xP1zC2SqruDn9l+Q6nx9NLQJ6AAAAIplWElmTU0AKgAAAAgABAEaAAUAAAABAAAAPgEbAAUAAAABAAAARgEoAAMAAAABAAIAAIdpAAQAAAABAAAATgAAAAAAAACQAAAAAQAAAJAAAAABAAOShgAHAAAAEgAAAHigAgAEAAAAAQAAAPagAwAEAAAAAQAAAJAAAAAAQVNDSUkAAABTY3JlZW5zaG90PYjlxgAAAAlwSFlzAAAWJQAAFiUBSVIk8AAAAdZpVFh0WE1MOmNvbS5hZG9iZS54bXAAAAAAADx4OnhtcG1ldGEgeG1sbnM6eD0iYWRvYmU6bnM6bWV0YS8iIHg6eG1wdGs9IlhNUCBDb3JlIDYuMC4wIj4KICAgPHJkZjpSREYgeG1sbnM6cmRmPSJodHRwOi8vd3d3LnczLm9yZy8xOTk5LzAyLzIyLXJkZi1zeW50YXgtbnMjIj4KICAgICAgPHJkZjpEZXNjcmlwdGlvbiByZGY6YWJvdXQ9IiIKICAgICAgICAgICAgeG1sbnM6ZXhpZj0iaHR0cDovL25zLmFkb2JlLmNvbS9leGlmLzEuMC8iPgogICAgICAgICA8ZXhpZjpQaXhlbFlEaW1lbnNpb24+MTQ0PC9leGlmOlBpeGVsWURpbWVuc2lvbj4KICAgICAgICAgPGV4aWY6UGl4ZWxYRGltZW5zaW9uPjI0NjwvZXhpZjpQaXhlbFhEaW1lbnNpb24+CiAgICAgICAgIDxleGlmOlVzZXJDb21tZW50PlNjcmVlbnNob3Q8L2V4aWY6VXNlckNvbW1lbnQ+CiAgICAgIDwvcmRmOkRlc2NyaXB0aW9uPgogICA8L3JkZjpSREY+CjwveDp4bXBtZXRhPgreyiB8AAAAHGlET1QAAAACAAAAAAAAAEgAAAAoAAAASAAAAEgAAC8t2lFL8AAALvlJREFUeAHsnfd3XEd25293o5EzSAJMYs4URTFJGoWxxmOfPWuf3R+8/6dnZnfWx7O2z3hmR4mimIMYQZAAQWQQoQF08ud76z2gATZAQgQFgNMFdL/X9Sreqm/dW7du1Uv84as/FUdGxq2psclyubzl83krWsI/Jpfw7/mvRLE4fz9/437J6Gdh3nv+JpGwBJ+VXFFplEs7jkT0RCLOI/ZcciW+p7PEu/RnIvmKNAhcLJSpgxJZUofwc0m9VIbSDHVfrl5rQROlvbRM7qev4DzrcvnHAXRdkkbpo0JJbUppS4sSrzTky/eL2lzNW5LW0tCLwvLwpfTLxC8tT2l6L8UtfRjdLxc3Dlo2jeLivpNIhP5WtKi/QI8CJS9QVn2SqaTXWGiyQt6qkqnQF9RH+Dj5VqC9U4GoSwktWsXRkt6f82A3a4cO7be6ujQYzlnit//2p+Lo6ITt2rmbzMjYs1OBQqsFMJW2oAq1UJGQbclzKjvviiX+856Vm7dJgaUAUV6v6sTlylMap3wzLnSucvHX0+9V45jKFgNjuXJ6Ly7pyiHc0v4cBaDPe3oAV8DOzOZtJgdG8NRgJmaYsrw11tVZlZIAP0UhX4B/yS3OwweFl8LIAwasdPhMZyZsZGTQTp8+bs3N9fgB7H/9/5eKmUzWjh87aVWpGsoSRqU4W89mcV5ls1mt55skWY4cr5v/T8n3TfJ73XKtWTgKW1ren9p+MThK0yot46uAURp2M9yXDl5Os+UqvkxlxOr0mZzJWU/fuPX0D1leaYirw0HbG+vs8P5d1tpUY2kySCoTz4hr7Ai/1Ct+VO6qwTdfyNnw8KDdvXfbTp06bA0N1QgHc5b4v//5TXGGwnx4+ixxkwRUaQTueESOSrBcRVdTkpLSlRXpS56vdFt8k14FMVZbZI+x2kgrVWC9nyEWLuuop8TQ0o6+bNh36IG6d+jiau2os3ORBOTtr36TSAXpB+KIE4tSLglDM4E4x3V8asYu33pq312/Z9NzWauurrIkQNve0Wy/+vS87drW5Fxb3alUuBUp3c/TVV6I9LFgvKS/uzQVsidWwYbh1lev/WBnz54A2FX45QXsrwF23s58eIZCJwC2ssCRmP4WXMh24XfpXRyp1G/l+6WVWjn04qdv2um8ViLMa7g3zes1svj5g4gdL1d/tTsECh335y/a286xtEfHeb1MCtEn+LoEG/+EzQZvXfVcwIYJQjABO8/t6PSsfXfjiX199a5lckWkYJLKzlhXW4P99y9/YXu7mq2aQqj/h364MJDot/yLCQR60iyIySpsXFC/i8pAxwzttBjYjY1pypa1xO//+HVxFo599uw5PBKWC/IDqcXAXkh2Pv1NeAOJFrl3o1aLqvT6P1wqU/ClVFjoSMU3GXlfvyQbMGQEtKjDAF0GuQAm594AWrSJgZ2QQiwCdoHbkekZ+/b6E/vLtfsAOwA0Nztpe7a02P/89Sf23rZmS1PrZCC1DyCk7oAOk2C81DI0TSEeXJa0k54Lq4uAffWSnTv/vnPsCNhfOcc+d/YCgREnHNhKOUlySxse/7fgVNDl3FqVIM5D19Wmudrwy9Vlw/i7jKdalX5EGT54qaP9dQM7kEKAjoGt1YEY2KKTA1vMTzopAZsoeWg3CrAvIop/df2BTWURiXleyE7bno5G+8cvP7Y9i4AtQCsXkgik5y4Gtjh2GBjcs+TLW2oJsK8A7PMAWxy7UJgNHHsmk7dz5867TO/s3+fYSklZxq4k59hrja4qaDlXmnu556v1Wy6fldJZ6zKslNfP9Uw8SJ2moM6BvjZuZnVcLeF4xyXMX5OLmCOkCPWOASvhJg+dxD19qZSrFF+BSrryg3+FK3Cdyubsx54Ru/qg1+ZYHlO8VCFrW5n7fn7miHU21QeOHacQZwyxS4UksiRxEhVbXuqUuTeankkUH7IrVy7a+QunSoGN8iyTA+0XDOUdDU5RGWU0Iqmhg4urEf1cw4tXYJn0PHevxDIBVuG9Uj6vSqaU4K8Kuxmea1qYB9gzM7PMEVOWrqr2NlfPUpOL7kHU3Ay1efMyqm+U4IsfIkLC5lA4vZiaRtM9a0yXAx54Vl9Xw9w5ZTOzWZsDyDE60tVpq66rt+cvMnavd9iyKNuEoSr4eUsKPdaRndZaU21VwpaDlqvHDnUo7Wcr9dcEDxVTf1pDHwHYlwH2hfOnrMHn2GjFf//HpcAOFdD62CJgl+aqcjjg1AX+GtzbqucajVqrbAJJj2rfkZER2jjJKN8IuKV0ISE6orf7+hRtlTVZffDlAON1jx4KNBKtxxCrHz7pt6cDgzaHfhhEwK1Ttm1Lh9XV1trg8KhNTE6FQZAEWluabfv2LhufmbNbj/tsljjSpKcTOdtSk4RjH4Jz18GxBWyVXRgLddBlKcTCE30vbYw3BvZC0gu5xplQlOWoVBJtudtXQSXOZbn4r+v/qnxeJx01NGR/naCrDLP61YRVZlA+uHoQmtf+/j63Umpra8NiqYH2RCxnGqZ55bvqyvUrtayUUXJqa4WZ4zM4PmWXbz+yO4+fWgbdU55piyScvbt3YqnZaD1Pehkcxx3YslbctqXNDh/caxMA++KtuzYLm9fSrETxXS219j/+5pzt6miyGrKS8ky5hU+sTCvXx+IwHkGRojKWcuzBiGN/8Boc28enpRmReDyseD5Ln3u+r/X1qpgL1Xit5JYN9Kp8lo1Y8iAAu8RjzW7XqparKZDaMMd8MGdPex/Z1PSEdXRstfbWbXTaOnoN666LBuz1KONq6vPTwgoW7kQOsU3qLK6toVY1zuLVPz5pF288spuPntgULDyfSDuwD+57z1qaGu1R91MbGh7z6Ws+n7XtAPvk0YM2NTtr31y9bZksqTEh1zr27tY6+19/f8GBXU36Gjq9BGQaFGiUKCK15usJt2BRIAYHKdEEZ48QBp7QJ3UvyWsgAPuCgF1NeFeeLRbFZermc2zSfNkp5yj3lx9WfDYABeJmD0XxnsAtvjSbt1wCU8TkLPPHSXvUc8cGhvpta8d2e2/XIauvbcdKqppOx9xQETxmkCrepVYXVTRP9X7u2AswF6C0KKRxLQb2dzce2vVHvTYl/RPAxgDcju4PwO7u6YN+Y5bD4CeXxQhla7udAtgZ5t7fCthzorUxx84B7Fr7p787Zzvbmlx55mXgy0ENrVOaH1EA0XkGbXoevyoWwdNV0ncBbD4pkK1BSAq50CoxsMWxv7ULF04Hjl2I5tgZlGcXpDyjVkU+ywNbTS33LjVzqNG78h2ALSjHjg7DD3VaacKT6RxzvzEbGe+z7qe37Vn/U7h1px05+KFtbd9LB2pASq/iqmjiC+pCocN5ip4wD52rL+QS57Zhryqq1ykqoVTYTiWuqkv0kyA+v3ZR/MW0Xbnbw3z5GaI4826ALWwc3LPdmurr7OmzQRsee2FZielonrvamu3Y/j0O7Mu3HtgMyrcC5E9jMLIDU9J/+OID62ptAOhkpyyVJyCVWF6lH1yztFH/yISNvZh03Ud7W73Vy3pN4dQeIZi3J7GVABxbwP4OYEsrjkmpgP1/pDzDQOXCuVJgx90jRK18bx4KqK/oIydY6pdgqb+CZc1SMzYw9sAe992i8/TbEJ2iJt1kRw6csX27T1l9egvARkvuXFuxF5ufOsSVrBDg6eu6sZ2PQRQxFnVVWhggLolonbRZOGsWEHo4gCiunQNBmlc/GXxh3c+GmXOzwUPApuI7t7VZLWAbGhlzE9ICYC8Qvx3F2N7tW21mbs7uPOpnIACKfJIAuwP5+8KJXdZAPJDnpPOBk7zS7AKrSVe599jULPP6B/awp9daW1tol722d0ebNdakLQW4Y2Ry62lo9WJkdMCuXEYrLmBjK14sIopXgK0GfndcECrDt9pehhUyUWSixzVjAyPd1t131fqHH1giNYdWd8LmZsy6thy2Ywcu2I5thyydbATcdGLkyDA0CAX0eE9NtIp6lW43gYuBraIGcEu8DbJIAQAPDI1DlzGmJ6IRQxniTRVa7/qmFnsxk7UnAyMsdwHIpCSZIrRqZtpSTRy04tMZhj6ATZw2gL27s8NmZ+fs3uPnDKPsvSB8NWm2svPjyJ5tNjk+ZplpNOnQUn+1ALqzvc22bW1jXs1A0j9u//7tVbt1vxuQNtiJQ/vsw6P7GTBarE72qeTjbcKXrhqhArCDKN7YoNWNCscWad4hJ0ALgAHYAnXB59Rzli1O0Qn77da9b+35yF064wtLpQsozzI2NZG1mqoOOMMpwH3eOjv2wp/Y/pcD2HRKATxZyu7IQdDedA4khHKLRoCOby1j3biLgux+j42zvJUDOPo0Nzfbzl27oJvZnQdPbJabqnSt0+HArm1oxWutu7ffBkbHPYymOV3trXZk73s2PTNjV27fd624JargtAXrbK5jbr7bent7rf/5gGVzWv8uWAuDwcnD++3ksf2Wri5QjkH7f99eZocYklR1rTXX19iZw3vso1MHbefWMD+X6J5yVIv5520Mjn358rf28UenrR5DmHx+psKxN13nXLHAAdiu5SVcno5TTGbhHBM2NNbDVsJb1jtwG7FzxEXyRBJgZ2ZsejJrhdlqa6nfZQf3nqEDnrGOll0AG2URk0StxYpTlIJ7UwJbtAMQaBoAlcRks1m8vr/xwK7ceeQbOHJ4ZjlwREuA+/ftdTH9xo/dXFFgoThLMVAeO7DbWpob7D7LYP1oxeekPIPb79jaYaeOHGCOPWffXQnKM617FwDxzi2tduLwPuvu6bHeZ/0YtiAdEK+jpcHOs93yw5P7oHMeMbzf/vDNFRvijIQ0A0mqmLd9XW32MWGO7e8E6Bi4UGbt6xa4lcbI8JBduw7HZndXPRybXScVYEOjd8gFYKtCEgGLLGllixM2PPkE8fu69Q7eRtwcpkegGkogKNIzpqYyAHvGQVydbLP2pvds/+4P7OiBcwB9m7GKQ4dDLJc0jqMvufO59ibi2wvlBtia+wJsKbZmqNc31+7ZD3e6bQyxW8DOMV/uQDzev3cfnDpv12895CpjEgY5uO9xOGhLS6Pd6+6x50MjLsLnUJ7t2LYFrfhhy2CpdvHaTa455vBpy7F9c3dXhwP7Uc8TlhkBNmCHtdoWDkb46IODdubUPuias4vX++w/vr1uY7RJqorzEZAE2uqr7NDubXZgd6e1YZKqeXpTXbU1NdTA1ROI9+N29cpXdv7ccZR6qlsF2FE3fXcuYUVDQl4eTjJtoxNPrbv/uj0bvmPTuQEk0AwfzSUDUqcmp22GrYaGJjxZ4IQPa7YtLfvt+KGPAPhx5oAtYb4NEEBEBGzBWjx78/DteWBzI45dkB03goiWsS6KY997bKOZOaDFHBulWVtLK4You52z3vgRYGNGlkpBI6Ykh/btBNhN9ggDlYHRUUR3qA3n7MIi7fjBfZjqztml63Bslr0E7Czr2ru7trDysNceP3mKNp35NwOGtGUdTbV2/v2DdhZgJxiIv7/+jDn2NYCdtarqOskVvlzWAqdubqi1unQKRVqVdTAgdLLHe1t7E4MNFnL3rtkvLgDsBuqVryjPNj+i47kvnEaipZzm1flihjnjczj1DTj1DZvM9iOWZwgDtxZGBU24+jS20A5sNhOjm7VEvtaqU+0YWxy2I/s/tD07jjL/bsYfxREzb4XyjSKSCBzYmwTc0EmDHkgLWm8RC2CLY9/tGbJ7T4dsgiON2I/lirDG+nrrYl1aux0fP+13UTwJsCX+7uxsx1681pVnY1OTLh1Jedbe3GjvdXU6sB88waTU59Hkl83attYm27Wj0/oGhmyEJTLfbAX3b8Pu/PDeTtv/XhtTpJxduvnc/u1rgD2VRQdSS2vSrohNsu/XoJJANK/GeKWZs83aWdrqYjlsa0vaMpP99rdfnLGmWgpYmWM7Djb3lwNb4NJCCH/8ZqUa66dh6xu8C7CvYPPcwyEAEz7fLohTuyhKHDpjJpNBSzuLKC61G+DVUlexDs7QAbgPopX9CBHzAJpdNOXFajo2PQxQB24dXzc+CX0QEqgp//gkCkO4ahGg5pg3j0zMMl2ZZX1fxh9wPOhSA2dsQrGlsWt8Ygp/adEliqNYQ6GVZpI7lZnFugz9hKiBf106ba2NDT5HHyWOlHOikOhcl06icGtgU8mML4fJO4F/LQYo7U111txYQ5vN2Y17vcz5H9qLaWSHqlriw7MZAMInzMtTtGGadq6vKmDwUmsHdrUibY3Zrz8/i4guS7cKxxZ9N5mL2HLoMg7kqPtQD0TwZI6D9Mbt+egjX9YaGL3Hmixmjyx15ekQztUd2HQset0sHTyDNjjPHDKJrXhC9uJFTCetzmpTbbZ35yk7cfCCbW3b65py1EcMIfqLQe1dd0PTMC6pQJ1BBL6PxdjjZ5xJxvJVgc8MXHkOUOeomwAsE05ZdKZhz6K2n1FAXHHzIvNvgUrPZUziugz5g25ZhqVdIijCrYE1g4Zv9ySNJJy2qqrKQR8WrAKwJWrrDLQUu8Uycznrw5JtYGSK+HiqfKSt7aKaXBVJo8gZZwnE/jRt2VafskM72+3we+02Pd5rn3100lrqGHwKFa34hu6QLxdO3UwfOfEJMCh00uz+jQieM82r++xR3zV7igg+w7w6Wa1th3PeCZFHCas06AD85ehMAnZ2lg5DImG5DHDnATBz7qba7XZozxkUP5/AqTrp+uLoiquwMWT4sWFdKKXWq/WZYN57kfPILt95CLdmaYhPFlDn0V7rLFGYqANbSBWcnLby02CoDwESKL0EbLWAgBcEGDwUTtwVf/APgUiXh0nljZidEkAZDCQxeSCCRBkqsC+zSUmXZ3AtorBUGn6+H8EZUUibJTI+VTRUK4qz/dvb7eT+HdbZmrYnj27YR6cPWxvbNq2QqWjFRdvN5QQpOXUfNbwL4OBU5g4YnMwMss3wDtZSV210qpt1kWlEOs252fjh7Fqx1FOAtcRLGMsMwJ5BDNTSiYPbOzDAzsvaqYG11t125sSXtm/XSaurbgXw4uhKQS6Uw2835FcYyFwLznglYP/l8l379sZ9y6drADTiuOgAqIPYS43EfvlIA84PB7AMWsIhmkK04Bxq7hxedNWHFARyieWiiri17rX8KNoK4P7MSaY4CitOHMJ7Hp5yFckl/Zx/EVphtBQGw8fiLQl462wP8/zD7zE33057ZDN2+wYmpQJ2cw0RKqL4huyKKxVK3Sd23nn4oQ2FAm+2MGG9Q3ftYe8VthzeA+ZarwawoJUuiiM2nUscl77kwCaAzaINzkxPc9AGKmJC+rIOYYuojVNFFDi5eoxXTrNG+2mwTEvUexqBb3vCG/iLeqguAi+idQD2ffv65n3LpesQxauRckQPUVbackDmwAVwsMx50CkNBeFLfgGUId0gAblX5K+WCaD2sCqB4gTfENDTEbWVhz481ICqTLT2jUeB7Z7i1DVowVuYg2vNeyufrvZGTjtttR0dDdaMsmxybMKu/vCVfcRyV0vzK9exVYtyLhSw3JOK39unwEKr0KnILk/Di1sXU1nslvvswdNL1jNwzabzA/gBVu0sVocRqKOPAKkO5Lu46ERSnjmwUQSp14F9DyuO7gq1fB2a2C12dN9HdvLIJ4iBXQwHMjkN822F3rhOdIo+VGySOn5zvdv+fI390skawF4Dx9axwpqYAH4AFYDLUAjABTjnp05D7vVbHzFzwvMVrlHD6JkC+ICA2O7cX2IQfqHFRHulGOI6gKPwAjS33kyBS+eYsxdYduy0Y/u6bAemrC31WKPVso4NoFGMu5zxgj3hP1z6C/s9TlpTk45xWNakVGLJcs5LvtzDiv9bpkDUf8hFYIWZSpmCdnQ2P86y1o/2oO8iGl7ETLTg+cQswEYE1NxOnEBdy8GqmDITZfkKUVTAnmLZK88xP95Nnatz690PARVteGGu1rY2H7DTx39FR3ufTsUSmHaBkc5Gd95jpe2mXjOIxJd/7LM/Xr5tE5Q/B7hjYEusKQixOKeWUBYR3Oe70MOBBw0FSDWAAzSO4PSNQO1cmACatCthd7oP8PbozO39qQ8A3PngAaf2UUOW5lnsyBvtVxdO2geHOgA1EhRJMaNAkiI4H2plL8bGAPZXnFt4whqb2ATykoEK7ao0fU4QSlLmW0XRp+LWgwKhn0UgpQDYlgFshG4MUR4+vWxPhq5zKMAzOBHWZMzL1PrwHUJqsiaeFJzbf7uJJGug2ItPcsSP3t2mzqL2j7ofvzWfpCvlZMrYavt2nrUPT/wShc0efINIHiW5oS9huSqcjHKr+7n94eING50BAuLaCb09Iwx64qVCLySIQBmqJQrqmXNbn8oonP/P19vDEDeECdfA9XmiZUZcPBBqgA08XPnyQB/yVFsVGKyLrEW3NKTsLBtAvjyzhwMa6hzMjNNhKCV80HMUsBXnzDNsxc/CsRvh2IWXTEoXATseZVScitswFFCDAkh1hpze0ZTO+/7qR73XmFtfxiyyBy6EAUSSubW6SYRk9Rs5idd+pVvoTwcZSnk2/uIFHDsoeDwAvSyAG2ATOcESmGG80li9y04d/gK75fMYSXT6PFyd1YEgroCTEiq4jdOHpIwuIrlont09OGn/8hVTlqFJm0uyVixwuziOZKP5NRUWlVyMpu4BhKKg6B4oGV/VEPKJwewRRTn5l3xED6eRnkVz9wDNME0KUwBm3AI1c+tqDj88e3SPff7hYTvQWWf1FEjr3m6kwr1y9WGaPEZGw9FI4fhhlsgqwBa5N49TZ/MOB3DEgTR/TqSzNjL5lP2/X1vfyG2bKQ6zUiULMzqIEIkL337LF90BjqNOoTm2DjGcgWO/eDHOKSCokbz3xTkpdACnkkqxtm3ZJnYZnbQzx75ki+JR1nrryUDSgMLG+W1MYMtGPA+4Bybm7D8uXbfbPf3QC26dANjIIzJOCctRAhBVojr66MsvEp3dQ14RV1cYDxKADBGcxvKVoUsMbvdVmvgFq7NAYw0akpAC6pk45WTeO2vHWcb68uxxO7arwRowhkkxGKhMcXtofFYbqjgVYIu6m9iFrqARHuapbyZc2eK4PXl+y358/A27k7otl8JKStwaMXwtgC3hUPn6q2y0tg3Xrq/qshMHPrPjBz7C0qqL51o7Vajg4juVc6M4AUAcW0YqE0gm391+apdYyx7CJptNq1RQSicGTLF2cWzAJhAKeHIOaKWxArDj+bkgR8gAYO48Ta7Crws1no6GQYUTsPWM8JyNlsaOf9e2Fvv89FE7tb/V2mpTHFfMc5SkArbC+2DhsSvAFkU2vdMIHW/yyDsLncP08Jnd67nERo/LlikMIGrOgrEsoJYYTo/Ahe9QfT/ry0XlwLGrEcWlEV+OYwvYcsG4gjiYnCbzDXS+U/bB0S+wjT6KwQQnnLI05v2OsPG1NF9PZJ2+BByVSpZjwMPQPtj9vglfy370bJSTUhgsWfbSWrbAGYITdl5kJrrAJbC/AtjRY6+pAxAPv0rEB5kCdgjDvZLVOEI7kTM0zmPG22jnT+y3Dw91+ksGdPChnvmauqe60J4LHFvnin8fvQlEdZBWXG/b5E0g53l3lysQPCNlGho0SqtyWXcKqLuFj9Y+pUmRgqyPrZh3H39nA+M/ogjiKFz2X/vhCrTgisCWCEgnr8FIIwD7BcozrejGzrt3lCcMjU6tcUJxxLWbanbBsT9l7/YFt0gznbiiPw/jXZYSxGnEaa7jlfILsrIn00GFQxw7eulWt1279xRDnhwiOpZebvFFHXwVQZx2iSgtmqoKQmZUNd0uArDCeKAQLoBZ3JuBlgcxlyZpfuMnwxW4cT2cWZz6/cO77dTBbdbVXG013sySHhSLH4oTZ+x3GmgkipcCW1MKGahUgL2OvW01WasnacBVE6PlZIkrm3jBETwXUZpdshezvQCdI3eYW7vRAyFfD9ji2JpjC9haYikFY8hTpdSdz8zVaVGkVRXZ1rj9Q/Yff8H66iGe1QFquDbPvRNSigUlmlJYZxcBW2WSGTYKcQbEUfZhP7bu53DtLGI4S39iZ25N5txZ4AtAFeX15+iKqiJQlYJa3h5KwXTHlWT8Gv9WeHnqTSwF6K0NHdpUsmcH+7UP7LCje9ptG0tWtYywKZrZLdRFVOXt0wK1hKcGnWNgS3kWc2wBu8KxnUib5ytARuC1Ks5FmX1u1+//mY0Dt222OMTcOjPPrb3xvUN4l/AqepeIOLU6SeDY5YAdOk+gS7hX6JAcQwvnfyVydVhBHcQa7Zd24L0z7FJqQUwX15ZzeNAVF/h/SGv9vmUOqkFRZdLL83TIwuCLrN18OAANe+3Z6DSWe4BbKw4eLoAmAFf1kRPAgisFtXwcsLrqz4PF1xB+4Rt/uLTOIecMQ6zJ6jlEAQOUvdtt3/YmP1RBLxRIwdJ1pFI4tSbkG74DTZXPYmDz7i5/KZ+ArYMWKhx7geYb/E4NKz5oiNt5rMoGx7vt6r0/oRXvDgYpmj1q7TpySzm2gy4CdFj2kiheCuxYFFdIDx0nRQejw9PZNLTIGq2YrbGGmk47vOcjtnb+gq2Hu+iMKKG8u6kMoevNJ7CeN/OgViHEA6Ej1dNe7L6RGYDdb3ce99vwBJthIG/Y8BEBPCBY1fEaqX7zwJWoPl8v7uMwHiD8Dtp13euhPqIfZqLVKY57brJD2Hsf45DDXVsbrYltXlKU6TRShhjm1mGIidsx5thi3ARzSivJ8lrxCrDnm2Zj34jbSPMBtJlbz9mo9Ty/bbe6v4FzP8MPbo1vqW4k7hDqBHIO1RJgi2NXvzawUTBFnVPWajoPTaet7N72Plz780VKNHXKGAae8Xp/SR4WIL1UDE3QQMAW50a9ZE+HpqDjgD3sG7Ih3v6hrZ1SshWppysriRiqTgugVVdCgZNHlPWLWscz4Jlm84CSSBoIxaEVPoXIo1NJWzkIcTtHGO/bxQGSXa2cNc46NRs8ZFWGBSmDqMAvbq1BRLTEqQpCdHRRXu7FTZhjVzi2E2dzfUUNSmfRq3kKgHhyro/XtUobfhXOM4LSTNpwWRgt1KwcsGNOHWvHFwM7nmO74L2Q0JI730SiE1UK9ZzZtR+Dlc/tyL6ziONtGF/olBWcOmQo9pLY6/FTBYloyCXwQWnIg0iu1/f0jfCGTE5RedQ7wF72cXbJ5TAAErjFNzWoaUAAdNoj7XUjIVeIkZ6jPqoX974WjkJMonRC2yxh22EjB6eytLVwAkuL7WHLZSennzQhd0vOkYmo6Oa0A9ilWvAo5fmL8K1mVo2U98joMHPsCrDnCbQ5btR8wQWODbCrpmxw4j7zw695v9RdVGnhdBQXw6NRXTGWA7aAqW6xmGMvNlDR0+Wcx2eeXcTMtLG6C834xyx9fYYl2nbYIOeCKaI6+/JJLJf0W/JXQeLCiOtyDw3EC6VIizn3AK+/ffJcdgHD9oyNFaOcqjLNWWc6jlg8VABPMDF2AxPixoDWFMWRplwEeoEaj2qs3HTwYDtv/9jC4f9dW1tse3uzbeV1P62Yi9ZgqcumPCQfxdNwoxulq5IJuuVdBdjl6bKJfNXU3txcBWt1MM2vp+zx4GWA/Rcbn+1D4TNNZ53jWTyOR1UsozxzTv3GwBbsgzieNkRKtnSeOfk3HK53AKSwh5un6vRuUbUhqB1LIKKPqBgGNtdO4yO65eGqml9PAmTNtZ8Nv0ApOcFbUybZNZfhfVq8TxzLPB1N7BptrUvHZOYuBWevAsjVWInplTxN7MJqbRSHbrIOzjvTR2BuEIcG0L6JA1CH1/uEcoWyxd/LE+5lYOvF99/buYrybHmibawnpcAODY5lOMtc43b36VdubTZdGOIFmTMuhqt7gPCFKrxVYANfnY+Wa7DtHUfs7Pu/YsnmffxqgA3AoRxhVrtQnPW7C3QM5XEqReAO5PL1atmRU2JxbyY0zLOLNp7hLRs6D433aI1xmuvYxLS/+WOWrZ85tNoir+bBac5Oq61GeuFI4BaOB27jTZwdnGKqU0U5hNSPWEJXxoAXfRQvutc7ueJyaYAR88djRfcysAcjYOvdXbFWvPTdXZqiaWqkSTvVrLj1pkDokKEUahNeAcBWTC1t/XDnX9nMcNU3fBTZ3aXjhr3LOjcmBlHFm+RK+0nMsV3UJmw1HTKsY69GFFdsxFKdpMJe7bbGPb6erSOLU8UmWCDcS+d9wdXEDzeiK6WJyufzaOokpZqXmqtADqN2Tp4FcX5Ks8LiF8RxYoEVnXUGs4ZjGxxbH4E9cGX5u3ROfN27rECzcOtOyrUAbPksQDx6XPZSHtgX4dgCdmV3V1mibSzP0NihTNyjHBPHnsz1A+zfW+/ITbcNL2LJEIxSCBlzbIK/PWCLUwnYWvZKowDazgsGPrEPjn1hjbVbmWKG00w3PrDjgU90Fr0ELM2lA8AWgVwBQjAncSQMuVfkPX/vzwC/5tlaq44HN6Uq1QMXnGLFUk0oh3zlFv8KfqXfFWCXUmNT3ofGD0XnXhpxgD02+8Qu3vqdPZ+4iyKNwxSwDY87jzpL3G/eJrCVi1uaoUCrTXWwT/uMnT75t7xs4D1YXbBwFkQWyrWeDRCDaKEMpRKpnsZw0mEMDrpIDxGDCJw6J9djAdeDKZocv0XrKKZ7eBhQHIDtoYivUKJJnIfLTSEB9w/hXvUdl0mpqB4jI5pjVzj2q+i2gZ4v6ir0B4CNKD4y9dC+uflb3lzxEGBz+qiWubzbqehvH9iei+aG9DAdeFiTaLNdnafs9IlfcT3qa9wsrDvviwGjOOvnBCDRcsGVAjv4Cq0L8FTdAgCpgfsrVEhDoJ1Pzu8DXMWOPVaE+oUUSINnrtz0JEI6noho6KBWQkqXq+cdfpb71uO4CGG5S3PsCrDL0WoD+4Xu4WO979iasecscX19858RyWUfzvx6vYBNl9QbQmSosq31MG+N/KW/80unrSR1MMP8YLMRyBuDKS5LBKT4Z3yNg/lj/YjCuX/08KWoeJQE9fs4vfhaGidKxh85iEsfxhGWv74M7HJa8YrybHkKbpgn0ZgOgPOWsf7RHx3Y08X+CNjakChhUe5n5NjkJbvxJIYqbQ377OShz+3UsU9RqHFkEoq1jQVsJ8478bUY2LI8iw1UpDyLt21WgL0JGjuAVfusc8VpPynlm1v/zGx7gDXtsPdaIApMI2IHXCIB0f3jSq6FVlxpSWKUECljlWQh3sb5mZ079SWacV4HhIge5x/nXbmuDQUWgE2/oB3Kb9usAHttqP1WU4mAjXHKnM4OH7ll3wLsudQwxik6AglurY+ci3ZcfwZgK7ukA7vG6tNdvPT9F/bJ2b/nPJXmMM9WgIpbcwqsAtg6aOG8vxWiso695u2wBgnGwJ7DLvwFmxZu2sU7v7FsahSOHYA9L4q/MbB9fca58YoFn+fYrGgjdtdVbeXNFJ/w/qh/ANgt7DXGljwuy4oJVR6ulgKvB+zK7q7V0nUdwgdg6/DCAOwb9v2Pv+PEFB1cGA4tXBtg61ytGNivqqZEAkDNJ4FBSm0SYO/52D7/+B8Bditr2Vhq6Nnq9EKvyrTyHApUgP3OdIOYY2exOoNjD9+AY//W5hK8MZJjarUc8+bA5gQVP6V0NcBmfj0P7C0O7M8+hmMnWljLZs+SZghqgwq417QnVoC9puRcz8QiYKM8m7NJ6wXY393+DcqzwTUAts48y3Cu+Piic8UdkCtWWRw7BjaieGorWzc/sU/P/zfWr5sRzyvAXpF8b/CwAuw3IN7GiroA7JxN2VNMSb+79RvOS5FWPJ5jR2zRL4BOuItY5TxIeRZrsnUVMKurBeyZJaeURpx2JSKod5GGv1MbDXh99TZeIvCZfXz27wA1WnFtEBE3VxoVjr0SJVf9rALsVZNso0YIwC7CsfOJaXs2dgeO/TubyPUBbC13yfJM6JFIHgDrNVkywQ0/CSFO6yeBsPkyxZtAZmZtYuKFZdm15KeRehoro1HLLL4RJNKKt9Tt5Iikz3nd7heAGmDzls75PcYrJ7VRib5hy1UB9oZtmtUWbIFj5+HYg5MP4di/w2a8B2BjecYZaCFE4MjixO7KADtwUZ03qjBrA+yqYp21N+51AxXt8Eqyw0uacuVScWtPgQqw156m65RizLGxFU/O2Mj0Y/v+zv/mLRYP2LbJWzJZyw4cW/wawMYc8q0CW9IB9uDYhKeK9bykL5xYenDvGfwa+UgUR3sWl2WdKPcuZlsB9jvTqiXAhkOPZ57a5bv/Yn2jYdumOHbAz6uB7Tx9iSieycy4KO5acU4S0V/YX7g8AZWf3v2VZOtmFW/d3N5xzE7zPq89208A6gZArfdnR0YzyydTefITKPB6wHbLs4qByk+g788YJQK2DlPgvVxTOc7CfvTv9qj/Ekte424vHhRlkYgdc8mIY+tnrMRy2JYBtl4YkNebQKJtix41jlSmptpVlOIwBSnJqhPNtqfrA+bXv7YujkfSCaZsOwP4cUHKJFDx+skUWAWwc3bh3AUaloFaa4807svb2n5yOSoR35gCMbDZ+OdLXqN2+8mf7ccn39g07+syP0FF3HF5YKsIwmlsK16qPBPHfhnYjmoilOe6Bb2ahnO+Euy9rq/q8DXsMyd/zbleO1g2QzxPAG4O9atgW5RfW1cB9trScx1TCyBzrszB0zrz7OHzi3az+88cZvgEYHPmGQgKu4EjxZmXdjHHXEtgh7OzOf+HLZrNtdvtfe3sOvpLjiDuANi8UoB3YVVE8bfTZSrAfjt0XYdUY2DDQDneMp9gI8jYTbv56M/2/MWPHGY4DbD1J+fwjcq4OmD7u7t05JH+1HvkluHYfgqptO+cebalaa/Pr4/u48wz48wzzhbXqZ1BzgjJVL7XjgIVYK8dLTdASgCN/yQn4uUTkzac6eaU0q+te+AyHHzMD1soz7UXiu6QB+usYgPcsNyVSvHi+8zswkv5XgnsMFg4sJlHp1iz3r7lmJ3jWKQ9208B6lq05GwAIY/KfuwF2q/lXQXYa0nNjZAWug/ZlRQwUpkqDPIWkCt25/FXKNM4cIEjk/xAQ9ePCFTlnZRi8FPmvsCcTwC2tOITS5RnGgZwL3HsAGxXrrFWXZNo51zxs3aO44e3tO7ncEMOMnRQK375+bmnW/n6yRSoAPsnk26DRnSsodbkdT7Z5ARHJN3jhXL/yUv5HrlFmr8XG8SFkzbL1+H1gC3hIAL2omQE6jCTT+h1lSjOmmp32HFMSU/xJpD66k78pA2XOK+QFWAvIt8a/agAe40IuWGSAS1ajcrx/mNLz6I467UbD/5kfcO3bDY/CuB1/hmAUssv4/RE688rc2yX+kMKLrJHiQU2HUCfJxUMU7rajgDqL+3g7tN+9hkT/gBrlsMqwF6mEd7QexXArqxjvyGtf57oEsVBZjY/a4nqIls4h+1+Ly++7/vBxqaeulUa1iEAStyyvHsZ2FU+x14sipcB9vxYAcemZxV46VVDeguvgb3AIYaf27a2fSx9YR+u9WvCag5eAXb5NnhT39cDduWghTel888aX/jSUUg53oOdT6FEw6z0/pNLnKpyy+byY5z6qzeC+EG3y5ZrgWMLwCnTOvb0NKapGDK8tAkk4tiybQj2DQwZEgtY5trWtt/eB9QHd5+xunSHr2nr3dnShhdZw15ucFm2YJUHr0WBCrBfi0ybK5AOVFDDYvoBsHlZHK/7efL8BuD+3sane7Ebn+G5QFUeVpKmZViiRLRDS2K7dndpT/ZKwI6pJHAXePdNTaqNo5DOAuzPeHvkfkxL6+DW2vgR5tdSnJUvQZxS5fpTKVAB9k+l3AaO5xyb8qlxc4A4n5rgBQI9Duy+wTu8yB2ujXWaH3BYph4xsKUcyzM66B1Us7McuQTXXgRscWVB0+fVGgAEU/zg4Ak2eHS2HcAo5VM7wNxa551JkSZJQMtoiilXEcUDHdb6uwLstaboBkgvgpsDW6/2ybO7a6Y4ar2Dt1wkH53kJQKJDM+xDwaU5bimAxD4FfJAD8X17AzAnsF6DVHcRW4H8OKYvm4NdPWGj3SyCRPS82zT/IVtbdlnVWzT1IsDwnlpKmEM7YpW/G10mdcB9n8BAAD//xQN+joAACwVSURBVO1dB2AWVdY96aGEGnrvoDTpdkVRpNn7Yl137YqgICo2XJSi+6+uFVFAQASVZkcUsCIgClhAepGeENLrf8593yRfYgjBjRBgBvLNzJvX5553y7vvTcic+d/kpKZkoXPHTsjOCkFONhASwjN44R+luAdCkB2ShUykIiQyFfHJm7F2y4/YtH0lktJ3AqHpfJ7N96h/IdaOHP7qKiSHVzmhvA5FZkY2UlNSkJ6Wjhy+fIvJnxzF8Q5eh+SE8Fk4z1GoVrkR2rU8HQ1rt0WZ8MoIyYpCSHYYQkNClbuXimefhoI6o8Qu+Sr4TtXTxCkv9sTtwvfLFqNz5zYoXz4c2TlpCPGBXWL9fUgzEigF2cyQdIRGZCAtZy+2x63B2s1LsS1uNTKy9yEnLIsvmbECWHPEIGDrT2QRhoy0LKQkJyMjQ8AmgPlQ/7xDV4JrKEGdnRmKmOjqaN6oM1o07orK5esjLKcs/wT4UMZRTEd0duED23VDCf/6wC7hDi1d2TkQZSOLzDcD2WGp5NQ7sGnHSmz4/Qdy8K0EfSqhlUlgO6A6zs0hQQA2WEciIz0LSUlJ5NhphDM5toBtAJfU5tJpEAhDBAFcBg3qtEWrJl1Rs2oLRIdVZl6RfBZOSAfYiHWS0urwObZ1Qwn/+MAu4Q4tXdl53JFwpEieTdE7E/sQl7QRG7etwJZdv2Jf6g6CnoANlUguTirWTUgLuKSOyLAyyMkKReK+RCQnJ5K7Z8JJ04yt/xLNqZaF5IRR3I5E1Qp10brlaQR3G5SLqI5wcuvQnAgTwR2wPSB7dfPuS1fPHem1KR6wP6eOnerr2Efeyw7I16y4dGnjzARxWnY8du3bgPVbl2Prrl+QnrMPCCNHJ+wFM4nwhvLsUJSNqIDI8Ggk7N2L+L17kJWdgZAwDQEcCLIdKENDwngbgbKRsWhavz2Oa3YiKsXUQ3h2OYI6irkR9MqX1ObxaSe8qxgf2OyaEj8OAtiZ6NKpC7Iy+TL4LnzjWYm/ixLLMA/OLkvjxAG9OCeE4CW4U7Li8PvuVVi3ZRn27NtknDw7JI0ws5fLlyywhlFfroLy0RUQFx+Hnbu2ITOLRhfj7iQE8XfLPALhoTFoXLcdWjbujFqxzRERWoHGMoJa3NokAFeXvLr5HLvEXnghGfnALqRTjvSgPPC4lgh7HImNCedQ384OyUBWqNO3t+z8BRt/X449iRuJ5WTCmvq2xaROTN24YtlYVChXBXv27Mbv2zchPT0FoeHislnGfXPI1UOpV9eo2hTtjz8Ndao3R1RYFYK6DMNpMDNuLVHd1SWvbj6wXY/8Nb8+sP+afj28uVLslkCda+oWBAlsHQKt9OQc6ttZIclISN3G6a+fCO4fzLCWiSQCl/EJ2BACu2pMTVSOqYZdu3di85Z1SElLQli4NHHmRFHcm9pq3fJENK7XDtHhVZCTyaktpvVEcNVFYrgOD9g5EvftUF39o6R7wAd2SfdoacjPY48BMDlQe5AiuHPItcmZEZaJzNAkxCVuwmbObW/e8ROS0nZQ/SXwxWEpiteoVA9VKtbArl07sWHTWiSnJBD4GiAIUnLkyhVqoW2rU9GsYTvTsbMyIsitI/mMorwAHYCyD+xDSxg+sA9tf5ea0mS0kqVcRrOMkH1ISN5inHvLjl+QlLqb3JjOK8R+jSoN6GxSB/Hx8diwcQ32Ju4xC3oEDWpVK9ZBk4Zt0aJpZ4LacWoI1BK/zblF4C81TT6mKuID+5h63XmNNbwRdTmhnOPmXHZmSCIS07bh952rsHnbr0jYtwtZGVkEdn1Uq1obKUkp2LR5I3bGbUdYRBhqVq+HxvVbc1qrFaJpDRenDguJNi4u2cD+fFDndfghvvKBfYg7vLQVZzo3jWk5NKYhLAXJ6buwbcc6bPl9DeetkzhtFUtxO5auxDkmjsfvi0dMxYpoWL8FalVvguiIishM1zy1dGqeTfz3xH4h20f34XjnPrAPR68f5jKDYaeqmFgOzk+HywMtGakZe7F7z1ZawqlvU6SODIuiaE7X1MwshEfSUl65CqpUrsXwCtTDPUNZwLMsqG0aNHxgB3XIIbwsHrD9RSCH8JUcpqIolmt+OjuH/uC0mKdnJmJv/G7sS0ggR84wfEZHl0GFSpW4iKAiLeNlOeMlfdqzfntW7rz6+8DO64tDfeUD+1D3eKkoz+PZqoymrnTQfs2LbFrMzYkF6Ujj1FZ83G4kJyaaQ1LFChVRsWJlhEeVYbIIWs7FpTVXXfBwIT6wC/bLobv3gX3o+roUlSTgOfA5txWDtdXPdG6Bm0a17KwMcyNNiN9DAIegcuXKiImpRG4dSVBrOkuhHqcO1qWDgV2Kmn0MVcUH9jH0svOaGgxsF6oQQdPO/JHerfnuhIQ9iNuzi8YxoHIlupdSDA8NE7AZN+D0kj/fvLtgqOeF+leHogd8YB+KXi51ZQi+eYfdCcwGVse9nRidjaTEvdhDrzNaz0wMF8cODZMYzvT5s7EAH8x5/Xo4r3xgH87eL6Vle3gNpWtqclIigc057awsArsSKlDPDjFgaxTwxHDXEB/UpeeF+sAuPe+iVNVEuncoLeV/BHYlAjucHNsHdql6YQUq4wO7QIf4t64H9gfsmAoSxbVnFq3pPscuteTiA7vUvprDWzFtfySRPDmJO67s4QYLFMUlhsfwLzScHJsOKz6wD+87Kqr04gHbdlDxN1ooqiOPtmdhoaE2p53KTQz3cveULO6wUb5ceZSPiQkYzwRsTxt3rfd17NJDBT6wS8+7KFU1CSVopUdnE9Bp3MQwMzMTkZERiIriQo/QMKdjF6ixD+wCHXIYb31gH8bOL+1FC9wGcIrd2d6mhQyz7YpZ+fz82s2Dl/Y2HSv184F9rLzpP9HOXFFb+rTS8yd3JxYZzwrk6XPsAh1yGG99YB/Czi8IhIJFlzpgsMK0of3hENGYm9ofnhQMUMQDtdrfGqlgr5XEvQ/skujFYuZxIBIvBEPFzPmvi1ZYnYtfTx/Yf92bKTpnH9hF90+JPi0MJMEFFB8wwalK83Xenmf7r2VxOHbRPWNPC+tcPvCC/6g47L9GR8MTH9iH8C16RLa/Iosm3/2lKr3hbiPDA7W6OMAuOo6pBoV1Qy6w5W5zoHoUlsGRG3YQwPa/BFLka7Y5XVJSEeg8EGlZUkbyjFby2nSrLYosudQ+9HYoLbKCam8hnWYuq7kJC+9U9ZNzbXU9a7Gs05hQQQxwT3xg+1/bzCWmg7swIhMluf8OkCQ8R19cK8XwMAP//vMVkcrqrCkmotsRrUeo+09Wap84UB2oeuyYooDNfvDAqQu7Vt/QUh/KtaTZ9pkh3vOB+s89d2XmGf58YPvAPhAd7u+5wJiLakeqCvK4SjYJ8YDA9vIWMRuFMh+mO1KPQBPyVd/AZ41zbdRH/Vxv5YtW6I0gruWk+sa28gmld5zuBW6NfwK3yjSJJ9+A6APbB3ahJHWQgaQuAVJOHR4hiwi130hRh+JniQOJ8yg+/zx+VVS60vqssNZ6gHR1Zh/Ro03gzHcEbq3P2Aee9KK0uV/35OAQzsUo8ohLz8igmyu/OxLmPlLg5a2z6iA+7uvY/ofvHV0c5K9o0QiZP+Ig+jrlTn49Q+6YUVH8VE4V7ezJb1qRUMWkHEd2pK8FF/LFjovX7qB7+H2sNLpvRqFq1arctYTfl1YacSCPjXtlBeqYC4vcCz1Q/HwBgVSuzEBSi5Z7HXxRIFrwI7sOzppxvehesFe0wr0wpVMTQumSmp2dZR8h2LljBzIJTGXgmKzA67hxNN1Xy8fQP50+6uFceBJBl1aTYJQHMwolkDdt2sRFKnGoxG2balSvxjjcUVX/mIfK1uHKF3cveHgx8mIVjHGk3hfPeObvUnrA9+vp2BK3ExP3Yen332PBwoXYQcKtWrUyOnfqhO5nnonoMmX4AfkMchduAhigqzByG330btF3i/DNt98iLi4ONWrUwhmnn44T2p8A7Q6aSeBrYYYHcKX1uLkI2f47ZAQAIhCJlEngVpAKcwV6BG7nQJrcygRaqmde/dwSzYB7qZ4rDSUS/TOZghFdGXrkQKVoClOJVoTCLcye2OC3ePFifDJ3Lnbu5A4tPKSuZBHwErWjo6O4miwGsVVjUbtWTTRs0AAtW7VEdFQUY7ryNDhMnToNi5csRefOHXFW9zMRW62a1cG9D3HqQPmBtqsc75nyyTssZt7tEX7lA7uEXqARNolXII3j5n+zZ8/Gq6+Ow/rfVqF8lVj0PPdsDL7vXtSsUROpqemIiIi0kkWc4eGhWLFyJSa+MQmz57yHpIS9aNysOW68/nqc368f9xmLIUfXB+adNODEUSV3hOkAaBAKhLlwxdPXNR28FOZ2PDHCFtAIJEkQqrMNGMqSh0jcZU1gWLzAx+1dQXrq4pvooaiuPHtg1ZAawlwC6nMIjVwCq5dO9/r37swZ+M+z/8XGNWv4dZEoRBDM2VweKoDbt7eZhxaclGP7u3XpgCsuv5QA7sQNFdUfWSaGPz58BN5+ZyYuvqgvrru2Pxo0bMC6uTZoWamGHh12rQd27YnmQfV2Q4A9Pxp+fGD/j28xjzRENAJ2GLfsjcPMWTPxyksvk2h/QnhENFqTYz/+6CNo17Y945HPESQiXunUxBY++3w+XnjueXz71QLboaRRs5a49Zab0a/v+ShLUTSD4qpA5rAlyhUHdCKrA6pQJJCFOj1d16ycNiR0h2rqiNzuHY1bPQS0gsBWnlIBlKMNECovAAxlnNdulZEHGFMbmMoB0w1GykOH6uMNKlJXZsycjdFP/xu/r1+LUynNnNChPcqUKWttTUrixwLj4rFly+9YtnQ5UvftRYduXdD/6ivRp08va6MkmOFPPIkpb0zB5ZdfhBtvuhENyNmtNqojgc0xwj504K0dd33oAzs7h985n/351zmpKf48tlFngZ88Ahc5EWgkqHhy7FmzZ2HsK2Oxad0qznOFoXrNerjzjttx4YUXolzZ8o74BAjG37cvAe+8+y7Gvz4B61b/wrBQNGraHLcQ2H0JbIni4lDh5KzSK8UKBRxxRc/AJIIV9xdnZwYM56fxwtw5gDsLl+k4UKzV1cRf5h18aLSXquDSuydizllEiXFTZmD/AhmrbP1pULP6sVnivBoXVA81Vr0jMMuWIB1b/TZjlgP21g0bMXjIIFxy2YW0Q1S1ePrqSFpqKjZv3oK5n8zjIPAe+3IDup16IgfIYahfv77Fe+zxJ/DW5LdwxVWX4O8EdqNGjSxc/apydM5kn7BoC/eB3YYSoHbAEbA/I7BTBezOfGEajdVfGvVERP7heoB9QeoVHQvYJooT2Nu3bkFsnZrc7TMVp5x8Eh568EHUqllT2DOwRlIk/+XXXyi2v4658z4jt0pHCnX0moxz6+23om/vftTLy7LPc5CSmoS1a9fhV8bfvmM7dfV0GpbKoV79emjevDnq1qljRjeBSMBf+dNKi9u8eTPq+dWwgQBau3Y9krhBYVnm2YDpmjZtamVpgNDgYVyajdi9azdWrV7NNBtoAExHbGxVNKSYq3S7du8mWLLsvkaNGkYLSreHhr81a9Zaul27dlkdKsZUQP0G9dGiRXPqyrUMbE6VCCVYZ2LMM89iy7p1eHDYUFx+xSWoRGNhBj8GqDZoBFJ/bN60Ge/OmIGXXhzHPc3D8cTwYejR4yzb0WXYsEcxdcp0XHhxX5x33jlIS0/HxvWbkEIDZAVu4yTRvF27dtDHDgRycfBA1lZvexEuhGUGHrooR/RvsURxB2x/B5Wi37SALY6dQ2DHEdjk2C+PpcU3DW0pYv74408oE10WT48ZRYNYe+NwjsBD8Pn8BXiZcQVWGdrWEbzly5bFbeTwvXr1JnhjsI9gnzv3UxPZV6z8KXdXkwgSeo0a1dDhhBNw9tlnoWuXLrYZggx4r49/nVxxDjp17ECrfGUsX/4z1q7fiLSUVETxG1x169bG6aedzDLOQ/169R2wKRWsWrUan342D19//R0/nbvJJIMKtE7Xr1cXFSpWMBE5hvcXXngBB6uTDTAygM1573188eXX+G01P+jHMsQdI1m/OrVr4cQTOxOMZ6P18cezG50kMf3td/Cf517EJrb3gQeH4LLLBexKBDO/32uHxGmQc6fgu0Xf4fEnnsLqn1fgpptvxt/+dpVx7UcfG443J01F46YN2Z462LGTHxXcvpMDD8umFb123bo0Wp5GG0dPNG7ckGK5g68Yk1eG6uNCfWDbaOdz7ABt2EnAdvpyfFwexy5Lg9DZ55yNb75ZhJ9/WoUhQ4fgyisup8GMX6YkZxSXmzZtOqZMfYscrQa5b10somU8m8R9+113oXevPjbVs4iE/ex/XyR3X40WzRujWdPG5ORRtCjvws+/rOLG/vtMIrj8skupx7e1abaRo0ZR/3wDFWlZrszpturVqht3Vj3XkrOuXbsBTRo3QP/+V+P88/vavPBucuPxEyZg9nsfIZVTdQ0a1EOdOrX55c0Ukxa2bt2GdIK2SfMmuP22m9Gndx9+LWSvDTqvjH2dU3y70fq4luTm9c0wt2nTZvzy8yqCLBzn9ezBcs5H4yaNTWx/661pNJ69gC3r1+OBh4biiisvDXBsD9iuf3MoHWzavBmPPfYE5n74Ps5hn9x++y1o3fp4p2NPnEw1IRNVq1c38DZu3IgaRyilld/w86o1qMLB4obrr8XFF19g9goDshMJSMcBO4Jxax/YPrCDMV0YsOfQKv7KOFSuGINLLr0Iq35dhTenTEOvPn3w+GOPmJgYERFBLvojXqbI/s2iRehx9pkU06thFo1KyYnJBPad6NunH7Zv34Gxr47jADADzQjqa/pfRfGyLad+IsmhdmLBgoW0pn9ETpdBY1tv3HjD9TbnO2r0aEwe/xrCIsui20kn4gKCSiK79NzFLG/62+9iC3VYccp77rmbhqsy+PbbRZDeun7jZg4q5+KMM06jyF6fdoBETsV9gw8+/BirfvkFTVu0xMC776INoDe+/OobvDJ2HBYu+AonndwVV9J63YQivkxs6ynKz507D/M+/RxVKDUIvBrYojhtNeXNqRysXjJRXMC+/IrL+Bkhj2OTo4qpkusrn73x8ZAFfNrUN9GmfQfcP3gQunXrin+NeAqTJkziIBKCM846nYPHuZwWa2XW9JWUbN5+ZxYWzpuLbqd1x8MU95s2a2YDjs0IGNf2ODeL8kVx9jk7xefYwejmaE8LNFXNXFH8VRJ7LAn17zddz90+k/HQsCeoB9fF//17FFq2bMUprwh8/PHHeP75F8hhU9H/mquN4F968WV+aD4ZdxDYfTgQfPfdYnL6BymSplEEvQKXXXIZateRvhqK1JQU/PDjD5zPnY4PPpqLNuRij9H6LvH3qZEjMWnieDRveTzz/hvO6XGOOb1ornjlyhV47bXX8AE5c5/ze+OBofcbF50+bRpGPvU0mrRoioH33IWOHTvxQwH8BnZmBtZRFzYj34TJqF27Np8PQC/qta+88ho574uoGlsFf7/hWhPt5TAiQ10CDYPfUlqZNGkKxeml6N3vPAwdci919lgC+008R2BvXreGHPsBA7bTsR3HNhqjrSCMoE1OSSaIR2HCuFdRv3FzgvR+nHnmGQ7Y4yexjc1w7XX90b37mSbOh4SEmbPPnNnvY8S/RtEaGI5nnx2Dk0892YyRMgLaQVznSCE9yo5i6thf0XiWSeNZF3CwlyTnA7sAIZiWZsCWVZw6tjg29eZqVSrirgF30YOsEgYOHIrt23Zi8OABuOTii8xKO2nyZEyc8AaaE0j//MdNBEIinnpypFmE76Qofs455+A96q5D7x+MEzp2xD0D7kEnTp2J4/FNWC22b99GK/wcDhAvU+ysTPH0cbQlR3/yyScxmXPj5/bsaaKrBhOzSBMo8th6ffx4TJyo5+dgyOD7kMJBYuyrYzF10mSc16cvhhCAdevW47uWe2sI599T8NFHH2Hk6DGICI/CPQMHUn89AyNY3zdeex09+/ajJf8mGspaEoy0fGvwJ8eV2D9p8pusy1s48ZSueJjcuXmLJpg8RRz7RWxZuxoPDHuIksNlBURxl57T/AbsEQFgN2zWikbIISZNDH9iBNWNN9HzvB7458034Xjq8G7On1NdHBS+X7oMA+97wPwJnhj5JAednvZFE/WczbUbpoXuowvchQF72Q9LSDutg63iXwas4l0JbAosPrALwFpSI/vFgJ3noDL2pVdQvSoBfe8gNG3SBKNGPYM5s6gjnnsWHn74IXqoJZBjPU9R9mtav3viqquvwob1G/E4RWG5Wd5x513kSmdiypTJGDNyBM46txcefGAowVbfgCZJUn+J/MztJ598giefGoMoOno8+OBQnEwLvHTsSdQ/L7nsEgO2QCoRNCw8jPPDWzBh4kS8xim2s846E/cPGYzd/JTPf559DvM+/gj9r7sed999J0XjKgSIptUEsmzMX7AAo0eN5iCQhrvvGYiTTzoZjzz2OGZPn4qb77gL11OXlQVeYq2tUmNPbdu23cT+//73ZbQ/oTUeemAwCawdyxewqWOv/Y3AHkZgB+vYHtCUD1i33SaKz5g+HR26dKWzzyDm0ZF693BMfXMaRXxOd/39BjRs2DBgfHODwjrOAgwcNAQ/LPkOQx4ehgsu6IdqlBakg+cBW6+ThRxF4C4msL9wwO7QjaOhD+w/oNrIQsCW8SyEnmdxmEPPs7GvvIpqlSpg4OB70aF9e/Mqe+yxEWbFHjN6BOPF49n/PEtulEKivN5E5SVLl+JftP5mcR73jjvvoNX6NOOsz/3f0+jV73ybLqtevYZVQaAW19b0lSzmAnaZMuUI0vtwEnXqMWPG4A1KA1fTOHbbbbfQcFbLLN9y7Ni8ZTOB9QZeJ7C7dz/DgC331zFjnsbXC+fjn7fdjltvvdlsAZoG05y2OOD8BfMJ7DEBYA9A167daNEehrnvz8a99w+lIa4/01QwBxJVjwzb3GrfeXcGnn3uJbRpI247mC62JxQA9sMFgM3EPJSHbAKrV6/CI48Ox7dffoHzL+JARcNds+bNYNNdBPaVV12KG264zoDtidnZnL/etHkrJaX7sOTbr3H/ww+jH42E1apVY8Y+sDmP7QPbqKyIH4FMc8fSe+VS+t5772EcgV2FxrNB5C4nntgNP1GvvXfwg+ZNdcvNNxogZ7wzg4amRriFIOpIUXv+/AUUoUdx1ROBTR1b/uKTKa6PoRjZ/ZxzMfjeezk328j0YWfjyMGO7dtt0HiJum6NajWofz5gIukz//43Jo4bh6uvu9a82Dxga/DZumUrJk6aRD17vHHsIYMHmwrx7HPP45P35+DaG2/EnXfeToNXrAFL7dKc8ocSxUeONlXg7rsH0Fh2EqWPRzGHc9K33H4bDXt/48BVk4B2aoIGhXVr12Lym2/ReDgdXbt1wjCK4i1aNKN4PhXPPU9RfN1vGPrQMOrY4thVKK3kOcyoX/clJODTTz/FiBGjsZtTgoMGD8JllEKkpz/00COcx56K3n164qZ/3IhWNJwJ2JxQs8Fl9arVuIcc++flyzFi9EhKSz1s4BGwrYYaOezQC8y98QKP2HOxOPYsAVueZx0oivscu9CXLbFTxCzQOM+z2Rg3dhyqct530H334JRTTzEAjhrzDGa+OwdNOV2UzSmanXTkOL9vL1xNV8mGDRuSgD8zHdumu2h17nF2D84Pz8HDQ4eiSavjcNutt+DUU04xf2lVRN5mK1Yup5/5FHz44Sc0yrWksWg46tSqjZFjRmMKOfJV116D2zg9VJ2gd9w3FL/TcUb69bhxBDat8dKx5RgyYcIETHz9dZxJBxBx/oYNG3O6LczSSZefTlH4eerFMt4NoI59VvfuFPnHYMKrr6AH59yvvfZam1OXDUDieAqnyTRVJ5F/0Tff4ZyeZxuwY2OrYepb0wjsF7CZwB/8AKcBL7+cq7QI7Ey33FX9qZVuq379FePHT8CMt6ejbsMm7J/h5jOuKUOJ4m9OehPtO7Sljv0PnMK+0Uow8Xottpn32Wf0ahtGx5UsPP/CM+jWtSsirW5Sniyafnkc3cCOi9eyzSWUlFrT914fVaTnmQ9s9+qL+tVYL04hkTWBizhm05glq3jVyhTFB92NUwnsxH378P4HH1J8HE7vsngxDTSjoemf/7yRRqjTuUSxAubN+xyjRo4xHft2iuK9zuvFlWJLyRUfwXbOWffidM41/a+hGNqUVvVwOovspmX9EwP2rt176IhxLu6gx5o8xEZqukvAvqZ/PmCH0/Xz99/JsWlYE7C7d3c6tpxOZs6cRVVgJKrE0uh3522m40vP3rNnl0kTUznnvnTxt5QyWtB4NoDTS+fhDXL+p//vOURGhOEKctJLabWX55y4/GbOP8+cNQtvTXvHpIzLL7sY1193HcqWLWPAfuHFl7BhzW/0sruN+u+F5NgVub46ExnpmZxi28fpsvVY8Pl8Gu0+RRq/I3bBpRdj0MC76XBTlRw5i4bCEZhKl9IKFekwc9EFNh/fpHETE7XXr99AVWMiJtOW0O3UM/DoY8PM5VSLXihcOb/JXCbtA9s3nhWGcHIXj2ML2LPoB206Nq3ig+69x4At7voL57PvvOserPl5JblgGs7q2ZtGqttx/HHH2cAw77P5GPXUaAI73RxUNN2lD+NNfGMiXSpfpc9quM1Vt+ISxnLlymArOa8Gg59WrKTF+ST84+83md6bxDSjKR1MIQe+2jj2rbkcuzBgP0DHmTp0SZUuO+T+B7Fs8SLOVbdAtxNPpE4ai507dnJZ6WL8Ss+vrEw5qBxP49nduPCC8+kIsorz2K/gHYrbsbXroHfvXmYsFLB/XfUbPqcUsn3HLpzX+1yuwLqG4nJLmQboUvou9e7naLFejdZcntqSg1x4RIQZv9LIbeO5Pl3upBvI0SM4GPWg5fsa2gu60LtORkAtZX18+L/oKz6FHDkJ1WvXM8+7dm3aWF8uX/kzPfW+YF9mU8++k3r4lY5b810da6K4z7ELA20xwjTwC9iUyE1XlXvleHKLyhTFBxC4pxB0WiCxg+KsjFyyjotj97/mKhqcrkK9enWMS2mV15jRz/A6HTdT7+7buzfKxcRg9apfORX1Gj6b/wU3cUgkgUaSA2oeO5WcETRKHY9LL76Q02M9CPgYq8O/yUWn0Hh21TV/I8e+OQBs2gGYTqL4G0Gi+EO0pNeiL7dE548++QgffPARFi78EumcOw8Lj0RkdARdSmtTt440D7RqsVU5INFBpV9f81BbSqOf3GIXLfmenmnprHM59genqfYmoUy5sjjt9FNwKbltl86dbP5eizzeefcdvPAiXUrX/Mx55iiE05FGdgqB3rmlhKB8pRg04oqtjnTL7cMBQwOg+lF9LWPl48O5CGTq27QFVEIZSgG7dsdRlM80G0VGWjrBXotcvB8u4OKbZk2bmY+7rOFarmrit0Two/AoqGP7wD7Il5yfLOQjlWNz0FpAsWzZMjMynXRSVwKXLpb0I09NTcVSEv9yGtIiqSO2a9+OnKq5bcCgFVESH7+h95cIt1OnDmjcqDHdIN1SxtWrf8PSpd+TC66mpXmn6b3y1JL7ZpvWrWkwa4VKFSub0SgjPcM4rOLLxbQz8ypXvrxN8aiWSZxqW0Euv5LrwOvUrYNT6fNdngOIynWrqjZgyeKlNLJtMQ5aNbYy3TWbmAg/hcYqLcYYMOBu+qd3N+6YzDlueXot++FH1m8NRfd403XF7TXV165dGzTjWSCXdV3HGorgX3zxpW1MocFGg6IDtc7c+oi6fcWKal8DNKhXz5xiFCmLwNVZ0Rd+sRBrfvvNLN3i9lq0snHjZhtsZEhs0bI5OnJarE6d+hwIKQ0wrebXldg5pgQKVcFH0eED+398mSILHSIWEazuRXLpFKVTU5KNM2hrH3EZAVfAkReXprgkqpaJLmPun5YJaUvcRo4gMjxFRUbbMyNhyz/LPNK0fdI+zl0zK8QQrBVpeS/LVV7aSkgVkK6vsuRimpScZCvAtNVSLukyoeoqcT8tIw3hoWG2gkxha9etw4rlK1CN8+/Nmjahl1aktS2Si0YkHXz44cd48aWxqEX/8aH330cO3NnaKg6ovccSqBfHxSUQrElmA9CiEa2sioqOpi86+4Blq688K7vWXavO4UyvPd90OG7s4qluqru89AR+9Y82bVBdlUcK25fO/oxmHNUhkVN/CQmJZqMoV74ctLpMGzXQrJnbfvUbK6EfFRc4FJjbQ17gEXsuFrBnzltoVvEuvlV8vy/aWcX12BGHiFd/HpFasBG1261ERCnikuipeB4ghVZ7xpy0CYNHespHg4OeS7e0QYTp5OHlNvFTyRJPHblafJZheTNcYFeYZagzD9vJRGXzuebNNRh98cVX1HtfQN1a1Wmpv4IW7nYGjCSuFltCSWPq1GlYMP9LnEm/7IGDBqBhQ66YIqCtrcxKWcvzK9OAF2aDhgAnsVl1UNu8fsk7W3Wsfl7bra4umJB0/Wi3gQ6x9jPc2scwc4ZhW6R7y6im9OobDRYaGDNYHw0sFt9arIwCmVnG6hPXL3Z7hP8UBPYeWsWX0SreqTPXY5dTv6QjxAf2gd+ykYmBRBzTcR6PiJTaCI3+y6QsA5GeBaIH9D3GEfgY15GbiNlxJUdu7oni6PDS2517lEemzMA4GgsIBogl5I9K8UjaCF91YbjSLKbo/uhjT2Drxo00UnVC27atObVW3pZqrli+0pZ0an31JZdSn6crqqSRHAJZgFa+qor7Iqd02LxD+SuOpgNVd0276awwJdJJv3nAV3xXT6+u3pZKxtktjZ7zqf13sZSn8tEgonCvv6zNLFvlWRQ+zOsFV7bSHS2HD+wSfJMeURmxGpEEiI1lKMz2/RIxB4BvRfPexXIVMWJzGQQeBz9VPo74XFkiRd7zv3fviNyBVGEW31GyK0C/zEP6vv0jAPTY4vKRW0b6NnctmUtX0G30CedOKvwTV1ZeTZs2Rk8C+nSu+qrGZaDyYhOCVC3VzP0JNO6w2lsbC29HIFrgpFQO+JaTl4mF6ieQBwsLemRpc3PXBR96/ZSbxmLlpXKgzk3lEv0hV0t0RP78Adhxge2Hu7Sl+kaOne1z7BJ5sY6E9BtMTCWS9UFmIuIO/gskV7UCdL9x4yYa1n6kx9h67KGPdgZ1WO1F5gxhjXHc8cehJt1avW9l57XJ6bGWe6CZtlGqtflA7fbqlL85B0qVP3bx745FYC/9/jt06dqOwObWSNl0UJn56QLf86z4NLPfmI5I/ypS3W+xhTyQqhBAsZ6Ko7Ja4rrGucnF09JSuLlCEq3nyWaEK1umDK3m5Zyxj4YsccS8HLw2OU4twOc9swKsOC+WQrwjN54bAbxgO1t81SlfaMncHJPAXraY6pU4di6wnfGscwcu2/RdSkuGsg5nLgaiXEixJk78NfGVMpxgKaBLdTAAU3XQnDkVYEO/dHE523jiu2uKg58TAfPr18FNLYhfxS/qsMfBVS0qchHPChZz7AF7J5YasPNxbAE7O7AemyO16WV6/V6Pe+cietZ/RPwUs58sWkFSLMkOZAEFss/VxwNIM8Md0e35wBcsvbCWeNV2oCmYwt0X7IIDAVupCqYpPOeiQws0V0NXIQkKa1Uh0Y6AIBtgKVW590rbSfxOfP/9YnTu0t44dpYTxR2wu3TsynlENweqBHmHOiTw5wUX543lZeBflcIe8F5lwaodPeRfsGVHz72Yrv5pkwy9rzgaz8SxO3d2HFvuzNSxiwtsdQyzEUX4wFZn+IffA4elBxys5SMhYHOPgALADhjPFuakpdLFsUNnzsG6zdfzc2yv7gGu7d0eKeeSkPWKNZB5uqeb5z5Susev55HXA0UBu3w5fTCATkUzaBVPJ7A7tu9kxjOb+88ninsNP0KB7VX/Lz/7wP7Lu9gvwHogF9jmSqtdfXZzPfZibubRhg5HkeTiBPaseW4HlY7tO5Jj02WQK1llO/3joTCTw3kWyIt/uNgHSlN4qcGlqEFFH/vLwwNd0akLf1pcDvy/lFF4yX82tKDE5aavXN/lucf+2dz9dIe+B/Tu8mjfA7aC5KmnpcTLV/zAxTituJmhpivpoDJbwE7LQvs2JzCx23JGsjsF+Pz1DxZH/4x4m1ev/Pl6dwWK84LznQ+UhyIXzCe43vkyO4ib4rS3JMo5iCrtL2pBUCuedZsmsnXovboAd+//lvoeyA9FvTyqzAS0BmxNTWp/vVWrfuby3pZcMMQdcWQV155niYlpaNmcC+G51NC9/oLcR2gpiJiD6Y8/z2uDSzlQLq6GBeuZ/744NJ2/I1UD1yt5dQmqSS6g85fzxzzyUntXHta8+4Ln4uRRME1R9648N01SVDz/Wenqgfx0QFoMEagpW2tBDsXsvXsTuOX0ehzfujl3r9F6dnLstz+el7Nrxx5uHleN6BdrL6xRItr8hFtYLC/MIyB3T/E4N2nuhRfVzoKJnuRPFxzF5aHnhXEkFzMYbF4jlGthZRYWFlyel94L070XxrRK7t1SyinsUJvNKaSwh7lhB1uP3IT7vTBlJChbLZjQiih9VF7LIv3jSOyBXGIj7QkrGpzzBug07h2XlLiXwG7BjTi0FJc69ueLl+TExSegDNcHZ3B5n8uicGItHCR/7KggiAVgFURpf4weFBKcMiiYl/vTnvPHcnf5csnlqO5Z3iBTWMpA+qB+tJAgUdy1pHjtsWy8vJTEu1amvC9OLm6ws1oU68cGFJe9bTywfdsO+4LmCe3b2qColVfFK7lYxfmRDkUPBNGfiMicehmWu5yVYrn2AajPnXoio7T2ncD+Ye1vOdqRI4Jb5OjzqXz7+V98PupUKwqhyIOlvkPRGcdoGXpdkhS0XlkbMSxZsoQ7nf7ED9ddx293l3MbJ/AdFz2oFPKOj9H+LJ3Nzm/Q1fvW9tGVuM99Tk4mZ7coiq/YsFoehvQXlvM4L4p+46WznX6tcnvAE/+1TW8C9+z+ZO5cfo3kKzwy7GHuuR0TJI4Hv+hgUSIwtufm6F8cvh4IfkcFa6F3pufk3wR2Zma67YiTlcUluJzb+n9nva195W6tBwAAAABJRU5ErkJggg==;" vertex="1" parent="c_AYpVPlN-h9lZ-HARwW-7">
          <mxGeometry x="54" y="73" width="68.33" height="40" as="geometry" />
        </mxCell>
        <mxCell id="c_AYpVPlN-h9lZ-HARwW-6" value="" style="shape=image;verticalLabelPosition=bottom;labelBackgroundColor=default;verticalAlign=top;aspect=fixed;imageAspect=0;image=data:image/png,iVBORw0KGgoAAAANSUhEUgAAAPgAAACQCAYAAAAldqY8AAAMQGlDQ1BJQ0MgUHJvZmlsZQAASImVVwdYU8kWnluSkEBCCSAgJfQmCEgJICWEFkB6EWyEJEAoMQaCiB1dVHDtYgEbuiqi2AGxI3YWwd4XRRSUdbFgV96kgK77yvfm++bOf/85858z5869cwcA9VNcsTgH1QAgV5QviQ0JYIxNTmGQugEZUAANGANXLi9PzIqOjgCwDLZ/L+9uAkTWXnOQaf2z/78WTb4gjwcAEg1xGj+PlwvxIQDwSp5Ykg8AUcabT80XyzCsQFsCA4R4oQxnKHClDKcp8D65TXwsG+JmAFTUuFxJBgC0NsgzCngZUIPWB7GTiC8UAaDOgNg3N3cyH+JUiG2gjRhimT4z7QedjL9ppg1pcrkZQ1gxF3lRCRTmiXO40/7PdPzvkpsjHfRhBatapiQ0VjZnmLfb2ZPDZVgN4l5RWmQUxFoQfxDy5fYQo5RMaWiCwh415OWxYc6ALsROfG5gOMSGEAeLciIjlHxaujCYAzFcIWihMJ8TD7EexAsFeUFxSpvNksmxSl9oXbqEzVLyF7gSuV+Zr4fS7ASWUv91poCj1MdoRZnxSRBTILYoECZGQkyD2DEvOy5caTO6KJMdOWgjkcbK4reAOFYgCglQ6GMF6ZLgWKV9aW7e4HyxzZlCTqQSH8jPjA9V5Adr5nHl8cO5YG0CESthUEeQNzZicC58QWCQYu5Yt0CUEKfU+SDOD4hVjMUp4pxopT1uJsgJkfFmELvmFcQpx+KJ+XBBKvTxdHF+dLwiTrwoixsWrYgHXwYiABsEAgaQwpoGJoMsIGztre+Fd4qeYMAFEpABBMBByQyOSJL3iOA1DhSBPyESgLyhcQHyXgEogPzXIVZxdQDp8t4C+Yhs8BTiXBAOcuC9VD5KNOQtETyBjPAf3rmw8mC8ObDK+v89P8h+Z1iQiVAy0kGPDPVBS2IQMZAYSgwm2uIGuC/ujUfAqz+sLjgT9xycx3d7wlNCO+Ex4Qahg3BnkrBY8lOUY0AH1A9W5iLtx1zgVlDTDQ/AfaA6VMZ1cQPggLtCPyzcD3p2gyxbGbcsK4yftP82gx+ehtKO7ERGycPI/mSbn0fS7GhuQyqyXP+YH0WsaUP5Zg/1/Oyf/UP2+bAN/9kSW4gdxM5jp7GL2DGsHjCwk1gD1oIdl+Gh1fVEvroGvcXK48mGOsJ/+Bt8srJM5jnVOPU4fVH05QsKZd9owJ4sniYRZmTmM1hwRxAwOCKe4wiGi5OLKwCy/UXx+XoTI983EN2W79y8PwDwOTkwMHD0Oxd2EoD9HvD1P/Kds2HCrUMVgAtHeFJJgYLDZRcC/EqowzdNH+5d5sAGzscFuANv4A+CQBiIAvEgGUyE0WfCdS4BU8EMMBeUgDKwDKwG68EmsBXsBHvAAVAPjoHT4By4DNrADXAPrp4u8AL0gXfgM4IgJISK0BF9xASxROwRF4SJ+CJBSAQSiyQjqUgGIkKkyAxkHlKGrEDWI1uQamQ/cgQ5jVxE2pE7yCOkB3mNfEIxVA3VRo1QK3QkykRZaDgaj05AM9ApaBE6H12CrkWr0N1oHXoavYzeQDvQF2g/BjBVTBczxRwwJsbGorAULB2TYLOwUqwcq8JqsUb4nK9hHVgv9hEn4nScgTvAFRyKJ+A8fAo+C1+Mr8d34nV4M34Nf4T34d8IVIIhwZ7gReAQxhIyCFMJJYRywnbCYcJZ+C51Ed4RiURdojXRA76LycQs4nTiYuIG4l7iKWI7sZPYTyKR9En2JB9SFIlLyieVkNaRdpNOkq6SukgfVFRVTFRcVIJVUlREKsUq5Sq7VE6oXFV5pvKZrEG2JHuRo8h88jTyUvI2ciP5CrmL/JmiSbGm+FDiKVmUuZS1lFrKWcp9yhtVVVUzVU/VGFWh6hzVtar7VC+oPlL9qKalZqfGVhuvJlVborZD7ZTaHbU3VCrViupPTaHmU5dQq6lnqA+pH2h0miONQ+PTZtMqaHW0q7SX6mR1S3WW+kT1IvVy9YPqV9R7NcgaVhpsDa7GLI0KjSMatzT6NemazppRmrmaizV3aV7U7NYiaVlpBWnxteZrbdU6o9VJx+jmdDadR59H30Y/S+/SJmpba3O0s7TLtPdot2r36WjpuOok6hTqVOgc1+nQxXStdDm6ObpLdQ/o3tT9NMxoGGuYYNiiYbXDrg57rzdcz19PoFeqt1fvht4nfYZ+kH62/nL9ev0HBriBnUGMwVSDjQZnDXqHaw/3Hs4bXjr8wPC7hqihnWGs4XTDrYYthv1GxkYhRmKjdUZnjHqNdY39jbOMVxmfMO4xoZv4mghNVpmcNHnO0GGwGDmMtYxmRp+poWmoqdR0i2mr6Wcza7MEs2KzvWYPzCnmTPN081XmTeZ9FiYWYyxmWNRY3LUkWzItMy3XWJ63fG9lbZVktcCq3qrbWs+aY11kXWN934Zq42czxabK5rot0ZZpm227wbbNDrVzs8u0q7C7Yo/au9sL7TfYt48gjPAcIRpRNeKWg5oDy6HAocbhkaOuY4RjsWO948uRFiNTRi4feX7kNyc3pxynbU73nLWcw5yLnRudX7vYufBcKlyuj6KOCh41e1TDqFeu9q4C142ut93obmPcFrg1uX1193CXuNe693hYeKR6VHrcYmozo5mLmRc8CZ4BnrM9j3l+9HL3yvc64PWXt4N3tvcu7+7R1qMFo7eN7vQx8+H6bPHp8GX4pvpu9u3wM/Xj+lX5PfY39+f7b/d/xrJlZbF2s14GOAVIAg4HvGd7sWeyTwVigSGBpYGtQVpBCUHrgx4GmwVnBNcE94W4hUwPORVKCA0PXR56i2PE4XGqOX1hHmEzw5rD1cLjwteHP46wi5BENI5Bx4SNWTnmfqRlpCiyPgpEcaJWRj2Ito6eEn00hhgTHVMR8zTWOXZG7Pk4etykuF1x7+ID4pfG30uwSZAmNCWqJ45PrE58nxSYtCKpY+zIsTPHXk42SBYmN6SQUhJTtqf0jwsat3pc13i38SXjb06wnlA44eJEg4k5E49PUp/EnXQwlZCalLor9Qs3ilvF7U/jpFWm9fHYvDW8F3x//ip+j8BHsELwLN0nfUV6d4ZPxsqMnky/zPLMXiFbuF74Kis0a1PW++yo7B3ZAzlJOXtzVXJTc4+ItETZoubJxpMLJ7eL7cUl4o4pXlNWT+mThEu25yF5E/Ia8rXhj3yL1Eb6i/RRgW9BRcGHqYlTDxZqFooKW6bZTVs07VlRcNFv0/HpvOlNM0xnzJ3xaCZr5pZZyKy0WU2zzWfPn901J2TOzrmUudlzfy92Kl5R/HZe0rzG+Ubz58zv/CXkl5oSWomk5NYC7wWbFuILhQtbF41atG7Rt1J+6aUyp7Lysi+LeYsv/er869pfB5akL2ld6r504zLiMtGym8v9lu9cobmiaEXnyjEr61YxVpWuert60uqL5a7lm9ZQ1kjXdKyNWNuwzmLdsnVf1meuv1ERULG30rByUeX7DfwNVzf6b6zdZLSpbNOnzcLNt7eEbKmrsqoq30rcWrD16bbEbed/Y/5Wvd1ge9n2rztEOzp2xu5srvaort5luGtpDVojrenZPX53257APQ21DrVb9uruLdsH9kn3Pd+fuv/mgfADTQeZB2sPWR6qPEw/XFqH1E2r66vPrO9oSG5oPxJ2pKnRu/HwUcejO46ZHqs4rnN86QnKifknBk4Wnew/JT7VezrjdGfTpKZ7Z8aeud4c09x6NvzshXPB586cZ50/ecHnwrGLXhePXGJeqr/sfrmuxa3l8O9uvx9udW+tu+JxpaHNs62xfXT7iat+V09fC7x27jrn+uUbkTfabybcvH1r/K2O2/zb3Xdy7ry6W3D387059wn3Sx9oPCh/aPiw6g/bP/Z2uHccfxT4qOVx3ON7nbzOF0/ynnzpmv+U+rT8mcmz6m6X7mM9wT1tz8c973ohfvG5t+RPzT8rX9q8PPSX/18tfWP7ul5JXg28XvxG/82Ot65vm/qj+x++y333+X3pB/0POz8yP57/lPTp2eepX0hf1n61/dr4Lfzb/YHcgQExV8KV/wpgsKLp6QC83gEANRkAOjyfUcYpzn/ygijOrHIE/hNWnBHlxR2AWvj/HtML/25uAbBvGzx+QX318QBEUwGI9wToqFFDdfCsJj9XygoRngM2R35Ny00D/6Yozpw/xP1zC2SqruDn9l+Q6nx9NLQJ6AAAAIplWElmTU0AKgAAAAgABAEaAAUAAAABAAAAPgEbAAUAAAABAAAARgEoAAMAAAABAAIAAIdpAAQAAAABAAAATgAAAAAAAACQAAAAAQAAAJAAAAABAAOShgAHAAAAEgAAAHigAgAEAAAAAQAAAPigAwAEAAAAAQAAAJAAAAAAQVNDSUkAAABTY3JlZW5zaG90Oxo+sAAAAAlwSFlzAAAWJQAAFiUBSVIk8AAAAdZpVFh0WE1MOmNvbS5hZG9iZS54bXAAAAAAADx4OnhtcG1ldGEgeG1sbnM6eD0iYWRvYmU6bnM6bWV0YS8iIHg6eG1wdGs9IlhNUCBDb3JlIDYuMC4wIj4KICAgPHJkZjpSREYgeG1sbnM6cmRmPSJodHRwOi8vd3d3LnczLm9yZy8xOTk5LzAyLzIyLXJkZi1zeW50YXgtbnMjIj4KICAgICAgPHJkZjpEZXNjcmlwdGlvbiByZGY6YWJvdXQ9IiIKICAgICAgICAgICAgeG1sbnM6ZXhpZj0iaHR0cDovL25zLmFkb2JlLmNvbS9leGlmLzEuMC8iPgogICAgICAgICA8ZXhpZjpQaXhlbFlEaW1lbnNpb24+MTQ0PC9leGlmOlBpeGVsWURpbWVuc2lvbj4KICAgICAgICAgPGV4aWY6UGl4ZWxYRGltZW5zaW9uPjI0ODwvZXhpZjpQaXhlbFhEaW1lbnNpb24+CiAgICAgICAgIDxleGlmOlVzZXJDb21tZW50PlNjcmVlbnNob3Q8L2V4aWY6VXNlckNvbW1lbnQ+CiAgICAgIDwvcmRmOkRlc2NyaXB0aW9uPgogICA8L3JkZjpSREY+CjwveDp4bXBtZXRhPgoSZLl/AAAAHGlET1QAAAACAAAAAAAAAEgAAAAoAAAASAAAAEgAADBIKtPQuQAAMBRJREFUeAHsnfdzXDmS57NY9N6IEimRIimvlpfajbmdnpnd27mI+3Mv4iLuh9u4mJ3pnu6eduqWd/QiRU+Kvqr28008VBWNSEpNSaSuQFbVMwAeXgJfZCKRSKTuDT3ILSws2/jYpC0tr1hlZbXlsjnLZLKWzWUtlzPjf+eQ2jXGzumL7qYsZfrfKeRUqF1CKrVzJvuRhwiT24U6H9z77EJXVctutH1XNNlL/WxtRpvb1s7taCs6lL6QRzhSHjGfwq/TYWsBClcK2eRTF26SI1mVlYWcU2Upy2YzVltbaR3Hjlp1TQVRs5a6O/AoNzu3aCPDE7a+nrOmxmYSVVguRUrPNhYuRbHjcfFj9vd4D+3HO53dnrpbPnvoI5yAuz1nt3x2K4fy3y0Pxdktn/3IYy9l2a0ce8rDX0hfrw778j4ApAgjycN0JYLs1c8v3Nkt7uYn6JxuP5VNnpOkz23FTsBT4Umbj4pTbOWhpOZiGZ9cLmPrmTWbnZm2ikqzkyc7rbGx1lJlGUs9HOmHg6/a2NislaerrKOj06qqdLOcDMr40M/EMm4uwabz3SrFs0ny2pR0w+mu+RyiPPRiH9L7eHPe3KY31N72ndGGKtslvWe3IcGmB8TTN8hHdbGXZPERXow9lCXWsaIKy3pG/Cgvv578enZ7LEcxsCMOPb0yJfh9vpaXl214eBApfMY6O49YY1MN4F8H4KMDuYX5FW5OW21Ng3V1dQH08oSDexbKRgcE/SbHkUrxlt8vfR1GChQ3xLdRfm81PEQy4EEIzkx3LUto63G4EYd8fg6g4jv5+3AiEVnXwjlvysnSShapGDEZRlmWLmPYm7GqyjKrLOcmpMgwFPYDfryDcKk5ycN/SMtvPt/iWxzHTqUMOX19fc2GhvttZvYFGD5izQA8lRIHH4WDz6/a0NCU1dU2WXd3t6VJkPPuYnPWOz5Oj9xUhNLpYaFA0tT2vbixxXhLOujNA+BuLGJo/36NL3FLwSKCPRJLoFccdWD6ZaRrMwuLNjQybs/Hp2wdICsnMG4nT3TYiY52q6+rhsOGPHVTeSjOxqDcXh1y9CICecoBvg7AB2xurgBwSiKAPwPgazY4OMlDW5Hfu3iweiCNwRX02M2P3ny+c0E8m9LXPlBAdH59Wm+urc0FiTnG3833f835bs/+NXm/WdrYrrdLHegb6RDLLmAXc3Jx5OIgoMWAWtpWMjl7Pj1vPz94avefDNrKGkDjrwJEX71wmk+ftbXUWZpEKe8c9AAUZs5U9XR9dg8Ct7CZSqWRBgD44IBNz45ZNxy8paWWbNYE8Ke5eQF8YNoa6lsAeDcPEgePD9BB/iS5WPyCey9QzLH0+6YUeDNaq4HuFAp1vVOsD+Hedm1543sFHhwIlm/1zl3DmfhsykL7L9BNICMfkoFtW4ZjD08t2Lc/P7A7j4dsDTE9DabK0Wp/fOWc3bzUZ+3NtXmAF3KOZdHzQxnila2/4t6xhDrOWv/AM5udG0cKP2otzdUR4E9y83PrNjAwBcDbrLfnpI8nCsKKMokZxceUAB4p8W5/91LxG0vkNVfUVmK9Bi7EDd0jUlGUjRl8cGeb2/LGFxR9EpKEVi8SFRFHh2VlznvzCZWjrusj3fkyCUamluwfP9232w8BeEbieZlVWMY+v3bObn3UY+2MkZVLWT7vzSI6OeXvEXFLiO8RfjWl3T+gMfiY9Zw8Zk3NVaQXBx95DAfP2EA/AG8QwHt4AebUvKjKVRnEzOJTSgCPlHi3v7EZUSM7Vv6rS+XJxJFocN6C3jCfVz9h6508o9l668BdieTIt3ouZHkBnec0aOZcSi0Pfo8vjwwXVRw+K+Lgk0v2ze2H9svTUVtZJwpxqsuy9vmVs3b9Qpe1N9bA0cnLM1K6YoArl73WsT8ctGasvx8RfWbUeno60KIzX5baFuC9RQDXg5RBcQgZFl8JrxUKtfF66Wz/KbDHyqeatqsRNVX19j79qcJtF2mfC32YAB5ePQjioo3opTNpvDW+FriDQixn5XDyrF+nEwDB4t5KsU4HOsXM1D3A/fj5DGNypptJW2FrdvlUp13sOWrNdZWWVj147lRDUg/FtEr5yWb8hRJuqDg9Wxy8v9+mZp/DwTus6dUA7+MlJGqouJtrPz4s/hY/bHPceK/0ux8UeG2OnQd4oV7EJaRfyao1JVxpc03uR1kPdR6R0Am4BO5VZOzpuXlbXFmxdDkjaaa7BMyWxkZeNWULWIAur2egqzgyI3TipNKV9mLmpQ1MvrS1XNrSaa5nVu3M8WbrO9Zo9UyXlTnAw1RYHuB54qlmxN9fVUOxXvl1gOcA+DMAPoYerYNpsoSDP0BEX1gQe9cY/Agiuji4oC2A67P5AZvPibKlI9C1UthPCsR2F/OMPX3henG9qNJDTIluUsBIy7q+toYRE9MzGDFxiSiKFL5jvoXfmF9sSIU7H9KR6OhvGl8zeW26QuiWsjVQOzW7aA+eDtjzyWlLVQDwLEozxPWzfb3eWY6MT9o002IS5dPkVl9ba+1H2u3l6jocfIo8ULAxR5bOrtrl3mN2vrvFmjElTWOBxlMCOROES5T3aTc0435LGntVJxXtMWNPkFRCKL84eM6eoWSbmtEYvAjg90cBuI/BpUUH4L0ag5NaLWBTZkmepZ8DQAFVrEIEeARruKoWoQahbnoNze6qzc3P+udIa7vV1TXRd6e9AYcmmTTy0ISUa/JRburkP5yQkA0BRnAJoHHa5QkKb5aUAw2kEV9BAz48Pm9f/3gHsL6wHEZg4tQVFWn75MYVN17RVNjY1DzAR5lGupbGBuvt7rKl1TX75bGmybJIToj01MNvr5yyTy522zGUbBVcyyvZwJqeqmF+RhlJ/Fc1AkZNpQn4wmOcrlONhCKHuhLApUWfmkZEZwze3FRFGqbnCgCfCVr0EsBFu0MXQsMNle0NF1to2UPnUqs00gW3chobH7FTvWfs2NGTNJpK+nBEScRHNfCQXq8tQBfOlNeHFOKbOrS9E9Tb8r7+mnA2kCQjLxTfYcoLgA+NLaARv2sPR8fpFyv9ehqO/PnH1xxwvzzst+cTcwAcLk261qZ6O9PT7SL97fvPEPHX3cilHA7+u2tnULR1W4cATlwHuMidAFyHAqvKkM2J0xKHi4HTUzfci6FgjKbOKMdMGGPw6aBkKwE8UunQ/oaxm6p+Y9DokHaAxtbKEMtzL21mfsQeP71rA4NP7cK5K3bh7A3mZetpSYzTshU075CHGldQFRUa0ca8D/tZeMPwFurIioPuASMHeOjmZJG2ChsfHn/pAH8wPGbr4qya02ac/dnNq85t7z4esLGJeY4DJdsa6+1cb7ctr6zaj/ef2CpmpAzBAwe/esY+vXyyAPBYBACqmnMFHlxb4r44v87LQXg5VVROh5TULql0RG1RXoXAwdGiT4/sxMElotO7k1mqJKI74Q7qVwCiSlcAeISlxM9cWqPvJZt7OWrDY/dt5PkTG30+bMc7eu3GlT/AZboslcUYQgBHXFeDCc1fDT/mpPw/tBDpVQzwcC0AhrcHNJGDr7FseuzFS/vh3mO7P/TcchXMZiM7V5RX2M0rF1nFlbGH/aMo1BiDq0+Fdq0NcPCuTgf4z4+fAdQ1xuCANLdun146ZTeYJjvSUO0c3KkrwkNypZW+JEUnoo5l5MWsLS6tWGNdjR3BMKamPO1xYt0XAK4OAT3awA4AHxyYxVSVeXABXD2FAF4KB5YCsZIjwF2so7QwES4xB5JatNnF5zb0/B6fu7a8OmsLCwvUa7VdPPu5nTt9w+qr24nKWA2ApxJxUOM9hZB/4BJ+4QP7CnxPuAoLQfTay2jL10CpOLSPwwUBIi6jLBsYmbChiRnYqATrLNzU7FTPCQf1KECcXVzlOnnx3VBVYZ1tLRi4rNnTEbg+TxHHz6ws2sXe43byWJNVwZVzPAtIA04x1JwvQqmoJB7Hg6zu/OEXOmVs2dvJ68q5Pus+1my1FUH7Lh2Zd+Qo4xzonA/KVJV58G4MXVoYg/tqsjgGLwGcmjlEoRjgXsGUXRVO58/vis0sjtrA6C+Il/dcRC8rp0GA/lk4TWNdt105/6n1dl2ymgrW/zMeL8tpPE6rzQNcxFDzi1A4RMTZQ1H1VgK3vy6AlkJscmbOJmbnbYkxc4YOTyCvqanBR0Kjjb6YtOco0pjvgo4ZF5cvnDkJwCXCT6NFXwWoGoPnrL6q3Dpaml18fzL6nGGSuLKAmYGzH7OG6gqbZ+324uKiP0POVaoAbndHm5uZrnL+471h+79f/oToP4vSrp766rOr53qtq73eaiTvq3MQE0YX4Oo5yhQBfrIbgGPJtkHJVgL4HlrFgYoSJawgXosXMO+CaLliC0svbAhgDzz/yeYAusbhmqZJlVXaBNxmfbXCTnZetIunP7auo2estpL5XET1MincND5zJu5fB+qN96MwAi39YBKCplyKtbnFFXvUP2wPBkZs8uUKnByuynRia0uLnejsAOATNjA24YAU5wWP2JVfdBA/7B9xEd2lAYjXWFtlvcePYoO+jhb9qc+Rq++spA6unumF3mkbHBqyielZYsPJAXQj02afXDltH18/g3IuY3/75oH9v+8e2PT8Epw9bcfbm+3WxVN27exxOg+s4HgHeV7yV0Ea0FJUAXwGDr4DwFsR0bt5X8Zj6h1K4eBSQB5DXKxWD47GV4JgGdNhgHvkxUMbfnEXrtKPkQXTN9gkVzB2LE9X2zgi3/JLXPtUHbG+45fswqmbNJ4+q0rX02CkUXdTDfLOo+Dg0uC1SwaYaNsKklZcOlF/xqUplkz/jDb8F6a8BPBV5+BpO3oEvVTXcRscHbMnQyMYsMCjAWQFv7+5dRlGmjVXsk2KztJjZK25odbO9XXb6uqqfX/vEZZsSARUVwUAv3X5gtXB4R89G2Qp6aSXIQX3bcHV0r/cOm+/+fi0zS+s2398ecf+dvuZLa6qntU5mF3o7bDf3Thj508esRqVm3G6DGjI1nUBgwODSGjPAXi7c/BtRPQSwF+7zbynBOLYYV2yZk8ziJRLtrAyCbAfwL3vIKIP2XqKRgdHVyOsqKhCMVRjL8YnbIkGXJ6qscbqY9Z34rKd77vO6ib5AcCTj4vqkvPhR8j7Lga+p3d83ccKqAr+k/RPgnGhq5LYnUTyzpHXBBzSW0wC8NsPBuC4A4GD6wZz3kcxWOnt7rQhRO3HAEiiNnh0sP5O02TQ9o606JMzAFw0M0TqOoxgelzJ5gB3KzdpwstcMVdTVWkPnjC1BsC9tIzVm2vK7YtPLtjvAfg0i7/+z19/sq/vDtNBY5SkN6KTONJUbZdPd9rpE20MA9J0ymlrqKmyhroqRPyUjY6M2izTZL10ALJkKwHcm8Ph/JIiJrRkNdBVzCUnsLR6ZIMvfraJ+ac0jDkaKFwdTk8bpEEK4NWI6AL4EmNFOHquFpvoTjvVfdVO91y11sbjDnxUxa4u8mXDh0iSywM8j2gXgL2CHdhEcLA4yEEiQdpy1oLYFGPonx8O2L0nQxwvYx4EN05X2JE2xsXHjwHGMXs6OATNyYN8xME/u36ZDjGHlRuGLgBcY+0yJrZbNA+OsvolJqy3H6BFh30rjWzXL184a9VYEz7uH7LxCQCuenSAV9i/fHzefvvxKZudX7f/9R+37Z/3RygHU5lS3dGrVOBjrbWhwlrqqxDzy1zUb6qtsaMtjdbR1ohkNosib9L6etqtuZE6LDZ0CWNwcXBp0XmPQ1SxUOD/uyArq2DIkmFKZd5GJ+8zRgTcc49ZjzwJ6FdoF1FJxrwt428B/MX4C1teBOBwqDKAXG511tbYbadOXrO+7suIl500J8xZ4Rxlbi5J73BIggAex9ccEoT0iHZdCYozqRnUOwrcejsBfHYxY0+H0V2MTQHMNTpIhipw8CamvNrbmtFOzzIOf0FMYRx68jl/mqlGsh/BI/H03EukKAHc3FtL59F2FHer9mzkBdp0lGzqMgF4Dx5dKpGmnk9M2czcgktIqeya26ZfOn3cPjp/lLwy9r//ehcOPmir6EYc4HQEKSzh0pQ2jSumNA+uYHK8GmVAE2P+vmMt1lafpsNGkQfAW14N8J4igEfi+HuVvg4IBdSQNbWSo4deZ657cm6QxvkdXkSYDstOWKaMOVnuOLeiScgctRwLrEq4uIvoaG/TZCKdr0TyylQD86y9drr3BuLoFWuobbdUhtVOKS1oVMM6IC/+GsXYDuBSgiFjM9OAEQlWLAtLS3SOUIr3WwTlU/PLNp8o2LA2h75pq66ssDrE4CXmo2dfzruIrpG28j/a2kBFZG0Ojr+M5l2dhqaYywFebXWVK+BmF5epC2gtkR+QNjU06Ax/bVgYMj/uQyDmx5kcQ4KqsdbWWsqxZl/+8NRuP9EUW+DgGgoY8bxbQhsv2cPt0+H+VUyLnu5osbMnmqyzNW3nevDo0qj6Qw6J02QD/QVT1YKSTTV7CGuXUn+wgZYlvqxxY9aW0f4+t/7nP9vg+I82vzps2bKXfNa4J7FQCrOgOJPH3EqUbC/gQksvAbiaGXlI2ZTCoq0y3UyDPQtX+sR6T1yyqnLs1eHwindYAK6OLwaVWQJ5bL/q7ATwjDo2uN40Y+4ng8M2ObvA+m0WlXB9GbFIi0uAqIMbfgyNJFpzH434MoB0Fk2uelSNLzxBgmKMrfwFXAedpF99SKvOQxzflXp0JuVa6OOlCvPfqkUHL1zcJ7yQGhbXsCsfnWLKbpnnVXp6acwVN7pJzgF2tGykXbUmxu9XTx2Hi9dZY+WSnT3Z5hw8XSyiFwPcfUO5iF4gELmXwkGgAC1LS0hyTIktr09jEHHHnsC9ZxafYUY56+PxDCKcas6boYMcbyIagxdx8HIanxqjxpASxw0DmKp0m3V1XLbL539rnUdOc11eR8TlD8KL716GYoCH2AHW4Rj9NrTQ/LZMyEbkkIEFJE9wjLgMVjJw6wxADOu7pLgUBw8zFAKgxG8pK2UEo+AKTq7pnobRkgwCvXWXeCjFiMSROkhBX8o5xaVMTnv1rnQ6nj7ko2WojjhE+RX6kvWM4mCf4H8e3fPO0RnQdaAUzSJdVDC3fsQ+PnfSGivobBZG0am0YKm4aQxeArgq5hAE0JalZ86mV+E+A/Zw8Bs0578YZ1xDHHRwR82xegM1MC1XZAwugKNkW0ZsTKuRefODSeiYhSe5TDXWbSewo/7EPjr7mbU0HEdUlwFMaNQHnTrbAVzdIVRwOjCpxBsDNPqzkakV+9v3PzPvPQbnRvAFVH4voYriBoBDSyGYf2DIcZALBE7QGQDqhCkCOPG1y4geLKlBz08hJSgf58ReIM8yXNP15Bkc8afOiI+bEJNvZLZ0BhLRKzBaqoNrtyHSdx9rtY9wIqE15kszMzYz+dT6uliOihY99SoRvcTBvcYO3pc3GAF82VZys/Z46DtMIb+1+ZVhGugSH4271XDUgsKRXkKmqGl2qynnMznJPDhGHQ5woqm5+gcQ5wTmTD3j8dN27fx/Yy73Bksa67kvRQ9BWR6CUAB6eDcVOcx7w6UB3Drv/Xxm1f7zOwDOjj5LrALLOsATYDn9pJArgFKw839+fL47Abi4ugfVTXyw4iTXI8AFbK8VgV+A1p9AHaivxPr34GklEcC9/Q3oLNQZVzMZ3sSU2BHMUI8xZdZ1tNlOdrRi+FKFO6icjQ6O2cz0oPV0t+KTrQTwQM1D8q22o0Yh5cp6asFeoC2/8+TvNrnwCKMMRHONuz2O4nlTooFoLKjGLQGx3Ln4FABfYfrGx6ji3PpjLKcUUrhZhjnVslYazyW7cfkPeVE9aHKJcwjoFXEWKaEiC+B6B3FpqcPG57P295/u2J3+MXuZcHDNTAi8EredhhyLa2cZY+vNRTNdl3ukQA+BUsehZgJ1SO/58OUhUExGKYF44u6uIUnu86POlWcJ4BLfszjncAnBHXPgKQZFWj3APtfbibFLp3XiErm5OsXceQqjGXQEZJHFjn4YK7zZ2WE8urCzCaAvK3HwAo0P1pEaRWgYXi4O1SSyKFZkrba4Ps7Y8Tu73/81yqFJxo7YNNPh5/2C+aDZ+34ajyAMwImQpsEI4KvYXbtCKHlG4OC0LjUwTY9la6w63Y6V2+d2/aMvrL7mKJlLhEdwReFUKFk8IuGBDyq3yhsAPrGYsy/xevozZqZzKLWk4loXuPn18XQCuMhlvT7gwuK+AmgYg4dzvXrgvqKD8lAnINBH+ihCiOTdgSKrY+DjlNNpAnLluw7AtVOKg17KN+r9bM8x++2N0yxWaUaRhkxFcgFbhsr6ZAD4gExV5bIJn29NABzV4PZadM3lhQL44zkphXdLgdBI9EyvAU41ts4y0l7PLdjYDEsXB/5u4zMPqV3mX+mpffxI46DJ0b7UjPjxVhcadgT45BQuhOTmk4Ycm7yeUkbc8FSuo1VPZZiyaThtn1z9C3PkVxDp6wB4gEjoEPwRh+groSlA0tB2ZiVn39zpt2/vP+WYVWTARBp20TEAnFdz4HEqji7AJuNovbSA6NecxoKLwB7oLu7rSu8i6iha6Cx0oGPFlQSgfLmgMb96aZ4l02LVoYv1HB9lqehneGO9eeEY68grDIfIdMJ0tqTVTIjks3WkjIHBfjY+CB5dxMGliNt2mqwE8KKaeY+H0axSjSGLFZOl1zBHHUex9k/G3t+g/ZULoVUaJtpXKs3HjHmAA1jnSLQVNQiOJcxNTbOVjuybNwCcOGosXHUYsOhEziAqU212uvsz+/jan7Ge6kRU9UkzjyOyuKCgg0MRAsAFIgEcuxb7+ek49t4PEdeX6TrD+FxDZ+/qHIR6sZAO9AWA6xLHsRNw0BLFAU5iQTVwXx0VgpJ4XAE7nHhcXfNnOrjFi5W34mC/vrpsbW6e2mWf4SSil2mwWtapMoHCBymCtKpjdUB7BHhw+FACeKFi3udRACx1rQp3oxaNvZ9i+/wlXPwuMhpz3s7Z1bDEV2NcP9KJF99HlDQgieWTU9OIc7qfaHc9pVpo4OeRO/sa8Ww9llGscLr6J7j4dassqyMejZDkHk+5KysHgX4PcghA1VSZXmGF00dD8/bXH+/ZIAtFluHOUsA5B+ed/LWgiX4DsxUQAz393KWlwIFdXCdeVKxF7l5MDXUA+gvg1o8/wTsGZs8goaQE8qfXdM6LaF5Ot3P9fK998lGfne1qYO2ANk9QZ60OQB/FVT1i3wYHHxwawOkiq8m08UFLNcBHt1IwdJl1p4s9PexNJklBnCCUobicpeN3QIEElzxJDYw/5jt97L02gVHLbfxtf4UxxAgePqVYg3tT2V5VtA9vRPpWW0zqT5zZL3BxmiWKGVlfkLc4sKI5F6ChKOhc6fwac+MVcPFTXTfs1tU/WzNcXGvHpbQLHUHIJ0mllAc4+JtSvjAGz4CU8dl1+9tPKCufjdhLOr0MswwCm0vMejV/SwFX9IAsScWEXUGT+6K9x9U5dE+OI4B1VcEvc9PrR/l4foof0mgCTIkFSsN4pQqJ7eyJdvv9jfN2rrsJcGONSCIE+aRUykAZq2NG+kDTrjG4HD4I4I0AvKwY4LJFl1dVbT5IZxJ6CS9a6etdUyBpR0lV0gDQkK/bok2/HLJHA98A8p8QM+cc9FmN1VTTalkJOlXvCsongtgbAxxINtVZAdxBGpIoTjgqgNzTAWbLakFKt316/S+scb4EF8fUUuvGSaFxu9KpyR2OEMRZjbWZEcTyz+wnzEG/vfPExnCNHMbhGgPrbfROvJtIBcAVNgPcOTWRpVDLB47jNFj+WnIQuDj5KnqSxEX0fHqBex3NuNmp40fsEzYp/Ki3haWkAjeloSBivIK0hyQfbT64DsDzDh8c4NKiF3HwEsADzQ7Cd37sTWF8QQma8+XMDAYt9zHM+Ae2ys8sVbnMPVwiU+ECeAApNZ60H72HX+fXm4MaAw01AFw3pZpRiGkVK350xLEsQljsUJFqxqPIF7gN+i3LE48y/pMC5/ABXO8kUDrA+V3lJQYnlu3bu+wCyhzy7BLjXsAiG3TVgaQYxxC4U4gAD6AM15zKADSP0TzA4/3kl4y8I1CGMXCsdKGD5iHoUuqry+3UiVa7eb7HLnY3W1sd4CaOj7fpzEOJknoKiXmnrQDX3mQbRPQSwCPV3/9vGHurEql6Wa2VYXO+MmaPB79neuyfTJO9sHSFloLSIEMT9EKr8mP7ib+65o1CF/IcXFkXAVypXGwIsR3cRBGnNqbNcmvVGFRcw4PJn+xY62ns1uvh3kFMj+m8AAf8K8BCGu5kvE3/JW363WcT9sPDZzaA6yWNxTFWh1Tq/vhAGonoCg7whLA+LCqgOgDV7wWwBykgpFN3GURxRYgZ8BwHaLhWBngbaisYDrXj9eW4nTnB6jDmuhl2Q2vlE8Gd5On1peyoXwC+QURnSq3J/aKXOHhCrYP1EwGOsEdDQzzHcYPWeN9/hlnq5F0/T5eLdwf+rUajxhtD0oQ4DeCOsJX15Ax+x9xMugjgSicJIEoOAm3IDxCjcs6uV7EksctuXPwX1jnfsrrKNhod8+X8KWa+nccCHNBfvZM+AqqUaRktIgFAo9Os22YduLy5jM8tMRwSwDXiDSCPOPT3JK2mpoINucCcdKqin3LXOccFsT08VddUn+oYXCknuZ+KUN1UsYmCthM+jSeW8+x8chKz0ybAXUkU/DgwwlbQczwTf4dwRZe5BsBlGhvH4HHzwRIHF5UOYHBY0oocwIjnK6zvHp64Y/eefW1TLwdgqliiyXJNjUTtRxW/XVDdcy8PcMbeMzgVlBZd2lfBc6fgNugab6ORKkdMP9dzyw1fWhpOuJieTgWf6mrshyWEN1anFLi4jPfwYGUD+Kq7/Qjb/qExdB1rrMNmBxPMV1MCuuLyioHc0A3xXSdyuCiAC2QB3KoJnQvgoklCfdIribhwMJKR3YHWdGfcfVNne5NbqGmZ59HmGpwq+noYF80DuEmq5yhjQqy1/BWkDS1UKQa4bx9cbOhSEtGddgfiS40lC0t1byzpFWzNR9xy7dHQP9H2vmAFIZybxf9iu6HKC5WuF4jXJNpFgOtIyrUAcIl7Arg41E4h6QQyNLP1WryGnLNPrv27nTh6FmWbxHQ06vxRmJ0yOVD3IjgkfvvqMkonVcMctgHPxqYR14ehtfYaW/U9xXICOB/Xrnt/mtCMVy6AOxxHMTw8Q52IIE0dQR9ZAOZkEowoLq8vtbDmIywWOclikVPdR623Mzhs0By3jFjkltnXC3gHIhKGjnojMVW73HkVwItNVUsA30i693pGd09fD8ixO2cRydTLZ5ilfmX9Y2jPWe+dYvytzQTfPsD9ETQ0nBesluMH7IR9eu0vdhrvLzUVLQHg4k7OXd4rxV774ergBBntRiIV9Ro/cyv4FoeTPxx8wTLcafy0LeGVJYeGOqwj19jdxXt/X8GYD8fezTrggwiuwsgbjri13+NXGu00wK5jnN2Ey6XjuFjqxU1yD44a2uHaXDYWiXlnqZJpGOBdiRDsYSvAwxUi7hXg9UyT9TBNVpoHj0R9P7+qOAE8h0+1Vbyijk7ft3v9f2MF1EO49yo9Nj64+VOI9a/mFkO89us5uACu0sDF1llummq16xf/aB+d+Q2ugTsAOJpaAZxSaAx/mIIArhBoDb05ZRtvg3EzZbaM48oZ3E5P2Sh7jk0zLl9axbElb6pdR9wwJXlZf20HuTIDzojmGrLETk9YEvduYj/wtuY66ziC/7Qj8rzSiDhebY1VWgYEnRkmaNpRnUAIyiOUMdSySloIihV0JrpaENGn2Lqot6/TlWxWzMHDevCSJVuBhO/riMYmToEoZ+WYpiKSP3v+I2PDr1xUd+6NhZMUNgqxOWyufN3bDuBTKNlyiOp7E9GVi5oPCjW8u2RWqlECsQDl4hfW3nIKzl6DEu5wAlzvFUDu3ZPTUcx8HUyhWGfr3xyusNZwQT3HZ9rGpufwobYI0HGThUJL3FkGLxkW4ETFWRloLgPM2peg0t02VeL8kOW3OEXsPNJsx5obMPmtYCoMBRqRWDPi4NYQx7m2lymBM/fUafKTD7GuI+BfBfAe3Cs303kkAH/E9sFZKwE8T8f3fBABTpeOpdrc8ijg/sYej3zt/tZy5VrzrU+o7ljp2zWE/QC4xpXy3SatuabLutov281Lf7QTxy7hQKLxUANcFV0AOdIxQyOo7pxczlS0+cEyCsn55Sy7w6yxT/iC734yN7/AdWwTlpGkALrnQ9rKikqrqcVpBp9WthDWjiTNjLPrWdZZzaBan6gV11jbDVfg+Kq7+FFeea8xiqMLSSjUeHLkmjvF2MjBNwH8YQLwYMkmr6oSK1xlSOWWwrumQDLOk8xWvmwTC7jyZfw98OJ7t16TJ5d1uezxedq3z8GlGHKAS0xfq2TTvFN29cIXbr6qzROiVdvhEdGD2OsSUr5qk2vASbKNWr1gK46OMOWfNTj1Op9llHH6FecWBxfGHGdKxIE2IqgAyM6h4eKVHAuCoo+D2o/1FAGbi0rnwWP5kZ6pECzXwrG+Q1S+k/vqesNJCeAFKh34owLAc+lF7KWf2N3+v9vI9M8AfAHusoIlFvOnKHEUYvtI6nzDtW05OLboWdiTpsh216KTfwS4lEZsedRQ2WEfnf4tLp1+h236CfhA2NMsADyWxotxAL+KQRQ4b6GQAdyCo9MSsCqG3ih+wHOe3hFkMX2eFxJHgBftteNIYJako0OQ4izffShBeJCG7nzUWSR16te5nXD3/DP0dL/Hr+e0HcBZLspcejMeXRIRvcTBIwHfzW9Se/4wVZRCuKZvH41xWX7XMmVSsD2Ag7P2e+4e9tMLXA/mqS5aqqtPWGcU2WNeynUrwFOsJptx4Uzg3m0eXHmo9YVGT2y8vZTnGnE+8HF+HG64Vw5WcWpsETQb30tvdXBCQv9tRQ7uUVSHeDgMJY/FT5IKkLsFj8pXkiTJNyYMv5FTF8iTxI6JdnnQ5jG4bx/M1kW9fViyCeBhHrwE8N0qa3/vq/b0USXHChc4kobFrziFgLyWmnXLtfsDX9rEy4dwcDl3wHSVdHkN67YAp4mSR+BJAqieA0fCGdlUAnCtQApP1ZN3CbRE5/dyBLFejaO/S3bz8r/aifaL5FJLYekskiFDeKcI9PgEPV+fgxcilraW7NV3/F12eh1Pul36QqLC0dYn7/XKqwHeAcC1sHRVy0WlZMMKpr80Bt8rYX9dPFW8PqriWM3bARwlTm6KPal/sQeDX9n00lPLILIL4Eql6SkPWwAe8hL3Vv4R5MUAD4x2rwDnOQ5wIA7ANQ4/1nIWu/R/Y3XZVQwy6hOAS7yM73R4AO403OUrofQusbbejrW79c7+XHklwBHRnYMznZoAvKRF3x+S7yUXNRd9IhiUZjPAmQST77WMtqy9bQ+H/2GzKwNwcAFcel6BTukIbxvgPhfrQiuPQuwD4K0NvXbr0r/amZM38aXe5K6cfJuj/Dt9WAAPhD5431sAPjjIev/RojG4A/xxwsG1s0m7FRw+0IJ2GQMcvFc+LCWKPCGidDPAMWMB4C9xrqg58EfD39j8+hDXcI0sgEuLEzH0lgEunUAwZlFfIoBjiVV7wm589Gd2Jf0Ei7ZW5tUlon+4HPygtqoon2lGJdiis3EiDh96cLoYlGxFAC+Zqr7PaiwGONxb1lBMhy2sPccu+gfmwL+1hczoewC4BHwB3GUGN3bJrpdbQ3WnXb/wR7t4+nNWlh1hbI+4D8DDtjrqtGLvE95ro7TyPun8YT1blBbIpX2PAHePLvKqyhh8w8YHJYC/z8oXR5cYrF/pw8XBVxKAf2+PWAP+MvP83QMc8VwLGSTJSeMuYxcHeE2HXQPgF/o+xT69HQ6unUj1kVVXCeDvqiWVAP6uKL0vzxG8xfEEcHlJZRWZc3AB/LsE4NqpUiK6Yy489W2K6BHgPMm9ssoBBEtHGwH4VTy8SESvq2z3ayWA70sjeK1MSgB/LXK9/8gB4IJ4EcBHv7fHw/+0hXU4OEtHfy3Ap6dmmQdX09iDFj0CHC26uh5tipDChZMWmlw7/wd22viUTeiPYMCtje5KHPxdt6CtAEfJxjy4b3yAiF7GjEveq2pJRH/X1bP1ecUAD1p0LTT5gWmyf7CUcQjbdPkM0zoyrTSSOE94TQ4+w6IJ7XL5OgCPSrYyOLjG2y31XTh++CNa9I/x091W4uBeEe/+a6uSTV5V2dnkZLtPk5XhmbUE8HdfL698YgS4hr1Bix4B/iXTZACc1WVvDHA079J2C+AZ32tr7xy8AHC0tQC8rbHHblz6M/boN/E+0lIC+Ctr9G3eiBYOUrJhxFTk0cX9ouN0sYzNKEsAf5t18Jp5R4BrFJ5jF5NlXDUNjt9mm6IvbXLpGQBn9ZI4ePH05V45+BsDHLdFyIKuT0dqkELtKEtFb17C0OUEmyHgykk+iEsi+mtW9q+OvjvAUyUR/VdTeV8ziADPaAkiThVXDVfJWLLdx5LtxfxDfLFp/+9fB/DZmXlbZ6M6GddoXL1j8DF4BDiryhzgle666dblf7eeTizZrCEBeGmabEda7vvN7QE+NTPCPDimqu5VtYiDx/XgPT3dvmjd19IUc4p9L2Apw80UiAD3VUuIV+ssNhmbeeCryUanfsF32KKvINFeZHLT4+E1Ofgca5rXcFqwd4DHeXABnGkzVpR1d1zBVPV/4JvtEksgZYsucV/lCWqf0jx4qJq3+/0KgOPRRevBNwE8mqq2WWk9+Nutlp1yDwCnawUnOQCuxSUTC/LH9qX1j3/vi09SeMEP3lRfD+Aap+VwniiAr+CoQM/StURV94pihUbk3xjfaB48hfPFUydu2q3L/92OtZ1nhRl7YMnzqudUAvgrCPkWLu8M8CKPLjJVzdnAM0xVG1pLAH8LVbHXLCPA5djPNzUoX7KZ5WGmyYJHl8W1cUvjLDsD2AIHB5575OAB4OUAfN4BrlG1VoDtDHDxZMUA3Ppol5NcC26bPmO56J9RtvXRacgvmwCuUAK4k+GdfJUA/k7IvJ8PCQBXjhog4feLee8F2aOPaars7za3NGTlVQK4VpTJi9d2ABcv5U9Y8xjJZIpz8HKbn8Pd0NKKP2NvAA+gdZ9h2SqrK++wS2d+b5fO/t5t0nPMgWu7zgLA9VxNw+lKuFoAvu6Vwv5QoATw/aHjO80lgDMAHGUaWvOVHIq2yTuI6f+Jd5dH7KqzEsR3QFUM8ACiCChy8HnyBNyKCbeWiP7aAKenUK7uPALPqm0NpzFT/QNz4Ldw9YuZKpZt+bXpPKcQIsAjVy++V4hVOnoDCkBarxVJetRO8TSZvKpu8slWEtHfgMRvMUnSMwOsXBq/6Ckc/c0/gYMzDsfoRW6bTONzcfACnreUJ3BwdRhqAvoQH8cMrwtwiQIOVRyUaS14b8d15sD/hLOHCzgQbIJZy2VT1MdHEMdzpSwBfEvl/MoLod6pDz8oAfxXkvPdJ9c6X4cFU2IZlojOrQzb09Fvccj/NX7Sp+Dg8osOdPYEcMkD3s+/AcB9Rp6xusBNF5Gps8uI59c/+oI14T1w9aBBz1vV5UnlXQJnJYDnSbKPB28A8JIWfR/pvw9ZASiwoa0FZdG2nJ3As8ttttX5knH4gC8l9W2F3zrAvRuB96NiW0uzKX2rfYz2/NLZ37CK7FiiYJOiTt0RhdnQ46hwsYCRi+8DaUpZJGSG6k7vTRzc14PL6WLeL3qxwwd2Nuk56Z4gS/Pg77MlCTLy0S2As7so8+Ev5h7Z3adfMi9+j2svMXhhQQoc3kOCr+ISF0T0X8PBE4Azz22Mv5vquuw3N/6n9XVdw4JN4nkl0BeItwO4ShNBnpSzuICl4zemwE4cXOvB3dAFU9UNO5uUFpu8Mb3fQsIAcG1AKCDLVdP86qg9Gf7Onib7g2tbI191xre73FUpEKVjiGJzgFgU0dM2OzNrqyvBr/quk2TOeBntM/+dzjVY34lrduvqv9nRpj6mzGoZe2t30QhwRVbgfAMnD1dL3/tHgR0BPgvAT3ZYYxMOMkumqvtH9P3NKQBcY3EHOGvDVxh7a2+yRwNf2ejUQ/bG0TicjbS2C7SAADzBTeDmI/CjENNik9UVDF3QqkdV2HZZ6JpLAfL+ryWicvLA/uAX+j63GtaAp+Do2jtc+Xi/EqWJEsBfRc59u74TwGfmWC7afawE8H2j9lvJqBjgiOl4x8wglruyDQ7+ePh7xuUo27guPAnMUoflwysALo6r9eB7BzhdAJp3+UPv67oM9/4T3Puc+0bXunDteCJwuxeXEsDz5H/bByWAv20Kv/X8QY0jV+Nwielr4Cxw8fHZB3bn6Vc2MfcYZdsKAAvQ9u8ijG/l4MAxVWkTL6awRY8i+g4vok5CBiw4Wqxlq+Cbl3Hw0Mf674oOODebDjKnLhHfJQNlUwL4DsTc31uvA/D/AgAA//8Iq48OAAA+4klEQVTtXQdgFNUWvSmkhwCh14QmTZAqKFUQywdBFLAhWBBUUFCsgIhi//aGIiJSFOyooKIUAenSOwQSQgupkJCe/efct5PdbDYhINW/A9mdnXn1vntue+/NeO04tMeWejxX9sekSGhIealZs7p4eYt42/LEc5wvCnihYvx5eYkNZ3mSK7le2fhLlfS8oxJ1YL3s2r9c0nMSMVB5kueFVMzCgxlwmJ828bLxgk18fHzF3zdQjhw5KuknMsTX28dK5JSepzZhFm8vH/GxlRLJDZBaVRtLi0u7SKWytcVHSotXrj/4wzu/Si3A83HOKGDTwQVv6IkX2MRL8nJzJWZ/jCQfOyw1a1SS0mF+uJ4jXh6An7NxOcWKOIr4s4M8R3IA5AzJ80mVo8eiZGvUIolL2QvoZ+J6LiWylq+fQKg9N/DKK3ni61NKAvyC5PDhODmRlg6A+9oBbvKpKFHGAcAh271sEAAAcpmQ6nJZw/ZSr1YLCfQrL965gaiqFMrnP+Q1/0+xb57k/4QCHoD/E+pdMHkVbWgNYeQFINsA5Gyx+aRDc8fJ3sNrZE/seknLPIrrWWKDJrdRk+MgpvMBbr9AQAcFhMjBQ4clPS1TvL2hge2AVpSyFi+71QYOsuX6iq+ESZ0aLaR5ow5SvkyE+NpCxCvPDwD30bxsmcoPrdXzca4o4AH4uaL02ayHYMVI8l8e/gjyPAAwzytTcryPSWLqHtmzf60cTtwtGbnJasLbCFBqfINz5LADHRd8APDgwDAFODW4N/0wFQhaMlKabwW9zRdADpJyobWk6SWdpE7NphLgUxaAD4IxAMFA89yeV0lgOO5sUsNTthMFigV4Ckz0mm5M9Jho44PXqlUd0p2MQQazc4pT4Z7Tc0QBBTjrIky97QCHFqep7n1CsiRejiTuUn88/tg+ycxNhRbPgUxAev5ZY4dvllDKx09Kh4TL/tgDkpaWhmv4lw9wmPj5YoQA9pcgv4owy1tLwzrtAHTwRF4g/G/4dSp0kJysoW1k6Z7jXFKgOIAnJR+SWrUqS1gZf4xPtsMHj4lO1iBbRERNBbg6YhaTnMvWe+pyQwEDIqNjAXLvTLH5npAMmOrRhzfJvkObJCn1ALR4uprpBuTEOFAIpe4NwPv5BEiF8KqyJ2qvHE9NURkAOY6DZjltBP4Rs75SyjtMqlZoBNO8s1QsV0/88Ns7j1od4Nd/zOc5zhcFTgbwmrUqSZkyAR6An68BOr16FX52TQ5f3JfBtVRJOhEr0Yc2SwyAnpoVh2u4B3+cBwUCNa43dG8pALxa5UjZsXMnIq0JAL1N/1ThI6pmSkfkXAKlXOla0gCau0GdNlLKq6z45AVoOSgcZTGlqm+tw/Nx7ilQHMATkw5KrYjKHoCf+2EpeY2EEA/jIBlAUXNCJOsfo+a5GljLkmzbMYk/Hg1TfY0cTtgh6fDHaaoDiaYAaF0fLz/x8w2SalXryvbt2yQpKQ5ToXl2kCMdRQG4xscrQMKCq8DnbiH1I1tL2dAaiKQjap5XSoP02i7DXczkOc4TBTwAP0+EP1PVKpBQmPGe+YtnBu7GH7dJrg3+tjdi695ZkmlLRrBtG0z19Zg6i5Is23Ekg18NE91mB7h/qdJSo0pd2blrl8QnxkJWGL+b5jutdB/xl9CgChJR/VJpWLcNpsfgquUGiy9Az8CaN5JpuzwAP1PDfNrleAB+2qS7eDKqfw0tnYugmw0+eSYWwBxJ2il7CfLkvdDsaQA5TG+Y1dTMgaXgV1euI7EHYmX/wV0QF1noLO4jIm7LxfIVgLt2zWZySe1WUrFspORmByC7P+bL7XPelny5eEj0r22pB+D/2qF1dIwA98JqM8x+azAl1weR9bwEgHuX7Du4UQ4n7ZPsnDQETL0QNAuQkMBwqVwhUuKOYiVc9FbJykpDzlxo5lISEhAOcDdRcHO+28cWLHk5mO+WUpheox/vqNdzdv4p4AH4+R+Ds94CNZe1Fh81181il3To5WRJPB4jMYe2ycH4PZKVmSoBvgFSrkxlRMQjJCEpSfbFbJfjacmSl5eH65VgljeU2jUaS3gZmOVYzGLLIbAxzQLt7oi0n/UueSooIQU8AC8hoS7mZMYnp3b1Ue9cA29YtmrzzoDRjuh6aixAvh0aO0bysrOlUvmqAHN1OXEiXWJioyQpOV6Cg0KkTmQDqVGtPoJrlWGOh8Jc90eZmBIDuOl100VXJ/1iJta/rO3FAZzz4DUxD16m8Dw4F7qEC+fBuQCC86LKOf8y4vxbuqPjo/rVAJGDRZPbhg0GnCrLzDsmKScOy1EAPDH+iIQGh2IlWzg2JdgkOeWoZGZlSKUKVaRq1QjcqwBAByAgB7McEXdqbhO1J7XMlNu/hW7/hn6cDOD5C13EaaELd5OFBDsB3LOb7ILmBVeAG41OkAOS1pJWBNpOpCdK/NEDkp2ZpcE2amUbIvDBwcFSrlxFCcLyVW9E0G2YCrNhMaqZ6abaNo63KfGCJsX/XeOKA3hyUUtVPQC/yPgEIObcNafNVNtagTBcIijz7Jo8Ly8Du8cSJSUpEdtEs8Qb20ZDQ4JhwpWVwMDSyA1g59HMx+4x/SMdzLQcy+GZ57iwKFAswIvbLurR4BfWQBbbGm4sAagxCWYAzh/5B/U7/3GuOxsR8XRJTkrAApdk8fH1lfDw8gB5KPaIY4UatDZNctXs3ICiB81yS4N7AG4nygXz5QH4BTMUZ7MhFqCpv/nPFZDQ4upm5ULT58ixY0kSHx+v20QrVqwI7R2MczzQwQsAR27Hn6W3Le3tAfjZHMXTKdsD8NOh2kWexy0MAXDuP6M+T009JkfjjqgoqFS5kgQEBinAsSLd3nNTgoqJ/IlvXDPcdJFT59/VfA/A/13jWaLeFAVwNbUB9PSME3L40EEtq3LlygiuBWM9uq/C37mCQngudME5tef8fFDAA/DzQfXzXKdbgEN/64o3+OKZmZly8OBB/M6TKgQ45sD58D2HBjcdsAz/89wdT/XFUKBYgBcVRTcPfHCaJoNst7t1xVTluXWhUMA9wNE67gnHQGZh3tsCeGX44EEhBDii5y4a2gPwC2VEi25HcQAv8MAH53lwzwMfiiboxXCnEMDNEjRg20TEMzIy1ESnRmeQLTSktD79RfHv1EEPwJ2IcYGengzgRaxk8zzR5QIdzxI1yx3AFawAOCPsGRmZEnfkiK4/Dw8PB8DxAEU8OtkV0K6/S1S5J9E5pUBxAPc88OGcDsW5q6wogNPn5pGTlS0pKSkKcII7MCAQFroVQXe00wNwBy0u1DMPwC/UkTmL7SoEcNRFsOq+cXxz51g2Np3wt78vdov58sUHhXN5AH4WB+kMFe0B+Bki5IVcjAOaPHP8crTZLFhx/MaZ3eHW1ApuGu/u8lq5VERYPzzfFwgFPAC/QAbibDbDAcvCZraptzDAHXmsFLzietW11cbEd73q+X3+KOAB+Pmj/Rmr+WSwc1RUcoA78lhnHoBblLiYvk8T4I794HzxgU6vuM6hXExUuIjbWnJws5MegF/EQ31aTS8O4OaBD26ei+68XfSsAVw5186+RQgPGpY8dAOFPQhUKPBTRN7TotYFmKlEALfTJn/ZuEs/yARWgM3lltNP1nSy2v5PTXQlC7nQHMqD4Dt+W9fst+wXXK8irZ1x+fbP/B/5mU7/5GQAz3/gg/ObTZwBbp7ogtZZLTz9tpxyTrcAPw/tOOWGn8EMrqxiina6ilPrlzuAk69IRzt/FdMylmKVVFSy/y+AWzQjKC3KWNfyKXQyfrTnzbOnU4BzNAoVlF/iKZ0UB/Bz/sCHQn0q0Gk3/XKhquZ3IaghmJu8/5JLFgmcu+PaZ1ueoay7tMxnmOBkPMXcRZVg1f5/BnCL1whSkgZkpqg0gOc17M3j2gInxi7Eo5q3KLpqgRZxT+u7WICf6wc+ONGhQGeK6n6hREoPqxSTq0R5CxR0cf1w1z9XgHspI7pLafpqaXCLcu4pwPxFl2G4uPgS3Jd78V6lW6OABl0K0Jyg1W5xapFMWZAuBX8ZqhbIbyeJyfvP6HPBAFw7CMJwNVVubi4e+McnjOCpX3DyfXz4jmkSCwc/lHroPgnHP9ieNizO4AINvY20vnhDpuZxIS6LOOnhjo9Z8AV4FG4qaYEHKoIWhqYgD5++Yqlpex+0O0osc4G3Nb3+LFyqScXrTGh+FWTcC41AViPtbT3lr5L3h0BU3gOvGX7F1lo8sFIPBTvPzW/ybK6Oj5WWj7/COcYoJydH/1iGL3leA1xWTlPcqX5eMADXl8yj9dzokJAQLwmJicpHIaGh2LJYBU8VCQQR0VkQCDQDSUAwCAM+pCAzI10SE/GYoeRk7T/3L1etWk0CAoKQh4TlYBsiO5hYk7r9cE2jQ+MiKJRweqNgERZbubmVn9BKY13IT+t6gwmsm3zskrsDDTH/CFCbpKen42ENcXL8WIqUKsU93LzO6DkLNxWo5gHtSBvSnTQuV47PXSONzTVHxaZS0wzkJ8OaATAC1tzG9SLaZ91n3VqIaUP+5bNwYvTnP62HjbWIX7CRhn64RjrgSDuRhifSHtVdeHx+XZUqVXHOF0XwGXikJ0x1gJrlpaefkKPxR/HsuxN4bW+YVKpYSXyxWpAjxDfJHD58WMqWLYvr2MUXxH343KZb+HB3rXAq1KhNpOLkiRk7Ks+Y/TF4sSTeD17DzfvBCwXZ6Gf8w4OMRq1z4MABWbpsmaxctVo1ee3ICOl+dXdp2LABavAGofgiPJLKAJ2E2xe9VxYsXCDr1q3TVjRo0FBu7H2j1KqJ1+rkGK1uBsvuH9kHxmoyB8z5cAW48z3rnDkK5bNu2r8LlmouGpZwSYifTOuu3vw63EXImMf+D41BIXkSGxsrf/zxu6xZu0aZSpnRZXrMKpO09A8IkBbNm0v3a7qDXrWU5prHhSY6PqiPwSArv7v2Ion7Q4lRVO/dZzmdq6YGfv7TuthgbXShZhj6gBuxPj8rO0e279gm8+f/LocOHZYrrmgnvXv1Qu3G6szNwWOw0BTs1VGrNCoqShYtXixRe/dKs6ZN5Jru10j5cuVVMM/5cY4sXPSnXFK/nlyD8ahbp46CXwNwLt1x37JCTb2QAA4CgBi78MK7L76cLbO+/Eqyoc2r1oqQuwfdIQMH3qkSkUxJxiLAfUjgzAxZsnSJfDDxI1mz4i+8+raUtO3YUUY/9ZQ0bNBYNZLyqgLEPVlcGdX1N4NU/FfgQBu0HS5AsMbBJXXBrAV+OdjIAo7zbde2ON/jef59tgMA37ptq3w08WOZ8/23+M03h+I5alajrMxIy1cZ0R3y9w+Snr17yP1DhwoFI9eg58JU9IaJ6HwYTUIhjGLtfXaRk87JizhnQ1wbU0TSf3DZOHPFjUDJCi+qBAvgPr7ekoFHTC9b9pdMBP/t3rVb+t3ST558/DEISmpu0Ji8Y8sFUPFWmdxsWbV6tXwyeYqsXLFKevXuKcMffEBqVq+O97Afl1deeV2mfvq5XNHxShnx8DC57LJmUgraPRdluJKtqLa59uyUNPj2g7ttqcdzpYAGh23hZUbdtewS/9Zhx0debo7sxDupp8/4Qr6YPlPystLFzz9ErgcDTnhuvATzwQPoKd9yqUwGszAJj/j9Yc4ceffd9yXhUAzM0gBp3b6DjB83DgBvBIaFP+oETgIiHxRsISjlfJ+XCtznBdfDnodEZtp8hndJ524QimJvqyznIjS/iwBxvs9z3ibQDA1tsnXrZpn4wUSZ9+PPUqdhfenUsYP4BeCBiU4HZKSajWw3fb169etL28vbSvnwCmCmPLyKCJaSa72ox0aTM9/cJ+NqC51KLsmptrQkCU8rzZkCNysvqnfsN7vu7eMFUzxLLc733n1Pdm/fJf0G3Cbjxo6B4oGQpNoGNmhlgqRa4urVa2TSpE/kr2UrpVefnjLioWFSvVo1aPA0eX7CqzL906lyeYf28tioEdKsWVPkg5uFylx5sqi2sRbnoziAJ6UcgtVWWUqHMV6VI17uAK4NPxMABzkJ8D27d8vML76UaZ9Px1srM6ClS0mDSy+VN//7CjRMAxCLDA1NAqmYl5eDl9TvkJkzvzAaPysVr9TxlRZg1heef14aNWqC1+9kKDP74hHAlnmZA7MqF3XxscC+ePY3AaIMDULqoKAtFkENQ5vfHFTdUmkHtTPhKXSYJy8XDWRf8Mlr1ISGIVAGrjGAaJVtAYS/LY1pBVp4j2ZxqVLwz/DNvNk52aAHAzgog34KrloDzV+sd9vWLdDgH8nCBYulT99eMnTIfXhJRYjkMI+mwaf+Z152SMTPzx/+dxAJC+1NX1GgcVAPiM3ymU+/7e3gff4ml7PtKhTQT8u6IkNng8alUAZpjCRMqnSgP0rfNAuCl+UygGqe6Cp4VBReuIDfFi2ZkeUznY4PvnlOa4J01ELthTMf06uvi8qoOdkeLQ/peVj1+AB41KYsh+WxLxw30lzTwzKk1uR9lqHuCTtgP8x42gGebQD+7tvvStTOPdJ/wK3yjALc0JF9IV9TGJBf16xZK598MlmWLv1LevfpBU39kFRDjCkz64Q8//xrMm3yJwB4JxkFgF/WrJmdPqiY/XQ6HK1xuujmtFiA49VFBRa6WAA/00900UEDmQ3AdynAp0+bqUwWGhaq78h6YcI46d27FwafjEfGIkOky/zff5fJn06RPVF78XBAf4k/dECaA+AvPj8BAG+MNASFjz4GePfuPRAIOzUIRYYpW6aMREZGIl1DqVSpkgENrh87dkzW/r1O0hAIubQJzfw82b0nSg7EHsBAZOJFAMhXO1Lq1a2rAZEcDCABQUbIgYkbuz9WtqOegwcP6cBUrVIZhKwFIPnBTzskfkjbsGFDCeGDFNCPbDBr3JE4+HI7JAr1JKUk47qXVKhQAVZIA6kPn4zn2Vl4/S8G0QFww5wcVzP81OAAODT44kWL5Zbb+8mIESP0iSw5iEVoKiQk0/Fgv8i3BB2Dm+zjli1btS+NGzeSOrVr6znTUkDsgvAlDUnP2ug/6cBHOyUkJKJ95bU/0dHRsjdqH15YmCoVypeXuqBRgwb1pVzZcmg7xzhXA1Kr165Fm71US8UhKPj32nWw1vylffsrpDpMVgq2JLz8cM+ePVpnfEIC2uIj5ctXQLsiVdiH4I0rWaA3u8P0KSnH1MXbvm2HxMUd1bpIY5ZHbVitWlUAm3SgYPGS48ePyfbtO5Fnt8QnHNUINoVh9RrVMT6N8N6uCBJHhQVpZAlkB8AF9RPgS+UdAHzvrigA/DZ5ZozR4KQ35bDR4BbA18BEnyzLliyHBr9BRj48HEHkqhjbdHkOGnzaJwR4Z3n00RHSHCY6t+pimJSP2G7rOBMAT1SAOy1VPbsAJ+NmQ4PvkhkzZ8JE/0KqR9aUiFrVZdH832TwA8PgJw6RsNJltI8EE83zGTNnyGefz0DUvJJUqVRB/vj1VyeAN4EJlS3R0TEIPC2QFatWSRSYL+UYXnoPzg4KCpQaGMzWrZpL165XSePGjbXsmJgY+fDDj8HQe2C6tlLNsmXrdjDzYfVRg/G2jzp1IpGnC4Ik3aR06dLI56UR0rVr/laf7O8NeC3v4SPgDx8IjwpSo3o1BTgZrybO7xp0p4KeGnvDpk2y+M8/ZfXqvyUmZj8irOk6oGFhpaVevTpyRbu20r371ehjVQUltY3R4AS4Aav5pAbfKhM//FAWLVhkAP7wwxIaWgaa2c4aSGgsIMPo5qoNQvQEtMsamTJ1OgAYD+a6VAbeOUDrz4FWj9q7V779/ntZvnwNBE4dBJJu0Mj7vF9+kQ0bNgN44dq/6Oj9Er0vRk3X4NAQALy2XHN1VwUuhSgtpw0bNsg7732ogOrU4UrEDbbL2jXrpCbedffQsPvlUlhsjEr/tXyF/PXXctm5a4+C1xcgLle2DIBaRTp36iBdr+qCNoQrwJMxg7J8+Ur5Y+Ei2bxpK17egAdWYIz9/f0AoEo6xldf3U2aomwKKM66LF+B9H8sRP07JDk5Ra2CgAB/0LmKtGndSq7u3l0aNzHpSScKRB5FA5wa3BngeOMqYj/GCrADHMHPTwDiZUv+AsB7AeAP6SxRNp6D99yEVwDwyXJ5R2hwAFw1OJSBzgTZhbI2gG2wj7v1u6jv4jR4oSe6nE2Aq6TD4O8mwKdPly9nfinNWjaTVi2by8cwOdtd2V4efeQRaNtGalJSou6Axvv444/ld4C3c5cO8GWqysT33gfALzcavHETaMaj8iP80a+//k6OQgvUB2Bq1qyh9KCG3Qnp7YdARo+e10q/vn0h7aupRB83foKsWblWKlSuAICEYtqigpSHlkpLTUO9u+QQ8l5+5eXwoR6UVq1aKXNs3rxZPvtsGgC+QjVKrVo18GaQcsqctDD4thCawC3Rr3FjR6sW4nQFXZK5c39Vs5Dtqwwg0FKI2hsNy2SfCoT+CN50B4OWK1fOSYNDu9hH1gA8zw7wibLw9wXSp/+Nct+9g6FZAXBrXhbpaR1Y2ojMHgjLhwHL3bt3y1S4Rj/Pmw9Xx0uGDxsqt952ixzD011+/nmuzJr9Dd5Amig339xLbunfT0H88aTJ8tv8BWoVBAHQl9SvKxXQZ5roW7fvkCOHjkiLFs3kxht7AeRXQuuHybK/lskTT46VpPgEiYQASARdKoSXBbCbyB233yplwsrIggUL5cc5P8kB0Ll6zeoSGVFLe0qabAf9q1WtLHfc1l9uuKGnjg8FwRezZsu69RvxosQK2g5qeArULVu2qQDr2fN6eeD+oVIGQoLlz/xitmzbthOArqxWQQBmFCjcyBNZWTnSs1dPufvuu/IFuEUzA3Az/ZWdY2nwd9REv+VOC+A00WGjYGAKaHAFODU4AU4N/pBUhYnOB10agEODd+zsBPBSdoDbB1q/6F6ZEXe+6u78nAH8ZM2xAE4NPh0An/XFLGnXoa30ApGpTRPABCOGPYjpr95qCtLco1ae+OFESUlOkhtvukEC/QPU976sTTt56cUJqgl+/ZUm/GeyZfM2adeujfTocT0Gv77SYt++aJ3emA8GrQgA33PPQOnXry8AvFPGPPOsrP5rhZStUBGaurN07NgeGrcm5pdTEbVfCr9/lvjD5H78yVHSH3lozk+fNl2mTPlcfTfW0xpaIBxzmkfAZH8uWSK/z18oRzHP2brt5TLh+XFySYNL5EvMGHw+bQa0fZz8p8e1aklQg9Dy2AJtPGfOz7Jh4xb0pbHcP2SwXHnlFdB8xr8jA1njzCGnXKcPTpr88vPP0uiypnJF27ZCzWfLc4wANThBTj+2Avp3Rds2sF4aQoslY3ptrUydOk0Wzv9F2sIXHD7sAWi7RJk162s1Z1u3bin9+/eVtuhDNOj3AcZm7k/zIDBypQusmf79bha6JDSFGV3+6ae5cgh969SpvYL3MrTpr+XL5ZFHH5e4AzEShreWXnft1bCU2gifwU7ze/PmLaDlDK3v8jbUpN3UXaCbwCDsL7/8Jr/M/Vk6dO6C2ZInpXad2ph5mSWfgfa+mPvvA83YqUNHCIrScgSuD8H8JdpfH8Ln2XFj4ZZFqJn82ZSZUhbz/3379oGV1E5fskgXasHChfL9Dz9L46ZN5cknHpM6deuAzMYvJ415EORUMtkaZKOJDoBDMNxCDT52LIJsZowMwOHHwyXIRQxlzVpE0aGll6kP3tto8CoG4M9Dg38+aZId4CPtGtwCuGP8OOiWYNfGFPPhDuAc9/1QLIU0+LYDu+xRdDx0Mbi81IJJBUsZvYXpgg4Xdzg3z106Z4DPmAGAA0AdruogDw1/AIPzlczG75v63ozfw7CQoArevpEKpputzFivXm255Za+6t9OGP+cMdEnPAfzqom89BIik9O/hD9VTQbccYd07dIZ5mR59auSoZko+T+FANi4fpPc3P8mGf/sMxINE/2p0WNkLUzETl27yh133A4t1FxCS4eqr7pq5Wp5GwO6B0GV4SOHy3333Yv55wOo6xWZP+83ufY/18igQYPgPzcUP4CLi082bNwkn0M7/v7bfGnZprW8hPZVhyUxatQTMCv/hEnYAtpiEKyBFhKIBQ4M5h2CiT8PzMz2J0LbPTLqYblzwJ2qEUhyBTc5CCE9a8i3b9siH37wofz0wzfiFxQmYeXKIC5A+9wh9X0QiGSgKRuC4tLGl8g9qJfWQXp6hro9v/76m7z6yquSmZ0r3bp1hvBKQ0xig1o/t912q3Ts0B6WSTgE4Xb5cOIkmffzr4jElgbNHpeePXvo1A4FcBRcnNlffyvffz8HgiRchg69Dy5Nd1kLIfLwyEclAcKuLbT6yJEPSyPEJOh2Hce4fjX7K5k540sAvqIMumsgZgI6Kvg4hcdnxS1e/KeMeXqchMIaeHbcaLUMaAVNBcAZF7gNVkA3uFwVocnpEkRFRSFW84ea5tdfd51UhaX3zjvvyYxpX0oNWAd3DrwDArwDZhHC1affCctw0Z/LMA4h0g3CJTIyUtkboZ8CBwVlNiytv2CRvP322wD4HrkVQbYxo0fDgjHmPHS4BvcoDHKg7dl3NdEh/HrDqhkBF4r8nI2A8nPPv2z3wRlkewTz5JdpkPJM++AEeCwBnnzQ/n7wALAHYhlnC+BkUQvgaqID4DTRO3ftpIBbsnSZPDv2OamPYM3YMU9jfvAymNE75dMpU+G7LpHrr+sufW++UVYCeC88/4K0gs86YfyzEoEg0chHHpXfwIB9+vUBUG+D9r4EzG38GvpGe/dGwaz+XL6CxdDhqqvkv6+9BB/9GDTz0/L3ylXy4PAHpS80NP1fjBXMY5jBmGt+6+33ZPWK1TIUZuyDMPtWrFwpr772umyGoBgJIPa9+WYwWEXVkuQKagZq648mTpZmzZvIKy+/qEw7+L77ZdfOKBk2bIgOOLWYMhLqYlR5PUzODz/4SNairkFD7paRCJrRrFYRDnATSA6A26D14INzmuynOVKrXj34ni0UOGwDqKz5HBo8T6rBJbmqc2f4pk1VGzFoFAsBN3nKZ/IDXJs8gCoHmqc0LJGBd94ufW7sDR+4mpqetHQ+nPgxrKCF8NUjIeAmSFNEfrPw4gTSNhvxBS4A+RhpGPcYMnSwBko3QtgNf/hRyYTfP/i+e+TuuwapgGDkew/G9RMI3J9+nAsBWQ806a1BRsYq6ItSczLY9+Zb70laSpIMe2i4DBhwOxaILJYpk6fIfgjalhDGtJ5ocdHdKQ3BzCMAD4+km0XLi64IZ2qSk49JKwhX5omAG8BXNTHQxhUigSGhMOfL6qub2B+oYS3H+uBsgAJ8+V/y7jvvyK4duxTgT2MNhglqwgcHY7NflMM059fafXAqlhv79FaAc8wNwF/KD7L9+wEOCX7V1Z2hSV5CkGyfPPb40wBJvIwb9xRMumtgnv8hUz6bCq2TCeDeKldBM/8GzfMcNHgrmFsvQkOWg0R++OGR8heEwCOPPQrTrY+CTpGKUaKZSh/tC0yzvfPW29K8dRt54/VXVOI+9sRTsm71WhkDDUE/LywsDAPFRTb0VXfJ2++8L0sh5YfcP1iGYbHCN99+K+8BiEePJmAO/mm5FiuRyCiUlqyHZi5jAW+AMRtcUkcBnoEltg88OAJ+bby89soLiCN0ARMGmCktcgT+9uyOkvcQkPpt7ny5ET41I7QBgQFgdNzH4QrwHdu3qYn+BzRWz17/kcH33g2XxjC46bfR5OpHgvH84Nbw7aH+mCozBdogWDJgcWyQsc+Ml10QGFRfrRDXeOSREXI5rA9r6m/nzh3yPvq8BBHhNm1aypgxT6m2Y/yAsQZ/RMWXr1ghb7/xpuyOilYw94UVtnXrNmjwx5T5n37yMfnPf66HgMf6a18fAGC1fPTRJI0hhEEb17uknvrYNPlJRwIm/US6/A3Bl4nFIbdD+5L+XN78FeIsC/6AG4Qx5Qq9igAz4y21IyMggOpJkyaN0L7aGgz8e93f8u233yMesALvRE/QYFylShVVKNSByV+3bn1phKBr9Ro1pBT6QbeIj452PrhegMJs+Yrl8v5778k2uBZ9b79FF1lRQHAxkRfSGL4hwDOhhFbK5E8m4XuNWowjHx6hFuUFC3DlQ876/gMTnazqrMGNDw6Awzx89ZWXUXSePD36GZkPf1q1QK8e8JF+lK+++U411N13D9Jllj/O+VGeHz9eWkKDv/TCBPXVRz4ySlYuWyZPjx0Df74XorDhqM2Ag59H4uKgWWfJO2++CyZuLa+//qrkYL5y1ONPyPq1G2A2jQMDXqdMRknMrHvga737/geyaOESGQqAP/jA/XAjoJ0nfarm+OinHperu12FabsgMDrnQL3BgAnwp3+SN1BPo0b1AfAXoD2S5KGHR8EXOi5vvfGytIffWArahdqCjEHlvBtm7rsA+HwEvvrAhRgz+ikzZ63mIsHKuWqGXHgBGhwmOjX4IkST+9/eHxp/uHlxAe6qBueXXTjkAx79svrGMrKzs2TTpg0yZux42YkIM98T3rZda3nooQexrBVmIy0IDDz94Q8A8KUASYf27SCERymg6BJQ61NjcsnsG6+9gWnD3XaA99WpuJGPPAHh4ivPjH5SrrrqKi2P04grAZYP4GIsw3LOsnh1cd16dbHAiS4LtbcmQ9UAFoQIr1Gw0y1gIJRB15WwuihAjsC9iYdbEx+fqGZ3OFyV7ojm97+lv/r5fD3TNkTvOS+9bft2XQMeF5cAQZykQrki1ohffc3VUAo3wsevi/5wVaArwOHmoB0rV6+Sie+/L39DIfSA//804gKlMdvDGRS22QqyUXD++edi+RRz3Zs2bpb+t92iFhmVhzPA23RgkI0+ePOzYqJzqlJ98EImeuxO44PvPwbtVE6lnT7wQR1Cck7Rh4GU+/u85wzwGTNmaJCtM3zw1159SQNBr7/xhkz6aIqaU5wrXbpsuWzctBmBm/4wHe9ECV7y7TffIrj2Eha6tIGpPh4avJyMeuxJWbpwsQwfMUxuuulmmGxVlDGYnh3dvWeP+vHffvUtgjad5M03X9FNK6MefwoAXycTXhwvPa6/Hq/vAZMBeBwwRpvffx9TUX8skvuHD5UHAPB5835RIMYeOAQt+6T857prdBqOfiMBwbnemXA73keUvyXMRwKc/uF9Q4YhEJQo48ePhlDoho0fpXXhCAFETbUGbfjo409k45oNcvfQu9Sko/9sZI0zwEnbPADcPk2GtvW7rR9mHkZAIASbhRsCoYGDAGH/HUDnNQSNUGdWdqbO978DjfTbbwskF0DIgeYJRLuGDr0bJvqNGgxjObt27tIlwn8iItwGwbcxY5+WyIgIWADQ4FjswkVENEXfeesdiYuPR1/vk149e8radRvUBw+Elh399OPq/3v74PHMYIL10KyTMI30x/w/EPe4DMHTG3W9AS0hBQpoyXHg3DsFYT0IAL4/jfczIZi4Mo902x+zX4Uj59E5Dbdm1WoJw1w8Bd5NN/VRAcSxYVAuJeU4GH4/5tyjdGwZdV+PmEN5zE8PG34/4ju3gD4IkmHsnQ9aHWzT5s0bMZszCVO087FMGjEF+NXNml2GNjEDBRNWDMI6ST2eolONUz/9VAOaAwYNkKH3DZEgWHoWwKdPniytruwIH/xRTFVehnz2paocL6fDpSlOdwqeGlkOPtETWhWG7/fHMsh2CD445sHDYL1xJdu28wBwAqFq1WqIxv4Ms/g9LEhI0J02Bw9h1w1MuCHw4WhCp2L66qvZX8vLLxmATwDAa0dGQhM/iWWbc+U6RKgHDLhDmjRqjCksLM0Ds3NnD020iRM/li0bt8qNmP4Z/+wYOYDgz2ME+N/rZcILzxYN8AV/wge/T33wNWv/lpdf+a9swDd98H4332SmtMCEZD5qic8QM/jph++kVVsT5eeU0cC7BsvO7VEIsN2JCH4/DbxhFHSU+I7ueQjafTYVviKmp0Y+PgJBtgFgKg6vSUPtzcP6RYB/9CGtiwXQ4LeD2YZrsMjavsiB5iAzB4WVOYcFQCENkHMX2s9z58kLL7yG+7nYhHKVcLZhO5i+KSLgA8GUHSBgqaF27dql5vQ8WFYR8HdfffVFTAG20GAdG5SMhSpzIfimTZkm/nArhj4wFMGvbrqRiILXD3PUTz0xSuf4GRehkIlSgTtVfvhhjjTBYpt7Mb6McFNIqmWDtnMxzZwff1K6MmjHwNpqzOHHxu7XWEJrtIFuCTUmg7Ecmzdefws+8jYZdI/x+VcB8IfwBtXmLVpIs0sv1fZxkdLx48cR/V+OmZtPJHpvjNyGfRBPPf0k6vdVIUmwWgdpR6EYHb0XAdTP5fPPPpeqcAkG33sPphH7g88QvML4mPGyabrPpk6Vb776Wqpjam7gPXdhPUFvKIIgBfiEF16WzyHcWl/JefBHNNbkC8Fn1qKbEbbqdrTCuuL++4IF+OwvZ0vXq7sAsM/r6qW9e/divfl78vMvv0oqIqk026+59noAfDAkfQv1wb779jukf9lo8AnP6bzqm2++JZMmT4W56Ce339pf+t50E8zIWhos4xz0VyD2pMnTYLqHYVnnvRox3wkNzSDbBkhxmug9YKJzHXwBDQ4zePGiJfDB79W51QSA8cWXX5O53/8AAF8ObTdY/VWanXuiohBJ/kEF0NHDsdL6ig6YJhsvkRERMnr0WPkJ/jXn8Bll7tatKyyPshjwXNm0eSumcz6Tebh/CdaVP4qIfadOnWAW4qUEQBD/mQFUuCozqQbHuoHFi5ZKn5t6yKBBAyUAfjaFDBmS/Mk/mo+MWhM0ftBiYQhEkXk3bFwPOn+A+MICad+ps04TbYHJ+ynasQ8LWLphTAYOHICgVAtdL/ARNNdPc+aqazH84ftl0MCBWN2HyD3qWwg3YQqYfgX8TU7FDR6MsWreQrX6E0+PgS/sI6OffEK6wERnW/h34vgx+NJfIyI+Wft4xx0D0A8G9qrDLEcAMDYWtPxeXv/vW1IZNHtu/DOYlquKgOtn8gsETbeunWXwPXdL06aXQvv5Kq02btwIQf2yrIL5PwSLpXphkQ6F+gLMXlx33dUa5GuI1YzU/rQ+1sJqeh0CYR2+B2GGZNRjo5ReOYgDuAKceZKTEmTuL/MQmX9XEqF4roQQGwarjqvhQkKCJANxosNHDmvcaBbiPZylufq6bpjVud1EylEGrbmXXn5VpmIKrQ00OC2vZk2babxDrTW1uhwgvqgAzmZbJrquZFMTfbZ0QRT9jddekVD4KBzcWbO+hBn8gRyK3YdAU1n16W5HUKM6Bj/uaJx8/90PiOS+Ji0Q8HlhwngEVZrImtVr4BtPRtBmkVTBajfOqVKzc2nmnt17dD6S89RkIq4ui4iM0GWvBuAbAfBnigb44qVgmLvlgaH3q4b5+ptvwHhvIsiTIFdgEQyDOr6+3ojUR6sWObg/WnwBsjbtOyBWMA7R4fryO4JhEz/6BMy0QS5DJPeKK9thTr6SnEhPhwuyRZkwKDhQ7r3rTiww6QN3pYKuryfNCFh88IxQ5yWNonNh0Nwff5SaderoEk0m4by6pmcianECiiYmQN0I0eprr+nGGxoV/xEWj59/KXkKc/yMmnNV2VeY7pqNhSEZKOcOzPXeCl+W02ccD06TZWenY+VhpHSBm1M7MkJ91iWY610NcNetV1tuvfVWNcXLlAnXzRmPjIIG9ysl4xCY6wqhxraxJ1xwY6aSPsXageVYAVhV2oMmdevWUSG1HUHEPyA4EkDjvohJDAEAacnNhqD+HBuUyCftsVagOaL5jJ4nwpTn8tu5v8xHLCJIYxhXIl5Ad4nrD0i7zpgia47YAn19Wk3rN2yShYuX6Sq5Rx8ZKdfA3SIA+YZV50Mpj3Znw63Zs2e3bnr64suvJeNYqjRt1QrCrJm6aVwjwW3Q69aukbjDh6CAWsltUDadQavwchW0SC504Tz4tE8+lpZQAI/RRMc2XlqbNPVdAe3627ldzufnTIM7V+p6TkIR4FwIwMgsif/dd3OkC1anPffcM1jTXEElJwMor7xGM3gt1kLXU4Bfe213jXCTCecg8PbiS/+VZlg5NWHCs7rQhSbaUkyzcQvqqlVrNJgUGIQoNMRiOjai8KEIXIRxJ6ZaOMi5YHhaC08+NVY2wkR/FgDvdUMPTGlxwwb8FPzjNA213LJlK+Tee+6E5h8CC6EUorFHVVPPnferrutmsIpR39KlQ3Suk6pzG4JW9C2ff+5ZqYfgDddP/zR3LoJ038jO3XtVYnNdNaPGXA3GmQAuBLkFi0siIiKUDq5ahFqY4OQfp/A+hs/+05zv4IRgjbYv5zgJf9y3uALAzhcOuNax85VwKfqg/XHQIv9Vrde3Xx/Mj9+Fpbw1UAoFxw5YOlPgl/+hC0YGAORc4z1r1leYY16IIFewBoQSEpMRdUagEBZWOnzbKtWrYIXgTVhg1ANlYb85LBMuEeVKNm4PHv/cWOl6VRcVkLTKCPDjmFJbuWqVTtNx+SnHKQBjxg5Qw9Jcv+6arrr2gWv1SS+6QAT5b7/9jr0EqUpzrvlPQ94MzO+XLVsai6RuEM7jU+Nv3LRJg6u/wddPw9LgcuFldHNMKoTWiROZiDNUweq73nIzov48p7+eLyCVImgNxlNjFxhjChbyzTeIzHPtwpEDR7CLz1/HMxfjyGXYXFfe5NKGckPPHggOdtJyUYDGU7IysuS1N97S7aJXwo8fPux+s120lL/ygjV09qpBCaLm5McFA3DVQBjgpMR41VzcdFED/kynTh305XckJtcPM7gWjzdfVqhYUc0wzsly11I6NDKBR+YpDy3XBQTUZZ1g/lT4VZtgZm5GUI4LUlKPp6pZyidncAMC1yfXx3QMfSFOhyRjfnUxtDMB2+6KdhrkMavBzFQNo9/0+fbD1GrZsqU+MMGGyDuBFgdTjH7kXvitSSiHTMHVYmVghazHGuwZWLDD1VlcUVWrZk0VNEeOHsF89ybdCHPwUBwYLB1tCUYfyysommJFVWRkhJqwzuB2IFYxrMx2FCD9e9162bc3CgxIs9wOZvBCUSxBC4gPGUhGBHnd+nUa/W7VqiXW2/OBA74KIDL+3xB4OwB0Rvq5GYVtmT5jpo5JSwjVTqA5V8PFYnlpWuoJaKdyWI57iTTDpgluifT3CwCNvPBq4kN46MESzc919pGRkXpu41NhwMmkWRqmwLbv3CUbsaZ/X8x+9aXp75ZFNJzLVrl5pE7tCF2lR9OeK8roCtHf5sKWVAgJzsP7QQNynTwtAAatIiAkKURowZFf1iHgx/Rci04BzsAfLajatetgbFurO0eBwii6BifziUjI0WQHT/Af2pCJMml+02Lgk1mOxB1RXuO8ezjcLm6U4SYdrqijJcYgJF0ZZFY+4HqPTRA8NbEx6XIEYiti2o5lU3wXHD2iJb8hereoj3yAMz0tN9BQo+ixboJsW/cjip7qtB+8Vg1kQFXo5D852FT+qRZHh9MxP8y5VM7NBmM9sSU5OeXETRGMXFJq8z6DH1ZfuUiDwTZvSMpggJV+JkYA971QXoZKdjJgBsxfErd0aCgWWITqfDXL4XZMMguH7gQCcKwnGEBjJFOBZS+Lvnh6Rhq0SZbuYGOatDQIEQiQIwjcVMbKJIKXu6NYFk1RLpnkdNxMrJ66rue1WIn1lO6wYp/Yfvb3+PETiOCnoOxMuCCBaF9pBMgCQYNQNacZmdb+okxzOIaeNMJ/jQ6fSE+zaxwrnfm26FzwqtkaSiCwLcrIGAi+UZR1kRmseW+2kcDgwfn6vVgnP2nyp/CxV2OFYAdMGQ5RM/cw+sr1CQx+0R8PRICNwSKdF4ZdQeskFbvNyDt8rBbHkcKRU34kGDfSEMwZqI8LUVIwZnRZODYhIcEQ3GUwZqHqM5MmPNTfhpZNxk68FOQ5AYHEuANjICGIn7AdQaApyyDBSa8caFXuHExISNIVdGxDAMaMU25lkD40NAyRfTP2pG0eB1NH1PpmY8li+OYfDgoJKhtqdLab5bPM0hDwIcFBSjfyrmmHZkFbTPwhBQFOriYMhObnFKvyovIc2swG5B+nDnBtqNp06AfoEhO7X5eq6vvBEUXX/eBnF+B2mYR+WFqHhDPmJ8HPfcfmOVeclyWhaWYrcS2iIw2ZgzShJqZ5zAimMj/OedjQOZaJlMoglLwkHq9RmlK6kxjMq/fYBhaoY0iJbaaTeJ+Dq3t98Z12IhXr0KfKkj+XIvrbUHrCrFcNCBeA2oHrsqdN/wJLBPdjzftdMgSRVmpCgort0z7hW+eQ0RaCSwFGDNvbp3Urg7In5uA17R9/Upuw3UivDWajec7287B/6W0msR9KR9IEjKbbEwFACjemZ9+ZnvQi0K3imJ3bW+kOMIjWtWtHzOljGTGmrNIghBn5pdCgkDVjxGYYxuRYarvRVuoGmvMsj+3W69puq3G4j7blaho8CAl0IeMzLduIVtnLwjVkYXs1GGoHvqENAAShj4QYL7tQRH4dX+Shf20JCsYluIDFC31lr62x17axXXYa8sQGAWUukA/Bo+QdpZcZA0blqXSoTHTmBmVrG9CX/HFDo805isJhhCkFHR7OyLayCuZj5/IPQ8f8n8WcWBrcFEDeBo1OBvD8/eCWBteO5/e8mOrc39LB1VsoA/9JTHISO86O8tABJTdgQNVU0qu8B+Jq/XqBkgCX7IxilQHqsEh+sIs85WGK1tz5v5nOuqKD6lQ/22MNBtOxnDyYwSyTyxCnI8gzdSoeVAHNwCBb7dq1dcC4Wm4DTM29UXth8rfFvP0dmDduow0wDxpg0ziILNEaPPOtdea3WJtZ6IO59ED7qBW1HKWV/TJ6pGkMKXE7P4c9m4PGvODoZ8F0BGb+gfOd9qWqy5avQvS/oz68oAo2mtAKYD+0L1o0zvkT5/yprSFd7eUZmlKE8NAM+DIpmYbtNffsKTSJNcaGae25ONOnxTr3URfxaNksHQmYGEVpqU7f9iSmDUijwsJU6bhV4IwFsUR+s14kduoXs2rflGc5nnrB/m3aafKTr0kV8CeECwWeSYocRKhFJ73Kj2IblZ+KJ24BDuEXA0WTv9kkzL4W3dLgzgBXhcIG6YAUKPuUfrDJJ2u2YVPXVIa4JJA5ii9Jc1tJ3bUQHGINmLvbjmssxBRkhs4mm7dskR8wHcYHRtIELQXTnAfNNZrplzZqgFVXPaUNVswFB5rHT7EIwxN2QNupYIckbhffH60AH4YqVsestlm/rfsmlZXn1L5NWY4SvHSR0LTPZ8haLBtt17aVDBlyj/qv1BDGnLVSG5Bqq7QY63rhFli0LHzH+QrzW2VY3477esXRdceNEp8hMwopvghz92S8YkRT4TaaprAM57+iGmh4o6i7xV13B3A+VjvaHcC3xOwwPnh0Mvya8ljcUAMSh208MwBnZ4siBSnuuOuaynkorHvO1wqSwEpR8KrjV9E5HWkKDgzNdgI5UwM33O64d98+OYbgHiUy/caqMF355BhuywzGyjIGgLgijRYJDzU18c0+Wv007ThZazW7Pafj3NE+R37DbFYax7ejv460jrs8Mxql4Ph44fG/8QjKrdf4Ah/CcDmmf0qHYCUeTXwtgDWiTLsG4qWT6QEDcE2pJbj/YDtd22roZvJbFHSfuyRXHTQpKnVJFIFpp2tLC5Zo1WR9F7zLX/+kN8UBPCkJu8kiKiMAbNfghQFeHQyM5p8RgLODRXfSAoJJYQhXmBTOVyymNNeKJ7JzPp6bQJvrVcdvR1vhpdkvm2GgdDyBICG3NTIazggsA4UEOQNXXBrJjRiMvtLfcwgu0yerf6c+qI42qZ2aT0uOT1HQdvTIAKYoKrGPpmWOb/iu8I0ZmLRM7ABMj9HVYNyDoOY/zWVl1d4611n4XJPm+7aF75srpk8F7zra7hASBVOczi+nphfMftI2IrnNCO+CGc/tr9MEeBIYNlw1uPGPSIYiSWF6dJLbzO8YIvdEcKQ4WUrmL1hhSXJYtTrqsa64+zblW8ykphpAS0CzLg2QaBvA5hCCDNyQ6S1wO3xEwwRWaaypZPUX3SYDcKf7ZpSLoe/JqGMZomilPSlBzcMKeGmgzk5zA2zct9fr1BIru/OlAuda08maUyAHfritx7TPNemp/HZT7KlkN2nPSCGnXq2Vw1RPgvLPzmuIG3E6L4lr0SO4Fp0aHMFeS4PHxiRBK5XT9ceGUS0JT6Jao2N9m6pU4JnTf+2nBfZT66Ch0z9nx1Or1ZP6/4kC5EzwmVqMkIcKcKzTSD6MtSYVsRIwALoHMxInBziJVhDYFhn/HwBu9dXz7aHAhUUB9wDn64Nr1KiIlaABsMTyAZ6DJ34k2jV4BJBPQFt+qNUtXnMGOuTHyaIrVlbP9/8HBTwS//TG+bRMfvcATzl2BMuNKwDggcAxTPTNjKIf53O/4yUkKFxqYckg/a3ChxuA2/2zwmk9VzwU8FDg7FLADnDLBxfMg2PLbUpqHJZql8e6fbsG37RvO6bJsvF88CQJ8g/DmtmaCCphrreQdi4McCQ6u33wlH6WKQBR7iTLzZD/0zE9/1Hms0y0C6Z4a6S4WCkLMx+HDsZKyvE4PGuBAOcSXpjom6O3245Dgx85nIL1taF4OiU2EGC3i+W85/fGnRnhMcnyyXNRnBDBYAaHhWaxiHPrnRDvfLlE5yXPa0XsiyrWMSNRVArqIHftd6QvURlMXlw5Si9HmUWdnYm2FFW283XXepQCaD+Xzx4EwNNOJGILdbgBuAmycbMJAH4oGZobT6gsX143VJgFG1bRrtrb+bp17vm++CiACSwnjJQEEMX3saQAd6q02AKLK69g290VY6yT4sqgDYq2FNOckpShpRRTBttWuBxkOEUF6RDMprdsO6cyua6fW27j44/glVlp2MZcHptqEEUX+OAborZAg2diy2U8dhXl6WZ27XOBBrsDuLtr7sjsuXahUEDXRIMhuCDHArZhPDvDFBjzs9dq5zqLqsVqX1H3ef1k5ZSkjJOVcybKYB2FyyGxT4fgjjwUyGbNAmvAbklsjvIP8IKJziAbdmx6Y8PPluhttsxMPPAu/hi2N+KFe9hKl4OVWxAKOFyln+tvpvEcZ5sCjiEteU0cfP4jY+luPAzocWy7DcZWVWs3mCtAjPnnvjb3V0vengIptW0FrhT6YQBRXK3o3UnYUXMXRlbBuk7SljNRBit025+TtL9gQ/MLcVxG2+l/c3z5nZOLh2jgkVnlwsOwNdkP6eCDb4/dDpGOp1ZmYHkiNu7z3cUcaLOxoLiASXHEd7TBc/bPKUBKuwuBFFWysfzIPWbgqSji44/iyafrpTHWzvNBDbr8tJAG0ZoKFmsHiI62MuSpcmXB4jy/zjQFrPHA9ts8vKoZD9jge+m8ob25XdZra8xWGwcb22cx3GQIbpYw57pSpsj26JAXebfkN85UOSWv8aJLaY3hqTQcFhj9M5pwfKDDkqVLZPasWXLtdddLTzxqiW9h1Sd7apnOY+B87qhQr55OOxxFeM7OOAU4IPjD4EAlw+rOxm8+OIX79bE3AgD/H3Gu8kI4oG7JAAAAAElFTkSuQmCC;" vertex="1" parent="c_AYpVPlN-h9lZ-HARwW-7">
          <mxGeometry x="166" y="73.75" width="67.59" height="39.25" as="geometry" />
        </mxCell>
        <mxCell id="c_AYpVPlN-h9lZ-HARwW-9" value="mongo-network" style="text;html=1;align=center;verticalAlign=middle;whiteSpace=wrap;rounded=0;" vertex="1" parent="c_AYpVPlN-h9lZ-HARwW-7">
          <mxGeometry x="77" y="35" width="128" height="30" as="geometry" />
        </mxCell>
        <mxCell id="c_AYpVPlN-h9lZ-HARwW-10" value="" style="group" vertex="1" connectable="0" parent="c_AYpVPlN-h9lZ-HARwW-19">
          <mxGeometry width="728" height="261" as="geometry" />
        </mxCell>
        <mxCell id="c_AYpVPlN-h9lZ-HARwW-11" value="" style="ellipse;shape=cloud;whiteSpace=wrap;html=1;" vertex="1" parent="c_AYpVPlN-h9lZ-HARwW-10">
          <mxGeometry width="290" height="178" as="geometry" />
        </mxCell>
        <mxCell id="c_AYpVPlN-h9lZ-HARwW-15" value="bridge network" style="text;html=1;align=center;verticalAlign=middle;whiteSpace=wrap;rounded=0;" vertex="1" parent="c_AYpVPlN-h9lZ-HARwW-10">
          <mxGeometry x="77" y="35" width="128" height="30" as="geometry" />
        </mxCell>
        <mxCell id="c_AYpVPlN-h9lZ-HARwW-16" value="Streamlit App" style="rounded=0;whiteSpace=wrap;html=1;" vertex="1" parent="c_AYpVPlN-h9lZ-HARwW-10">
          <mxGeometry x="55" y="70" width="120" height="46" as="geometry" />
        </mxCell>
        <mxCell id="c_AYpVPlN-h9lZ-HARwW-17" value="" style="shape=image;html=1;verticalAlign=top;verticalLabelPosition=bottom;labelBackgroundColor=#ffffff;imageAspect=0;aspect=fixed;image=https://cdn0.iconfinder.com/data/icons/social-media-2104/24/social_media_social_media_logo_docker-128.png" vertex="1" parent="c_AYpVPlN-h9lZ-HARwW-10">
          <mxGeometry x="155" y="70" width="19" height="19" as="geometry" />
        </mxCell>
        <mxCell id="c_AYpVPlN-h9lZ-HARwW-12" style="edgeStyle=orthogonalEdgeStyle;rounded=0;orthogonalLoop=1;jettySize=auto;html=1;exitX=1;exitY=0.5;exitDx=0;exitDy=0;entryX=0;entryY=0.5;entryDx=0;entryDy=0;" edge="1" parent="c_AYpVPlN-h9lZ-HARwW-19" source="c_AYpVPlN-h9lZ-HARwW-16" target="c_AYpVPlN-h9lZ-HARwW-5">
          <mxGeometry relative="1" as="geometry">
            <mxPoint x="179.16999999999985" y="93" as="sourcePoint" />
            <mxPoint x="166" y="93.375" as="targetPoint" />
          </mxGeometry>
        </mxCell>
        <mxCell id="c_AYpVPlN-h9lZ-HARwW-18" value="localhost:27017" style="edgeLabel;html=1;align=center;verticalAlign=middle;resizable=0;points=[];" vertex="1" connectable="0" parent="c_AYpVPlN-h9lZ-HARwW-12">
          <mxGeometry x="-0.032" y="-1" relative="1" as="geometry">
            <mxPoint y="-12" as="offset" />
          </mxGeometry>
        </mxCell>
        <mxCell id="c_AYpVPlN-h9lZ-HARwW-20" style="edgeStyle=orthogonalEdgeStyle;rounded=0;orthogonalLoop=1;jettySize=auto;html=1;entryX=0;entryY=0.5;entryDx=0;entryDy=0;" edge="1" parent="c_AYpVPlN-h9lZ-HARwW-27" target="c_AYpVPlN-h9lZ-HARwW-16">
          <mxGeometry relative="1" as="geometry">
            <mxPoint x="45" y="195" as="sourcePoint" />
            <mxPoint x="152" y="199" as="targetPoint" />
          </mxGeometry>
        </mxCell>
        <mxCell id="c_AYpVPlN-h9lZ-HARwW-21" value="localhost:8501" style="edgeLabel;html=1;align=center;verticalAlign=middle;resizable=0;points=[];" vertex="1" connectable="0" parent="c_AYpVPlN-h9lZ-HARwW-20">
          <mxGeometry x="-0.032" y="-1" relative="1" as="geometry">
            <mxPoint x="-36" y="-11" as="offset" />
          </mxGeometry>
        </mxCell>
        <mxCell id="c_AYpVPlN-h9lZ-HARwW-22" value="Client" style="shape=umlActor;verticalLabelPosition=bottom;verticalAlign=top;html=1;outlineConnect=0;" vertex="1" parent="c_AYpVPlN-h9lZ-HARwW-27">
          <mxGeometry y="158" width="30" height="60" as="geometry" />
        </mxCell>
        <mxCell id="c_AYpVPlN-h9lZ-HARwW-25" value="" style="verticalLabelPosition=bottom;html=1;verticalAlign=top;align=center;strokeColor=none;fillColor=#E6E6E6;shape=mxgraph.azure.laptop;pointerEvents=1;" vertex="1" parent="c_AYpVPlN-h9lZ-HARwW-27">
          <mxGeometry x="69" width="820" height="370" as="geometry" />
        </mxCell>
        <mxCell id="c_AYpVPlN-h9lZ-HARwW-26" value="Host" style="text;html=1;align=center;verticalAlign=middle;whiteSpace=wrap;rounded=0;strokeWidth=1;fontSize=19;" vertex="1" parent="c_AYpVPlN-h9lZ-HARwW-27">
          <mxGeometry x="449" y="25" width="60" height="30" as="geometry" />
        </mxCell>
        <mxCell id="c_AYpVPlN-h9lZ-HARwW-28" value="" style="group" vertex="1" connectable="0" parent="1">
          <mxGeometry x="22" y="654" width="889" height="372" as="geometry" />
        </mxCell>
        <mxCell id="c_AYpVPlN-h9lZ-HARwW-29" value="" style="group" vertex="1" connectable="0" parent="c_AYpVPlN-h9lZ-HARwW-28">
          <mxGeometry x="158" y="102" width="728" height="261" as="geometry" />
        </mxCell>
        <mxCell id="c_AYpVPlN-h9lZ-HARwW-49" value="" style="group" vertex="1" connectable="0" parent="c_AYpVPlN-h9lZ-HARwW-29">
          <mxGeometry y="-64" width="728" height="325" as="geometry" />
        </mxCell>
        <mxCell id="c_AYpVPlN-h9lZ-HARwW-30" value="" style="group;fillColor=default;" vertex="1" connectable="0" parent="c_AYpVPlN-h9lZ-HARwW-49">
          <mxGeometry x="119" width="511" height="256" as="geometry" />
        </mxCell>
        <mxCell id="c_AYpVPlN-h9lZ-HARwW-31" value="" style="ellipse;shape=cloud;whiteSpace=wrap;html=1;" vertex="1" parent="c_AYpVPlN-h9lZ-HARwW-30">
          <mxGeometry width="511" height="242" as="geometry" />
        </mxCell>
        <mxCell id="c_AYpVPlN-h9lZ-HARwW-48" value="" style="group" vertex="1" connectable="0" parent="c_AYpVPlN-h9lZ-HARwW-30">
          <mxGeometry x="88" y="48.58426966292135" width="273.22413793103453" height="98.41573033707866" as="geometry" />
        </mxCell>
        <mxCell id="c_AYpVPlN-h9lZ-HARwW-33" value="" style="shape=image;verticalLabelPosition=bottom;labelBackgroundColor=default;verticalAlign=top;aspect=fixed;imageAspect=0;image=data:image/png,iVBORw0KGgoAAAANSUhEUgAAAPYAAACQCAYAAAA7v5aPAAAMQGlDQ1BJQ0MgUHJvZmlsZQAASImVVwdYU8kWnluSkEBCCSAgJfQmCEgJICWEFkB6EWyEJEAoMQaCiB1dVHDtYgEbuiqi2AGxI3YWwd4XRRSUdbFgV96kgK77yvfm++bOf/85858z5869cwcA9VNcsTgH1QAgV5QviQ0JYIxNTmGQugEZUAANGANXLi9PzIqOjgCwDLZ/L+9uAkTWXnOQaf2z/78WTb4gjwcAEg1xGj+PlwvxIQDwSp5Ykg8AUcabT80XyzCsQFsCA4R4oQxnKHClDKcp8D65TXwsG+JmAFTUuFxJBgC0NsgzCngZUIPWB7GTiC8UAaDOgNg3N3cyH+JUiG2gjRhimT4z7QedjL9ppg1pcrkZQ1gxF3lRCRTmiXO40/7PdPzvkpsjHfRhBatapiQ0VjZnmLfb2ZPDZVgN4l5RWmQUxFoQfxDy5fYQo5RMaWiCwh415OWxYc6ALsROfG5gOMSGEAeLciIjlHxaujCYAzFcIWihMJ8TD7EexAsFeUFxSpvNksmxSl9oXbqEzVLyF7gSuV+Zr4fS7ASWUv91poCj1MdoRZnxSRBTILYoECZGQkyD2DEvOy5caTO6KJMdOWgjkcbK4reAOFYgCglQ6GMF6ZLgWKV9aW7e4HyxzZlCTqQSH8jPjA9V5Adr5nHl8cO5YG0CESthUEeQNzZicC58QWCQYu5Yt0CUEKfU+SDOD4hVjMUp4pxopT1uJsgJkfFmELvmFcQpx+KJ+XBBKvTxdHF+dLwiTrwoixsWrYgHXwYiABsEAgaQwpoGJoMsIGztre+Fd4qeYMAFEpABBMBByQyOSJL3iOA1DhSBPyESgLyhcQHyXgEogPzXIVZxdQDp8t4C+Yhs8BTiXBAOcuC9VD5KNOQtETyBjPAf3rmw8mC8ObDK+v89P8h+Z1iQiVAy0kGPDPVBS2IQMZAYSgwm2uIGuC/ujUfAqz+sLjgT9xycx3d7wlNCO+Ex4Qahg3BnkrBY8lOUY0AH1A9W5iLtx1zgVlDTDQ/AfaA6VMZ1cQPggLtCPyzcD3p2gyxbGbcsK4yftP82gx+ehtKO7ERGycPI/mSbn0fS7GhuQyqyXP+YH0WsaUP5Zg/1/Oyf/UP2+bAN/9kSW4gdxM5jp7GL2DGsHjCwk1gD1oIdl+Gh1fVEvroGvcXK48mGOsJ/+Bt8srJM5jnVOPU4fVH05QsKZd9owJ4sniYRZmTmM1hwRxAwOCKe4wiGi5OLKwCy/UXx+XoTI983EN2W79y8PwDwOTkwMHD0Oxd2EoD9HvD1P/Kds2HCrUMVgAtHeFJJgYLDZRcC/EqowzdNH+5d5sAGzscFuANv4A+CQBiIAvEgGUyE0WfCdS4BU8EMMBeUgDKwDKwG68EmsBXsBHvAAVAPjoHT4By4DNrADXAPrp4u8AL0gXfgM4IgJISK0BF9xASxROwRF4SJ+CJBSAQSiyQjqUgGIkKkyAxkHlKGrEDWI1uQamQ/cgQ5jVxE2pE7yCOkB3mNfEIxVA3VRo1QK3QkykRZaDgaj05AM9ApaBE6H12CrkWr0N1oHXoavYzeQDvQF2g/BjBVTBczxRwwJsbGorAULB2TYLOwUqwcq8JqsUb4nK9hHVgv9hEn4nScgTvAFRyKJ+A8fAo+C1+Mr8d34nV4M34Nf4T34d8IVIIhwZ7gReAQxhIyCFMJJYRywnbCYcJZ+C51Ed4RiURdojXRA76LycQs4nTiYuIG4l7iKWI7sZPYTyKR9En2JB9SFIlLyieVkNaRdpNOkq6SukgfVFRVTFRcVIJVUlREKsUq5Sq7VE6oXFV5pvKZrEG2JHuRo8h88jTyUvI2ciP5CrmL/JmiSbGm+FDiKVmUuZS1lFrKWcp9yhtVVVUzVU/VGFWh6hzVtar7VC+oPlL9qKalZqfGVhuvJlVborZD7ZTaHbU3VCrViupPTaHmU5dQq6lnqA+pH2h0miONQ+PTZtMqaHW0q7SX6mR1S3WW+kT1IvVy9YPqV9R7NcgaVhpsDa7GLI0KjSMatzT6NemazppRmrmaizV3aV7U7NYiaVlpBWnxteZrbdU6o9VJx+jmdDadR59H30Y/S+/SJmpba3O0s7TLtPdot2r36WjpuOok6hTqVOgc1+nQxXStdDm6ObpLdQ/o3tT9NMxoGGuYYNiiYbXDrg57rzdcz19PoFeqt1fvht4nfYZ+kH62/nL9ev0HBriBnUGMwVSDjQZnDXqHaw/3Hs4bXjr8wPC7hqihnWGs4XTDrYYthv1GxkYhRmKjdUZnjHqNdY39jbOMVxmfMO4xoZv4mghNVpmcNHnO0GGwGDmMtYxmRp+poWmoqdR0i2mr6Wcza7MEs2KzvWYPzCnmTPN081XmTeZ9FiYWYyxmWNRY3LUkWzItMy3XWJ63fG9lbZVktcCq3qrbWs+aY11kXWN934Zq42czxabK5rot0ZZpm227wbbNDrVzs8u0q7C7Yo/au9sL7TfYt48gjPAcIRpRNeKWg5oDy6HAocbhkaOuY4RjsWO948uRFiNTRi4feX7kNyc3pxynbU73nLWcw5yLnRudX7vYufBcKlyuj6KOCh41e1TDqFeu9q4C142ut93obmPcFrg1uX1193CXuNe693hYeKR6VHrcYmozo5mLmRc8CZ4BnrM9j3l+9HL3yvc64PWXt4N3tvcu7+7R1qMFo7eN7vQx8+H6bPHp8GX4pvpu9u3wM/Xj+lX5PfY39+f7b/d/xrJlZbF2s14GOAVIAg4HvGd7sWeyTwVigSGBpYGtQVpBCUHrgx4GmwVnBNcE94W4hUwPORVKCA0PXR56i2PE4XGqOX1hHmEzw5rD1cLjwteHP46wi5BENI5Bx4SNWTnmfqRlpCiyPgpEcaJWRj2Ito6eEn00hhgTHVMR8zTWOXZG7Pk4etykuF1x7+ID4pfG30uwSZAmNCWqJ45PrE58nxSYtCKpY+zIsTPHXk42SBYmN6SQUhJTtqf0jwsat3pc13i38SXjb06wnlA44eJEg4k5E49PUp/EnXQwlZCalLor9Qs3ilvF7U/jpFWm9fHYvDW8F3x//ip+j8BHsELwLN0nfUV6d4ZPxsqMnky/zPLMXiFbuF74Kis0a1PW++yo7B3ZAzlJOXtzVXJTc4+ItETZoubJxpMLJ7eL7cUl4o4pXlNWT+mThEu25yF5E/Ia8rXhj3yL1Eb6i/RRgW9BRcGHqYlTDxZqFooKW6bZTVs07VlRcNFv0/HpvOlNM0xnzJ3xaCZr5pZZyKy0WU2zzWfPn901J2TOzrmUudlzfy92Kl5R/HZe0rzG+Ubz58zv/CXkl5oSWomk5NYC7wWbFuILhQtbF41atG7Rt1J+6aUyp7Lysi+LeYsv/er869pfB5akL2ld6r504zLiMtGym8v9lu9cobmiaEXnyjEr61YxVpWuert60uqL5a7lm9ZQ1kjXdKyNWNuwzmLdsnVf1meuv1ERULG30rByUeX7DfwNVzf6b6zdZLSpbNOnzcLNt7eEbKmrsqoq30rcWrD16bbEbed/Y/5Wvd1ge9n2rztEOzp2xu5srvaort5luGtpDVojrenZPX53257APQ21DrVb9uruLdsH9kn3Pd+fuv/mgfADTQeZB2sPWR6qPEw/XFqH1E2r66vPrO9oSG5oPxJ2pKnRu/HwUcejO46ZHqs4rnN86QnKifknBk4Wnew/JT7VezrjdGfTpKZ7Z8aeud4c09x6NvzshXPB586cZ50/ecHnwrGLXhePXGJeqr/sfrmuxa3l8O9uvx9udW+tu+JxpaHNs62xfXT7iat+V09fC7x27jrn+uUbkTfabybcvH1r/K2O2/zb3Xdy7ry6W3D387059wn3Sx9oPCh/aPiw6g/bP/Z2uHccfxT4qOVx3ON7nbzOF0/ynnzpmv+U+rT8mcmz6m6X7mM9wT1tz8c973ohfvG5t+RPzT8rX9q8PPSX/18tfWP7ul5JXg28XvxG/82Ot65vm/qj+x++y333+X3pB/0POz8yP57/lPTp2eepX0hf1n61/dr4Lfzb/YHcgQExV8KV/wpgsKLp6QC83gEANRkAOjyfUcYpzn/ygijOrHIE/hNWnBHlxR2AWvj/HtML/25uAbBvGzx+QX318QBEUwGI9wToqFFDdfCsJj9XygoRngM2R35Ny00D/6Yozpw/xP1zC2SqruDn9l+Q6nx9NLQJ6AAAAIplWElmTU0AKgAAAAgABAEaAAUAAAABAAAAPgEbAAUAAAABAAAARgEoAAMAAAABAAIAAIdpAAQAAAABAAAATgAAAAAAAACQAAAAAQAAAJAAAAABAAOShgAHAAAAEgAAAHigAgAEAAAAAQAAAPagAwAEAAAAAQAAAJAAAAAAQVNDSUkAAABTY3JlZW5zaG90PYjlxgAAAAlwSFlzAAAWJQAAFiUBSVIk8AAAAdZpVFh0WE1MOmNvbS5hZG9iZS54bXAAAAAAADx4OnhtcG1ldGEgeG1sbnM6eD0iYWRvYmU6bnM6bWV0YS8iIHg6eG1wdGs9IlhNUCBDb3JlIDYuMC4wIj4KICAgPHJkZjpSREYgeG1sbnM6cmRmPSJodHRwOi8vd3d3LnczLm9yZy8xOTk5LzAyLzIyLXJkZi1zeW50YXgtbnMjIj4KICAgICAgPHJkZjpEZXNjcmlwdGlvbiByZGY6YWJvdXQ9IiIKICAgICAgICAgICAgeG1sbnM6ZXhpZj0iaHR0cDovL25zLmFkb2JlLmNvbS9leGlmLzEuMC8iPgogICAgICAgICA8ZXhpZjpQaXhlbFlEaW1lbnNpb24+MTQ0PC9leGlmOlBpeGVsWURpbWVuc2lvbj4KICAgICAgICAgPGV4aWY6UGl4ZWxYRGltZW5zaW9uPjI0NjwvZXhpZjpQaXhlbFhEaW1lbnNpb24+CiAgICAgICAgIDxleGlmOlVzZXJDb21tZW50PlNjcmVlbnNob3Q8L2V4aWY6VXNlckNvbW1lbnQ+CiAgICAgIDwvcmRmOkRlc2NyaXB0aW9uPgogICA8L3JkZjpSREY+CjwveDp4bXBtZXRhPgreyiB8AAAAHGlET1QAAAACAAAAAAAAAEgAAAAoAAAASAAAAEgAAC8t2lFL8AAALvlJREFUeAHsnfd3XEd25293o5EzSAJMYs4URTFJGoWxxmOfPWuf3R+8/6dnZnfWx7O2z3hmR4mimIMYQZAAQWQQoQF08ud76z2gATZAQgQFgNMFdL/X9Sreqm/dW7du1Uv84as/FUdGxq2psclyubzl83krWsI/Jpfw7/mvRLE4fz9/437J6Gdh3nv+JpGwBJ+VXFFplEs7jkT0RCLOI/ZcciW+p7PEu/RnIvmKNAhcLJSpgxJZUofwc0m9VIbSDHVfrl5rQROlvbRM7qev4DzrcvnHAXRdkkbpo0JJbUppS4sSrzTky/eL2lzNW5LW0tCLwvLwpfTLxC8tT2l6L8UtfRjdLxc3Dlo2jeLivpNIhP5WtKi/QI8CJS9QVn2SqaTXWGiyQt6qkqnQF9RH+Dj5VqC9U4GoSwktWsXRkt6f82A3a4cO7be6ujQYzlnit//2p+Lo6ITt2rmbzMjYs1OBQqsFMJW2oAq1UJGQbclzKjvviiX+856Vm7dJgaUAUV6v6sTlylMap3wzLnSucvHX0+9V45jKFgNjuXJ6Ly7pyiHc0v4cBaDPe3oAV8DOzOZtJgdG8NRgJmaYsrw11tVZlZIAP0UhX4B/yS3OwweFl8LIAwasdPhMZyZsZGTQTp8+bs3N9fgB7H/9/5eKmUzWjh87aVWpGsoSRqU4W89mcV5ls1mt55skWY4cr5v/T8n3TfJ73XKtWTgKW1ren9p+MThK0yot46uAURp2M9yXDl5Os+UqvkxlxOr0mZzJWU/fuPX0D1leaYirw0HbG+vs8P5d1tpUY2kySCoTz4hr7Ai/1Ct+VO6qwTdfyNnw8KDdvXfbTp06bA0N1QgHc5b4v//5TXGGwnx4+ixxkwRUaQTueESOSrBcRVdTkpLSlRXpS56vdFt8k14FMVZbZI+x2kgrVWC9nyEWLuuop8TQ0o6+bNh36IG6d+jiau2os3ORBOTtr36TSAXpB+KIE4tSLglDM4E4x3V8asYu33pq312/Z9NzWauurrIkQNve0Wy/+vS87drW5Fxb3alUuBUp3c/TVV6I9LFgvKS/uzQVsidWwYbh1lev/WBnz54A2FX45QXsrwF23s58eIZCJwC2ssCRmP4WXMh24XfpXRyp1G/l+6WVWjn04qdv2um8ViLMa7g3zes1svj5g4gdL1d/tTsECh335y/a286xtEfHeb1MCtEn+LoEG/+EzQZvXfVcwIYJQjABO8/t6PSsfXfjiX199a5lckWkYJLKzlhXW4P99y9/YXu7mq2aQqj/h364MJDot/yLCQR60iyIySpsXFC/i8pAxwzttBjYjY1pypa1xO//+HVxFo599uw5PBKWC/IDqcXAXkh2Pv1NeAOJFrl3o1aLqvT6P1wqU/ClVFjoSMU3GXlfvyQbMGQEtKjDAF0GuQAm594AWrSJgZ2QQiwCdoHbkekZ+/b6E/vLtfsAOwA0Nztpe7a02P/89Sf23rZmS1PrZCC1DyCk7oAOk2C81DI0TSEeXJa0k54Lq4uAffWSnTv/vnPsCNhfOcc+d/YCgREnHNhKOUlySxse/7fgVNDl3FqVIM5D19Wmudrwy9Vlw/i7jKdalX5EGT54qaP9dQM7kEKAjoGt1YEY2KKTA1vMTzopAZsoeWg3CrAvIop/df2BTWURiXleyE7bno5G+8cvP7Y9i4AtQCsXkgik5y4Gtjh2GBjcs+TLW2oJsK8A7PMAWxy7UJgNHHsmk7dz5867TO/s3+fYSklZxq4k59hrja4qaDlXmnu556v1Wy6fldJZ6zKslNfP9Uw8SJ2moM6BvjZuZnVcLeF4xyXMX5OLmCOkCPWOASvhJg+dxD19qZSrFF+BSrryg3+FK3Cdyubsx54Ru/qg1+ZYHlO8VCFrW5n7fn7miHU21QeOHacQZwyxS4UksiRxEhVbXuqUuTeankkUH7IrVy7a+QunSoGN8iyTA+0XDOUdDU5RGWU0Iqmhg4urEf1cw4tXYJn0PHevxDIBVuG9Uj6vSqaU4K8Kuxmea1qYB9gzM7PMEVOWrqr2NlfPUpOL7kHU3Ay1efMyqm+U4IsfIkLC5lA4vZiaRtM9a0yXAx54Vl9Xw9w5ZTOzWZsDyDE60tVpq66rt+cvMnavd9iyKNuEoSr4eUsKPdaRndZaU21VwpaDlqvHDnUo7Wcr9dcEDxVTf1pDHwHYlwH2hfOnrMHn2GjFf//HpcAOFdD62CJgl+aqcjjg1AX+GtzbqucajVqrbAJJj2rfkZER2jjJKN8IuKV0ISE6orf7+hRtlTVZffDlAON1jx4KNBKtxxCrHz7pt6cDgzaHfhhEwK1Ttm1Lh9XV1trg8KhNTE6FQZAEWluabfv2LhufmbNbj/tsljjSpKcTOdtSk4RjH4Jz18GxBWyVXRgLddBlKcTCE30vbYw3BvZC0gu5xplQlOWoVBJtudtXQSXOZbn4r+v/qnxeJx01NGR/naCrDLP61YRVZlA+uHoQmtf+/j63Umpra8NiqYH2RCxnGqZ55bvqyvUrtayUUXJqa4WZ4zM4PmWXbz+yO4+fWgbdU55piyScvbt3YqnZaD1Pehkcxx3YslbctqXNDh/caxMA++KtuzYLm9fSrETxXS219j/+5pzt6miyGrKS8ky5hU+sTCvXx+IwHkGRojKWcuzBiGN/8Boc28enpRmReDyseD5Ln3u+r/X1qpgL1Xit5JYN9Kp8lo1Y8iAAu8RjzW7XqparKZDaMMd8MGdPex/Z1PSEdXRstfbWbXTaOnoN666LBuz1KONq6vPTwgoW7kQOsU3qLK6toVY1zuLVPz5pF288spuPntgULDyfSDuwD+57z1qaGu1R91MbGh7z6Ws+n7XtAPvk0YM2NTtr31y9bZksqTEh1zr27tY6+19/f8GBXU36Gjq9BGQaFGiUKCK15usJt2BRIAYHKdEEZ48QBp7QJ3UvyWsgAPuCgF1NeFeeLRbFZermc2zSfNkp5yj3lx9WfDYABeJmD0XxnsAtvjSbt1wCU8TkLPPHSXvUc8cGhvpta8d2e2/XIauvbcdKqppOx9xQETxmkCrepVYXVTRP9X7u2AswF6C0KKRxLQb2dzce2vVHvTYl/RPAxgDcju4PwO7u6YN+Y5bD4CeXxQhla7udAtgZ5t7fCthzorUxx84B7Fr7p787Zzvbmlx55mXgy0ENrVOaH1EA0XkGbXoevyoWwdNV0ncBbD4pkK1BSAq50CoxsMWxv7ULF04Hjl2I5tgZlGcXpDyjVkU+ywNbTS33LjVzqNG78h2ALSjHjg7DD3VaacKT6RxzvzEbGe+z7qe37Vn/U7h1px05+KFtbd9LB2pASq/iqmjiC+pCocN5ip4wD52rL+QS57Zhryqq1ykqoVTYTiWuqkv0kyA+v3ZR/MW0Xbnbw3z5GaI4826ALWwc3LPdmurr7OmzQRsee2FZielonrvamu3Y/j0O7Mu3HtgMyrcC5E9jMLIDU9J/+OID62ptAOhkpyyVJyCVWF6lH1yztFH/yISNvZh03Ud7W73Vy3pN4dQeIZi3J7GVABxbwP4OYEsrjkmpgP1/pDzDQOXCuVJgx90jRK18bx4KqK/oIydY6pdgqb+CZc1SMzYw9sAe992i8/TbEJ2iJt1kRw6csX27T1l9egvARkvuXFuxF5ufOsSVrBDg6eu6sZ2PQRQxFnVVWhggLolonbRZOGsWEHo4gCiunQNBmlc/GXxh3c+GmXOzwUPApuI7t7VZLWAbGhlzE9ICYC8Qvx3F2N7tW21mbs7uPOpnIACKfJIAuwP5+8KJXdZAPJDnpPOBk7zS7AKrSVe599jULPP6B/awp9daW1tol722d0ebNdakLQW4Y2Ry62lo9WJkdMCuXEYrLmBjK14sIopXgK0GfndcECrDt9pehhUyUWSixzVjAyPd1t131fqHH1giNYdWd8LmZsy6thy2Ywcu2I5thyydbATcdGLkyDA0CAX0eE9NtIp6lW43gYuBraIGcEu8DbJIAQAPDI1DlzGmJ6IRQxniTRVa7/qmFnsxk7UnAyMsdwHIpCSZIrRqZtpSTRy04tMZhj6ATZw2gL27s8NmZ+fs3uPnDKPsvSB8NWm2svPjyJ5tNjk+ZplpNOnQUn+1ALqzvc22bW1jXs1A0j9u//7tVbt1vxuQNtiJQ/vsw6P7GTBarE72qeTjbcKXrhqhArCDKN7YoNWNCscWad4hJ0ALgAHYAnXB59Rzli1O0Qn77da9b+35yF064wtLpQsozzI2NZG1mqoOOMMpwH3eOjv2wp/Y/pcD2HRKATxZyu7IQdDedA4khHKLRoCOby1j3biLgux+j42zvJUDOPo0Nzfbzl27oJvZnQdPbJabqnSt0+HArm1oxWutu7ffBkbHPYymOV3trXZk73s2PTNjV27fd624JargtAXrbK5jbr7bent7rf/5gGVzWv8uWAuDwcnD++3ksf2Wri5QjkH7f99eZocYklR1rTXX19iZw3vso1MHbefWMD+X6J5yVIv5520Mjn358rf28UenrR5DmHx+psKxN13nXLHAAdiu5SVcno5TTGbhHBM2NNbDVsJb1jtwG7FzxEXyRBJgZ2ZsejJrhdlqa6nfZQf3nqEDnrGOll0AG2URk0StxYpTlIJ7UwJbtAMQaBoAlcRks1m8vr/xwK7ceeQbOHJ4ZjlwREuA+/ftdTH9xo/dXFFgoThLMVAeO7DbWpob7D7LYP1oxeekPIPb79jaYaeOHGCOPWffXQnKM617FwDxzi2tduLwPuvu6bHeZ/0YtiAdEK+jpcHOs93yw5P7oHMeMbzf/vDNFRvijIQ0A0mqmLd9XW32MWGO7e8E6Bi4UGbt6xa4lcbI8JBduw7HZndXPRybXScVYEOjd8gFYKtCEgGLLGllixM2PPkE8fu69Q7eRtwcpkegGkogKNIzpqYyAHvGQVydbLP2pvds/+4P7OiBcwB9m7GKQ4dDLJc0jqMvufO59ibi2wvlBtia+wJsKbZmqNc31+7ZD3e6bQyxW8DOMV/uQDzev3cfnDpv12895CpjEgY5uO9xOGhLS6Pd6+6x50MjLsLnUJ7t2LYFrfhhy2CpdvHaTa455vBpy7F9c3dXhwP7Uc8TlhkBNmCHtdoWDkb46IODdubUPuias4vX++w/vr1uY7RJqorzEZAE2uqr7NDubXZgd6e1YZKqeXpTXbU1NdTA1ROI9+N29cpXdv7ccZR6qlsF2FE3fXcuYUVDQl4eTjJtoxNPrbv/uj0bvmPTuQEk0AwfzSUDUqcmp22GrYaGJjxZ4IQPa7YtLfvt+KGPAPhx5oAtYb4NEEBEBGzBWjx78/DteWBzI45dkB03goiWsS6KY997bKOZOaDFHBulWVtLK4You52z3vgRYGNGlkpBI6Ykh/btBNhN9ggDlYHRUUR3qA3n7MIi7fjBfZjqztml63Bslr0E7Czr2ru7trDysNceP3mKNp35NwOGtGUdTbV2/v2DdhZgJxiIv7/+jDn2NYCdtarqOskVvlzWAqdubqi1unQKRVqVdTAgdLLHe1t7E4MNFnL3rtkvLgDsBuqVryjPNj+i47kvnEaipZzm1flihjnjczj1DTj1DZvM9iOWZwgDtxZGBU24+jS20A5sNhOjm7VEvtaqU+0YWxy2I/s/tD07jjL/bsYfxREzb4XyjSKSCBzYmwTc0EmDHkgLWm8RC2CLY9/tGbJ7T4dsgiON2I/lirDG+nrrYl1aux0fP+13UTwJsCX+7uxsx1681pVnY1OTLh1Jedbe3GjvdXU6sB88waTU59Hkl83attYm27Wj0/oGhmyEJTLfbAX3b8Pu/PDeTtv/XhtTpJxduvnc/u1rgD2VRQdSS2vSrohNsu/XoJJANK/GeKWZs83aWdrqYjlsa0vaMpP99rdfnLGmWgpYmWM7Djb3lwNb4NJCCH/8ZqUa66dh6xu8C7CvYPPcwyEAEz7fLohTuyhKHDpjJpNBSzuLKC61G+DVUlexDs7QAbgPopX9CBHzAJpdNOXFajo2PQxQB24dXzc+CX0QEqgp//gkCkO4ahGg5pg3j0zMMl2ZZX1fxh9wPOhSA2dsQrGlsWt8Ygp/adEliqNYQ6GVZpI7lZnFugz9hKiBf106ba2NDT5HHyWOlHOikOhcl06icGtgU8mML4fJO4F/LQYo7U111txYQ5vN2Y17vcz5H9qLaWSHqlriw7MZAMInzMtTtGGadq6vKmDwUmsHdrUibY3Zrz8/i4guS7cKxxZ9N5mL2HLoMg7kqPtQD0TwZI6D9Mbt+egjX9YaGL3Hmixmjyx15ekQztUd2HQset0sHTyDNjjPHDKJrXhC9uJFTCetzmpTbbZ35yk7cfCCbW3b65py1EcMIfqLQe1dd0PTMC6pQJ1BBL6PxdjjZ5xJxvJVgc8MXHkOUOeomwAsE05ZdKZhz6K2n1FAXHHzIvNvgUrPZUziugz5g25ZhqVdIijCrYE1g4Zv9ySNJJy2qqrKQR8WrAKwJWrrDLQUu8Uycznrw5JtYGSK+HiqfKSt7aKaXBVJo8gZZwnE/jRt2VafskM72+3we+02Pd5rn3100lrqGHwKFa34hu6QLxdO3UwfOfEJMCh00uz+jQieM82r++xR3zV7igg+w7w6Wa1th3PeCZFHCas06AD85ehMAnZ2lg5DImG5DHDnATBz7qba7XZozxkUP5/AqTrp+uLoiquwMWT4sWFdKKXWq/WZYN57kfPILt95CLdmaYhPFlDn0V7rLFGYqANbSBWcnLby02CoDwESKL0EbLWAgBcEGDwUTtwVf/APgUiXh0nljZidEkAZDCQxeSCCRBkqsC+zSUmXZ3AtorBUGn6+H8EZUUibJTI+VTRUK4qz/dvb7eT+HdbZmrYnj27YR6cPWxvbNq2QqWjFRdvN5QQpOXUfNbwL4OBU5g4YnMwMss3wDtZSV210qpt1kWlEOs252fjh7Fqx1FOAtcRLGMsMwJ5BDNTSiYPbOzDAzsvaqYG11t125sSXtm/XSaurbgXw4uhKQS6Uw2835FcYyFwLznglYP/l8l379sZ9y6drADTiuOgAqIPYS43EfvlIA84PB7AMWsIhmkK04Bxq7hxedNWHFARyieWiiri17rX8KNoK4P7MSaY4CitOHMJ7Hp5yFckl/Zx/EVphtBQGw8fiLQl462wP8/zD7zE33057ZDN2+wYmpQJ2cw0RKqL4huyKKxVK3Sd23nn4oQ2FAm+2MGG9Q3ftYe8VthzeA+ZarwawoJUuiiM2nUscl77kwCaAzaINzkxPc9AGKmJC+rIOYYuojVNFFDi5eoxXTrNG+2mwTEvUexqBb3vCG/iLeqguAi+idQD2ffv65n3LpesQxauRckQPUVbackDmwAVwsMx50CkNBeFLfgGUId0gAblX5K+WCaD2sCqB4gTfENDTEbWVhz481ICqTLT2jUeB7Z7i1DVowVuYg2vNeyufrvZGTjtttR0dDdaMsmxybMKu/vCVfcRyV0vzK9exVYtyLhSw3JOK39unwEKr0KnILk/Di1sXU1nslvvswdNL1jNwzabzA/gBVu0sVocRqKOPAKkO5Lu46ERSnjmwUQSp14F9DyuO7gq1fB2a2C12dN9HdvLIJ4iBXQwHMjkN822F3rhOdIo+VGySOn5zvdv+fI390skawF4Dx9axwpqYAH4AFYDLUAjABTjnp05D7vVbHzFzwvMVrlHD6JkC+ICA2O7cX2IQfqHFRHulGOI6gKPwAjS33kyBS+eYsxdYduy0Y/u6bAemrC31WKPVso4NoFGMu5zxgj3hP1z6C/s9TlpTk45xWNakVGLJcs5LvtzDiv9bpkDUf8hFYIWZSpmCdnQ2P86y1o/2oO8iGl7ETLTg+cQswEYE1NxOnEBdy8GqmDITZfkKUVTAnmLZK88xP95Nnatz690PARVteGGu1rY2H7DTx39FR3ufTsUSmHaBkc5Gd95jpe2mXjOIxJd/7LM/Xr5tE5Q/B7hjYEusKQixOKeWUBYR3Oe70MOBBw0FSDWAAzSO4PSNQO1cmACatCthd7oP8PbozO39qQ8A3PngAaf2UUOW5lnsyBvtVxdO2geHOgA1EhRJMaNAkiI4H2plL8bGAPZXnFt4whqb2ATykoEK7ao0fU4QSlLmW0XRp+LWgwKhn0UgpQDYlgFshG4MUR4+vWxPhq5zKMAzOBHWZMzL1PrwHUJqsiaeFJzbf7uJJGug2ItPcsSP3t2mzqL2j7ofvzWfpCvlZMrYavt2nrUPT/wShc0efINIHiW5oS9huSqcjHKr+7n94eING50BAuLaCb09Iwx64qVCLySIQBmqJQrqmXNbn8oonP/P19vDEDeECdfA9XmiZUZcPBBqgA08XPnyQB/yVFsVGKyLrEW3NKTsLBtAvjyzhwMa6hzMjNNhKCV80HMUsBXnzDNsxc/CsRvh2IWXTEoXATseZVScitswFFCDAkh1hpze0ZTO+/7qR73XmFtfxiyyBy6EAUSSubW6SYRk9Rs5idd+pVvoTwcZSnk2/uIFHDsoeDwAvSyAG2ATOcESmGG80li9y04d/gK75fMYSXT6PFyd1YEgroCTEiq4jdOHpIwuIrlont09OGn/8hVTlqFJm0uyVixwuziOZKP5NRUWlVyMpu4BhKKg6B4oGV/VEPKJwewRRTn5l3xED6eRnkVz9wDNME0KUwBm3AI1c+tqDj88e3SPff7hYTvQWWf1FEjr3m6kwr1y9WGaPEZGw9FI4fhhlsgqwBa5N49TZ/MOB3DEgTR/TqSzNjL5lP2/X1vfyG2bKQ6zUiULMzqIEIkL337LF90BjqNOoTm2DjGcgWO/eDHOKSCokbz3xTkpdACnkkqxtm3ZJnYZnbQzx75ki+JR1nrryUDSgMLG+W1MYMtGPA+4Bybm7D8uXbfbPf3QC26dANjIIzJOCctRAhBVojr66MsvEp3dQ14RV1cYDxKADBGcxvKVoUsMbvdVmvgFq7NAYw0akpAC6pk45WTeO2vHWcb68uxxO7arwRowhkkxGKhMcXtofFYbqjgVYIu6m9iFrqARHuapbyZc2eK4PXl+y358/A27k7otl8JKStwaMXwtgC3hUPn6q2y0tg3Xrq/qshMHPrPjBz7C0qqL51o7Vajg4juVc6M4AUAcW0YqE0gm391+apdYyx7CJptNq1RQSicGTLF2cWzAJhAKeHIOaKWxArDj+bkgR8gAYO48Ta7Crws1no6GQYUTsPWM8JyNlsaOf9e2Fvv89FE7tb/V2mpTHFfMc5SkArbC+2DhsSvAFkU2vdMIHW/yyDsLncP08Jnd67nERo/LlikMIGrOgrEsoJYYTo/Ahe9QfT/ry0XlwLGrEcWlEV+OYwvYcsG4gjiYnCbzDXS+U/bB0S+wjT6KwQQnnLI05v2OsPG1NF9PZJ2+BByVSpZjwMPQPtj9vglfy370bJSTUhgsWfbSWrbAGYITdl5kJrrAJbC/AtjRY6+pAxAPv0rEB5kCdgjDvZLVOEI7kTM0zmPG22jnT+y3Dw91+ksGdPChnvmauqe60J4LHFvnin8fvQlEdZBWXG/b5E0g53l3lysQPCNlGho0SqtyWXcKqLuFj9Y+pUmRgqyPrZh3H39nA+M/ogjiKFz2X/vhCrTgisCWCEgnr8FIIwD7BcozrejGzrt3lCcMjU6tcUJxxLWbanbBsT9l7/YFt0gznbiiPw/jXZYSxGnEaa7jlfILsrIn00GFQxw7eulWt1279xRDnhwiOpZebvFFHXwVQZx2iSgtmqoKQmZUNd0uArDCeKAQLoBZ3JuBlgcxlyZpfuMnwxW4cT2cWZz6/cO77dTBbdbVXG013sySHhSLH4oTZ+x3GmgkipcCW1MKGahUgL2OvW01WasnacBVE6PlZIkrm3jBETwXUZpdshezvQCdI3eYW7vRAyFfD9ji2JpjC9haYikFY8hTpdSdz8zVaVGkVRXZ1rj9Q/Yff8H66iGe1QFquDbPvRNSigUlmlJYZxcBW2WSGTYKcQbEUfZhP7bu53DtLGI4S39iZ25N5txZ4AtAFeX15+iKqiJQlYJa3h5KwXTHlWT8Gv9WeHnqTSwF6K0NHdpUsmcH+7UP7LCje9ptG0tWtYywKZrZLdRFVOXt0wK1hKcGnWNgS3kWc2wBu8KxnUib5ytARuC1Ks5FmX1u1+//mY0Dt222OMTcOjPPrb3xvUN4l/AqepeIOLU6SeDY5YAdOk+gS7hX6JAcQwvnfyVydVhBHcQa7Zd24L0z7FJqQUwX15ZzeNAVF/h/SGv9vmUOqkFRZdLL83TIwuCLrN18OAANe+3Z6DSWe4BbKw4eLoAmAFf1kRPAgisFtXwcsLrqz4PF1xB+4Rt/uLTOIecMQ6zJ6jlEAQOUvdtt3/YmP1RBLxRIwdJ1pFI4tSbkG74DTZXPYmDz7i5/KZ+ArYMWKhx7geYb/E4NKz5oiNt5rMoGx7vt6r0/oRXvDgYpmj1q7TpySzm2gy4CdFj2kiheCuxYFFdIDx0nRQejw9PZNLTIGq2YrbGGmk47vOcjtnb+gq2Hu+iMKKG8u6kMoevNJ7CeN/OgViHEA6Ej1dNe7L6RGYDdb3ce99vwBJthIG/Y8BEBPCBY1fEaqX7zwJWoPl8v7uMwHiD8Dtp13euhPqIfZqLVKY57brJD2Hsf45DDXVsbrYltXlKU6TRShhjm1mGIidsx5thi3ARzSivJ8lrxCrDnm2Zj34jbSPMBtJlbz9mo9Ty/bbe6v4FzP8MPbo1vqW4k7hDqBHIO1RJgi2NXvzawUTBFnVPWajoPTaet7N72Plz780VKNHXKGAae8Xp/SR4WIL1UDE3QQMAW50a9ZE+HpqDjgD3sG7Ih3v6hrZ1SshWppysriRiqTgugVVdCgZNHlPWLWscz4Jlm84CSSBoIxaEVPoXIo1NJWzkIcTtHGO/bxQGSXa2cNc46NRs8ZFWGBSmDqMAvbq1BRLTEqQpCdHRRXu7FTZhjVzi2E2dzfUUNSmfRq3kKgHhyro/XtUobfhXOM4LSTNpwWRgt1KwcsGNOHWvHFwM7nmO74L2Q0JI730SiE1UK9ZzZtR+Dlc/tyL6ziONtGF/olBWcOmQo9pLY6/FTBYloyCXwQWnIg0iu1/f0jfCGTE5RedQ7wF72cXbJ5TAAErjFNzWoaUAAdNoj7XUjIVeIkZ6jPqoX974WjkJMonRC2yxh22EjB6eytLVwAkuL7WHLZSennzQhd0vOkYmo6Oa0A9ilWvAo5fmL8K1mVo2U98joMHPsCrDnCbQ5btR8wQWODbCrpmxw4j7zw695v9RdVGnhdBQXw6NRXTGWA7aAqW6xmGMvNlDR0+Wcx2eeXcTMtLG6C834xyx9fYYl2nbYIOeCKaI6+/JJLJf0W/JXQeLCiOtyDw3EC6VIizn3AK+/ffJcdgHD9oyNFaOcqjLNWWc6jlg8VABPMDF2AxPixoDWFMWRplwEeoEaj2qs3HTwYDtv/9jC4f9dW1tse3uzbeV1P62Yi9ZgqcumPCQfxdNwoxulq5IJuuVdBdjl6bKJfNXU3txcBWt1MM2vp+zx4GWA/Rcbn+1D4TNNZ53jWTyOR1UsozxzTv3GwBbsgzieNkRKtnSeOfk3HK53AKSwh5un6vRuUbUhqB1LIKKPqBgGNtdO4yO65eGqml9PAmTNtZ8Nv0ApOcFbUybZNZfhfVq8TxzLPB1N7BptrUvHZOYuBWevAsjVWInplTxN7MJqbRSHbrIOzjvTR2BuEIcG0L6JA1CH1/uEcoWyxd/LE+5lYOvF99/buYrybHmibawnpcAODY5lOMtc43b36VdubTZdGOIFmTMuhqt7gPCFKrxVYANfnY+Wa7DtHUfs7Pu/YsnmffxqgA3AoRxhVrtQnPW7C3QM5XEqReAO5PL1atmRU2JxbyY0zLOLNp7hLRs6D433aI1xmuvYxLS/+WOWrZ85tNoir+bBac5Oq61GeuFI4BaOB27jTZwdnGKqU0U5hNSPWEJXxoAXfRQvutc7ueJyaYAR88djRfcysAcjYOvdXbFWvPTdXZqiaWqkSTvVrLj1pkDokKEUahNeAcBWTC1t/XDnX9nMcNU3fBTZ3aXjhr3LOjcmBlHFm+RK+0nMsV3UJmw1HTKsY69GFFdsxFKdpMJe7bbGPb6erSOLU8UmWCDcS+d9wdXEDzeiK6WJyufzaOokpZqXmqtADqN2Tp4FcX5Ks8LiF8RxYoEVnXUGs4ZjGxxbH4E9cGX5u3ROfN27rECzcOtOyrUAbPksQDx6XPZSHtgX4dgCdmV3V1mibSzP0NihTNyjHBPHnsz1A+zfW+/ITbcNL2LJEIxSCBlzbIK/PWCLUwnYWvZKowDazgsGPrEPjn1hjbVbmWKG00w3PrDjgU90Fr0ELM2lA8AWgVwBQjAncSQMuVfkPX/vzwC/5tlaq44HN6Uq1QMXnGLFUk0oh3zlFv8KfqXfFWCXUmNT3ofGD0XnXhpxgD02+8Qu3vqdPZ+4iyKNwxSwDY87jzpL3G/eJrCVi1uaoUCrTXWwT/uMnT75t7xs4D1YXbBwFkQWyrWeDRCDaKEMpRKpnsZw0mEMDrpIDxGDCJw6J9djAdeDKZocv0XrKKZ7eBhQHIDtoYivUKJJnIfLTSEB9w/hXvUdl0mpqB4jI5pjVzj2q+i2gZ4v6ir0B4CNKD4y9dC+uflb3lzxEGBz+qiWubzbqehvH9iei+aG9DAdeFiTaLNdnafs9IlfcT3qa9wsrDvviwGjOOvnBCDRcsGVAjv4Cq0L8FTdAgCpgfsrVEhDoJ1Pzu8DXMWOPVaE+oUUSINnrtz0JEI6noho6KBWQkqXq+cdfpb71uO4CGG5S3PsCrDL0WoD+4Xu4WO979iasecscX19858RyWUfzvx6vYBNl9QbQmSosq31MG+N/KW/80unrSR1MMP8YLMRyBuDKS5LBKT4Z3yNg/lj/YjCuX/08KWoeJQE9fs4vfhaGidKxh85iEsfxhGWv74M7HJa8YrybHkKbpgn0ZgOgPOWsf7RHx3Y08X+CNjakChhUe5n5NjkJbvxJIYqbQ377OShz+3UsU9RqHFkEoq1jQVsJ8478bUY2LI8iw1UpDyLt21WgL0JGjuAVfusc8VpPynlm1v/zGx7gDXtsPdaIApMI2IHXCIB0f3jSq6FVlxpSWKUECljlWQh3sb5mZ079SWacV4HhIge5x/nXbmuDQUWgE2/oB3Kb9usAHttqP1WU4mAjXHKnM4OH7ll3wLsudQwxik6AglurY+ci3ZcfwZgK7ukA7vG6tNdvPT9F/bJ2b/nPJXmMM9WgIpbcwqsAtg6aOG8vxWiso695u2wBgnGwJ7DLvwFmxZu2sU7v7FsahSOHYA9L4q/MbB9fca58YoFn+fYrGgjdtdVbeXNFJ/w/qh/ANgt7DXGljwuy4oJVR6ulgKvB+zK7q7V0nUdwgdg6/DCAOwb9v2Pv+PEFB1cGA4tXBtg61ytGNivqqZEAkDNJ4FBSm0SYO/52D7/+B8Bditr2Vhq6Nnq9EKvyrTyHApUgP3OdIOYY2exOoNjD9+AY//W5hK8MZJjarUc8+bA5gQVP6V0NcBmfj0P7C0O7M8+hmMnWljLZs+SZghqgwq417QnVoC9puRcz8QiYKM8m7NJ6wXY393+DcqzwTUAts48y3Cu+Piic8UdkCtWWRw7BjaieGorWzc/sU/P/zfWr5sRzyvAXpF8b/CwAuw3IN7GiroA7JxN2VNMSb+79RvOS5FWPJ5jR2zRL4BOuItY5TxIeRZrsnUVMKurBeyZJaeURpx2JSKod5GGv1MbDXh99TZeIvCZfXz27wA1WnFtEBE3VxoVjr0SJVf9rALsVZNso0YIwC7CsfOJaXs2dgeO/TubyPUBbC13yfJM6JFIHgDrNVkywQ0/CSFO6yeBsPkyxZtAZmZtYuKFZdm15KeRehoro1HLLL4RJNKKt9Tt5Iikz3nd7heAGmDzls75PcYrJ7VRib5hy1UB9oZtmtUWbIFj5+HYg5MP4di/w2a8B2BjecYZaCFE4MjixO7KADtwUZ03qjBrA+yqYp21N+51AxXt8Eqyw0uacuVScWtPgQqw156m65RizLGxFU/O2Mj0Y/v+zv/mLRYP2LbJWzJZyw4cW/wawMYc8q0CW9IB9uDYhKeK9bykL5xYenDvGfwa+UgUR3sWl2WdKPcuZlsB9jvTqiXAhkOPZ57a5bv/Yn2jYdumOHbAz6uB7Tx9iSieycy4KO5acU4S0V/YX7g8AZWf3v2VZOtmFW/d3N5xzE7zPq89208A6gZArfdnR0YzyydTefITKPB6wHbLs4qByk+g788YJQK2DlPgvVxTOc7CfvTv9qj/Ekte424vHhRlkYgdc8mIY+tnrMRy2JYBtl4YkNebQKJtix41jlSmptpVlOIwBSnJqhPNtqfrA+bXv7YujkfSCaZsOwP4cUHKJFDx+skUWAWwc3bh3AUaloFaa4807svb2n5yOSoR35gCMbDZ+OdLXqN2+8mf7ccn39g07+syP0FF3HF5YKsIwmlsK16qPBPHfhnYjmoilOe6Bb2ahnO+Euy9rq/q8DXsMyd/zbleO1g2QzxPAG4O9atgW5RfW1cB9trScx1TCyBzrszB0zrz7OHzi3az+88cZvgEYHPmGQgKu4EjxZmXdjHHXEtgh7OzOf+HLZrNtdvtfe3sOvpLjiDuANi8UoB3YVVE8bfTZSrAfjt0XYdUY2DDQDneMp9gI8jYTbv56M/2/MWPHGY4DbD1J+fwjcq4OmD7u7t05JH+1HvkluHYfgqptO+cebalaa/Pr4/u48wz48wzzhbXqZ1BzgjJVL7XjgIVYK8dLTdASgCN/yQn4uUTkzac6eaU0q+te+AyHHzMD1soz7UXiu6QB+usYgPcsNyVSvHi+8zswkv5XgnsMFg4sJlHp1iz3r7lmJ3jWKQ9208B6lq05GwAIY/KfuwF2q/lXQXYa0nNjZAWug/ZlRQwUpkqDPIWkCt25/FXKNM4cIEjk/xAQ9ePCFTlnZRi8FPmvsCcTwC2tOITS5RnGgZwL3HsAGxXrrFWXZNo51zxs3aO44e3tO7ncEMOMnRQK375+bmnW/n6yRSoAPsnk26DRnSsodbkdT7Z5ARHJN3jhXL/yUv5HrlFmr8XG8SFkzbL1+H1gC3hIAL2omQE6jCTT+h1lSjOmmp32HFMSU/xJpD66k78pA2XOK+QFWAvIt8a/agAe40IuWGSAS1ajcrx/mNLz6I467UbD/5kfcO3bDY/CuB1/hmAUssv4/RE688rc2yX+kMKLrJHiQU2HUCfJxUMU7rajgDqL+3g7tN+9hkT/gBrlsMqwF6mEd7QexXArqxjvyGtf57oEsVBZjY/a4nqIls4h+1+Ly++7/vBxqaeulUa1iEAStyyvHsZ2FU+x14sipcB9vxYAcemZxV46VVDeguvgb3AIYaf27a2fSx9YR+u9WvCag5eAXb5NnhT39cDduWghTel888aX/jSUUg53oOdT6FEw6z0/pNLnKpyy+byY5z6qzeC+EG3y5ZrgWMLwCnTOvb0NKapGDK8tAkk4tiybQj2DQwZEgtY5trWtt/eB9QHd5+xunSHr2nr3dnShhdZw15ucFm2YJUHr0WBCrBfi0ybK5AOVFDDYvoBsHlZHK/7efL8BuD+3sane7Ebn+G5QFUeVpKmZViiRLRDS2K7dndpT/ZKwI6pJHAXePdNTaqNo5DOAuzPeHvkfkxL6+DW2vgR5tdSnJUvQZxS5fpTKVAB9k+l3AaO5xyb8qlxc4A4n5rgBQI9Duy+wTu8yB2ujXWaH3BYph4xsKUcyzM66B1Us7McuQTXXgRscWVB0+fVGgAEU/zg4Ak2eHS2HcAo5VM7wNxa551JkSZJQMtoiilXEcUDHdb6uwLstaboBkgvgpsDW6/2ybO7a6Y4ar2Dt1wkH53kJQKJDM+xDwaU5bimAxD4FfJAD8X17AzAnsF6DVHcRW4H8OKYvm4NdPWGj3SyCRPS82zT/IVtbdlnVWzT1IsDwnlpKmEM7YpW/G10mdcB9n8BAAD//xQN+joAACwVSURBVO1dB2AWVdY96aGEGnrvoDTpdkVRpNn7Yl137YqgICo2XJSi+6+uFVFAQASVZkcUsCIgClhAepGeENLrf8593yRfYgjBjRBgBvLNzJvX5553y7vvTcic+d/kpKZkoXPHTsjOCkFONhASwjN44R+luAdCkB2ShUykIiQyFfHJm7F2y4/YtH0lktJ3AqHpfJ7N96h/IdaOHP7qKiSHVzmhvA5FZkY2UlNSkJ6Wjhy+fIvJnxzF8Q5eh+SE8Fk4z1GoVrkR2rU8HQ1rt0WZ8MoIyYpCSHYYQkNClbuXimefhoI6o8Qu+Sr4TtXTxCkv9sTtwvfLFqNz5zYoXz4c2TlpCPGBXWL9fUgzEigF2cyQdIRGZCAtZy+2x63B2s1LsS1uNTKy9yEnLIsvmbECWHPEIGDrT2QRhoy0LKQkJyMjQ8AmgPlQ/7xDV4JrKEGdnRmKmOjqaN6oM1o07orK5esjLKcs/wT4UMZRTEd0duED23VDCf/6wC7hDi1d2TkQZSOLzDcD2WGp5NQ7sGnHSmz4/Qdy8K0EfSqhlUlgO6A6zs0hQQA2WEciIz0LSUlJ5NhphDM5toBtAJfU5tJpEAhDBAFcBg3qtEWrJl1Rs2oLRIdVZl6RfBZOSAfYiHWS0urwObZ1Qwn/+MAu4Q4tXdl53JFwpEieTdE7E/sQl7QRG7etwJZdv2Jf6g6CnoANlUguTirWTUgLuKSOyLAyyMkKReK+RCQnJ5K7Z8JJ04yt/xLNqZaF5IRR3I5E1Qp10brlaQR3G5SLqI5wcuvQnAgTwR2wPSB7dfPuS1fPHem1KR6wP6eOnerr2Efeyw7I16y4dGnjzARxWnY8du3bgPVbl2Prrl+QnrMPCCNHJ+wFM4nwhvLsUJSNqIDI8Ggk7N2L+L17kJWdgZAwDQEcCLIdKENDwngbgbKRsWhavz2Oa3YiKsXUQ3h2OYI6irkR9MqX1ObxaSe8qxgf2OyaEj8OAtiZ6NKpC7Iy+TL4LnzjWYm/ixLLMA/OLkvjxAG9OCeE4CW4U7Li8PvuVVi3ZRn27NtknDw7JI0ws5fLlyywhlFfroLy0RUQFx+Hnbu2ITOLRhfj7iQE8XfLPALhoTFoXLcdWjbujFqxzRERWoHGMoJa3NokAFeXvLr5HLvEXnghGfnALqRTjvSgPPC4lgh7HImNCedQ384OyUBWqNO3t+z8BRt/X449iRuJ5WTCmvq2xaROTN24YtlYVChXBXv27Mbv2zchPT0FoeHislnGfXPI1UOpV9eo2hTtjz8Ndao3R1RYFYK6DMNpMDNuLVHd1SWvbj6wXY/8Nb8+sP+afj28uVLslkCda+oWBAlsHQKt9OQc6ttZIclISN3G6a+fCO4fzLCWiSQCl/EJ2BACu2pMTVSOqYZdu3di85Z1SElLQli4NHHmRFHcm9pq3fJENK7XDtHhVZCTyaktpvVEcNVFYrgOD9g5EvftUF39o6R7wAd2SfdoacjPY48BMDlQe5AiuHPItcmZEZaJzNAkxCVuwmbObW/e8ROS0nZQ/SXwxWEpiteoVA9VKtbArl07sWHTWiSnJBD4GiAIUnLkyhVqoW2rU9GsYTvTsbMyIsitI/mMorwAHYCyD+xDSxg+sA9tf5ea0mS0kqVcRrOMkH1ISN5inHvLjl+QlLqb3JjOK8R+jSoN6GxSB/Hx8diwcQ32Ju4xC3oEDWpVK9ZBk4Zt0aJpZ4LacWoI1BK/zblF4C81TT6mKuID+5h63XmNNbwRdTmhnOPmXHZmSCIS07bh952rsHnbr0jYtwtZGVkEdn1Uq1obKUkp2LR5I3bGbUdYRBhqVq+HxvVbc1qrFaJpDRenDguJNi4u2cD+fFDndfghvvKBfYg7vLQVZzo3jWk5NKYhLAXJ6buwbcc6bPl9DeetkzhtFUtxO5auxDkmjsfvi0dMxYpoWL8FalVvguiIishM1zy1dGqeTfz3xH4h20f34XjnPrAPR68f5jKDYaeqmFgOzk+HywMtGakZe7F7z1ZawqlvU6SODIuiaE7X1MwshEfSUl65CqpUrsXwCtTDPUNZwLMsqG0aNHxgB3XIIbwsHrD9RSCH8JUcpqIolmt+OjuH/uC0mKdnJmJv/G7sS0ggR84wfEZHl0GFSpW4iKAiLeNlOeMlfdqzfntW7rz6+8DO64tDfeUD+1D3eKkoz+PZqoymrnTQfs2LbFrMzYkF6Ujj1FZ83G4kJyaaQ1LFChVRsWJlhEeVYbIIWs7FpTVXXfBwIT6wC/bLobv3gX3o+roUlSTgOfA5txWDtdXPdG6Bm0a17KwMcyNNiN9DAIegcuXKiImpRG4dSVBrOkuhHqcO1qWDgV2Kmn0MVcUH9jH0svOaGgxsF6oQQdPO/JHerfnuhIQ9iNuzi8YxoHIlupdSDA8NE7AZN+D0kj/fvLtgqOeF+leHogd8YB+KXi51ZQi+eYfdCcwGVse9nRidjaTEvdhDrzNaz0wMF8cODZMYzvT5s7EAH8x5/Xo4r3xgH87eL6Vle3gNpWtqclIigc057awsArsSKlDPDjFgaxTwxHDXEB/UpeeF+sAuPe+iVNVEuncoLeV/BHYlAjucHNsHdql6YQUq4wO7QIf4t64H9gfsmAoSxbVnFq3pPscuteTiA7vUvprDWzFtfySRPDmJO67s4QYLFMUlhsfwLzScHJsOKz6wD+87Kqr04gHbdlDxN1ooqiOPtmdhoaE2p53KTQz3cveULO6wUb5ceZSPiQkYzwRsTxt3rfd17NJDBT6wS8+7KFU1CSVopUdnE9Bp3MQwMzMTkZERiIriQo/QMKdjF6ixD+wCHXIYb31gH8bOL+1FC9wGcIrd2d6mhQyz7YpZ+fz82s2Dl/Y2HSv184F9rLzpP9HOXFFb+rTS8yd3JxYZzwrk6XPsAh1yGG99YB/Czi8IhIJFlzpgsMK0of3hENGYm9ofnhQMUMQDtdrfGqlgr5XEvQ/skujFYuZxIBIvBEPFzPmvi1ZYnYtfTx/Yf92bKTpnH9hF90+JPi0MJMEFFB8wwalK83Xenmf7r2VxOHbRPWNPC+tcPvCC/6g47L9GR8MTH9iH8C16RLa/Iosm3/2lKr3hbiPDA7W6OMAuOo6pBoV1Qy6w5W5zoHoUlsGRG3YQwPa/BFLka7Y5XVJSEeg8EGlZUkbyjFby2nSrLYosudQ+9HYoLbKCam8hnWYuq7kJC+9U9ZNzbXU9a7Gs05hQQQxwT3xg+1/bzCWmg7swIhMluf8OkCQ8R19cK8XwMAP//vMVkcrqrCkmotsRrUeo+09Wap84UB2oeuyYooDNfvDAqQu7Vt/QUh/KtaTZ9pkh3vOB+s89d2XmGf58YPvAPhAd7u+5wJiLakeqCvK4SjYJ8YDA9vIWMRuFMh+mO1KPQBPyVd/AZ41zbdRH/Vxv5YtW6I0gruWk+sa28gmld5zuBW6NfwK3yjSJJ9+A6APbB3ahJHWQgaQuAVJOHR4hiwi130hRh+JniQOJ8yg+/zx+VVS60vqssNZ6gHR1Zh/Ro03gzHcEbq3P2Aee9KK0uV/35OAQzsUo8ohLz8igmyu/OxLmPlLg5a2z6iA+7uvY/ofvHV0c5K9o0QiZP+Ig+jrlTn49Q+6YUVH8VE4V7ezJb1qRUMWkHEd2pK8FF/LFjovX7qB7+H2sNLpvRqFq1arctYTfl1YacSCPjXtlBeqYC4vcCz1Q/HwBgVSuzEBSi5Z7HXxRIFrwI7sOzppxvehesFe0wr0wpVMTQumSmp2dZR8h2LljBzIJTGXgmKzA67hxNN1Xy8fQP50+6uFceBJBl1aTYJQHMwolkDdt2sRFKnGoxG2balSvxjjcUVX/mIfK1uHKF3cveHgx8mIVjHGk3hfPeObvUnrA9+vp2BK3ExP3Yen332PBwoXYQcKtWrUyOnfqhO5nnonoMmX4AfkMchduAhigqzByG330btF3i/DNt98iLi4ONWrUwhmnn44T2p8A7Q6aSeBrYYYHcKX1uLkI2f47ZAQAIhCJlEngVpAKcwV6BG7nQJrcygRaqmde/dwSzYB7qZ4rDSUS/TOZghFdGXrkQKVoClOJVoTCLcye2OC3ePFifDJ3Lnbu5A4tPKSuZBHwErWjo6O4miwGsVVjUbtWTTRs0AAtW7VEdFQUY7ryNDhMnToNi5csRefOHXFW9zMRW62a1cG9D3HqQPmBtqsc75nyyTssZt7tEX7lA7uEXqARNolXII3j5n+zZ8/Gq6+Ow/rfVqF8lVj0PPdsDL7vXtSsUROpqemIiIi0kkWc4eGhWLFyJSa+MQmz57yHpIS9aNysOW68/nqc368f9xmLIUfXB+adNODEUSV3hOkAaBAKhLlwxdPXNR28FOZ2PDHCFtAIJEkQqrMNGMqSh0jcZU1gWLzAx+1dQXrq4pvooaiuPHtg1ZAawlwC6nMIjVwCq5dO9/r37swZ+M+z/8XGNWv4dZEoRBDM2VweKoDbt7eZhxaclGP7u3XpgCsuv5QA7sQNFdUfWSaGPz58BN5+ZyYuvqgvrru2Pxo0bMC6uTZoWamGHh12rQd27YnmQfV2Q4A9Pxp+fGD/j28xjzRENAJ2GLfsjcPMWTPxyksvk2h/QnhENFqTYz/+6CNo17Y945HPESQiXunUxBY++3w+XnjueXz71QLboaRRs5a49Zab0a/v+ShLUTSD4qpA5rAlyhUHdCKrA6pQJJCFOj1d16ycNiR0h2rqiNzuHY1bPQS0gsBWnlIBlKMNECovAAxlnNdulZEHGFMbmMoB0w1GykOH6uMNKlJXZsycjdFP/xu/r1+LUynNnNChPcqUKWttTUrixwLj4rFly+9YtnQ5UvftRYduXdD/6ivRp08va6MkmOFPPIkpb0zB5ZdfhBtvuhENyNmtNqojgc0xwj504K0dd33oAzs7h985n/351zmpKf48tlFngZ88Ahc5EWgkqHhy7FmzZ2HsK2Oxad0qznOFoXrNerjzjttx4YUXolzZ8o74BAjG37cvAe+8+y7Gvz4B61b/wrBQNGraHLcQ2H0JbIni4lDh5KzSK8UKBRxxRc/AJIIV9xdnZwYM56fxwtw5gDsLl+k4UKzV1cRf5h18aLSXquDSuydizllEiXFTZmD/AhmrbP1pULP6sVnivBoXVA81Vr0jMMuWIB1b/TZjlgP21g0bMXjIIFxy2YW0Q1S1ePrqSFpqKjZv3oK5n8zjIPAe+3IDup16IgfIYahfv77Fe+zxJ/DW5LdwxVWX4O8EdqNGjSxc/apydM5kn7BoC/eB3YYSoHbAEbA/I7BTBezOfGEajdVfGvVERP7heoB9QeoVHQvYJooT2Nu3bkFsnZrc7TMVp5x8Eh568EHUqllT2DOwRlIk/+XXXyi2v4658z4jt0pHCnX0moxz6+23om/vftTLy7LPc5CSmoS1a9fhV8bfvmM7dfV0GpbKoV79emjevDnq1qljRjeBSMBf+dNKi9u8eTPq+dWwgQBau3Y9krhBYVnm2YDpmjZtamVpgNDgYVyajdi9azdWrV7NNBtoAExHbGxVNKSYq3S7du8mWLLsvkaNGkYLSreHhr81a9Zaul27dlkdKsZUQP0G9dGiRXPqyrUMbE6VCCVYZ2LMM89iy7p1eHDYUFx+xSWoRGNhBj8GqDZoBFJ/bN60Ge/OmIGXXhzHPc3D8cTwYejR4yzb0WXYsEcxdcp0XHhxX5x33jlIS0/HxvWbkEIDZAVu4yTRvF27dtDHDgRycfBA1lZvexEuhGUGHrooR/RvsURxB2x/B5Wi37SALY6dQ2DHEdjk2C+PpcU3DW0pYv74408oE10WT48ZRYNYe+NwjsBD8Pn8BXiZcQVWGdrWEbzly5bFbeTwvXr1JnhjsI9gnzv3UxPZV6z8KXdXkwgSeo0a1dDhhBNw9tlnoWuXLrYZggx4r49/nVxxDjp17ECrfGUsX/4z1q7fiLSUVETxG1x169bG6aedzDLOQ/169R2wKRWsWrUan342D19//R0/nbvJJIMKtE7Xr1cXFSpWMBE5hvcXXngBB6uTDTAygM1573188eXX+G01P+jHMsQdI1m/OrVr4cQTOxOMZ6P18cezG50kMf3td/Cf517EJrb3gQeH4LLLBexKBDO/32uHxGmQc6fgu0Xf4fEnnsLqn1fgpptvxt/+dpVx7UcfG443J01F46YN2Z462LGTHxXcvpMDD8umFb123bo0Wp5GG0dPNG7ckGK5g68Yk1eG6uNCfWDbaOdz7ABt2EnAdvpyfFwexy5Lg9DZ55yNb75ZhJ9/WoUhQ4fgyisup8GMX6YkZxSXmzZtOqZMfYscrQa5b10somU8m8R9+113oXevPjbVs4iE/ex/XyR3X40WzRujWdPG5ORRtCjvws+/rOLG/vtMIrj8skupx7e1abaRo0ZR/3wDFWlZrszpturVqht3Vj3XkrOuXbsBTRo3QP/+V+P88/vavPBucuPxEyZg9nsfIZVTdQ0a1EOdOrX55c0Ukxa2bt2GdIK2SfMmuP22m9Gndx9+LWSvDTqvjH2dU3y70fq4luTm9c0wt2nTZvzy8yqCLBzn9ezBcs5H4yaNTWx/661pNJ69gC3r1+OBh4biiisvDXBsD9iuf3MoHWzavBmPPfYE5n74Ps5hn9x++y1o3fp4p2NPnEw1IRNVq1c38DZu3IgaRyilld/w86o1qMLB4obrr8XFF19g9goDshMJSMcBO4Jxax/YPrCDMV0YsOfQKv7KOFSuGINLLr0Iq35dhTenTEOvPn3w+GOPmJgYERFBLvojXqbI/s2iRehx9pkU06thFo1KyYnJBPad6NunH7Zv34Gxr47jADADzQjqa/pfRfGyLad+IsmhdmLBgoW0pn9ETpdBY1tv3HjD9TbnO2r0aEwe/xrCIsui20kn4gKCSiK79NzFLG/62+9iC3VYccp77rmbhqsy+PbbRZDeun7jZg4q5+KMM06jyF6fdoBETsV9gw8+/BirfvkFTVu0xMC776INoDe+/OobvDJ2HBYu+AonndwVV9J63YQivkxs6ynKz507D/M+/RxVKDUIvBrYojhtNeXNqRysXjJRXMC+/IrL+Bkhj2OTo4qpkusrn73x8ZAFfNrUN9GmfQfcP3gQunXrin+NeAqTJkziIBKCM846nYPHuZwWa2XW9JWUbN5+ZxYWzpuLbqd1x8MU95s2a2YDjs0IGNf2ODeL8kVx9jk7xefYwejmaE8LNFXNXFH8VRJ7LAn17zddz90+k/HQsCeoB9fF//17FFq2bMUprwh8/PHHeP75F8hhU9H/mquN4F968WV+aD4ZdxDYfTgQfPfdYnL6BymSplEEvQKXXXIZateRvhqK1JQU/PDjD5zPnY4PPpqLNuRij9H6LvH3qZEjMWnieDRveTzz/hvO6XGOOb1ornjlyhV47bXX8AE5c5/ze+OBofcbF50+bRpGPvU0mrRoioH33IWOHTvxQwH8BnZmBtZRFzYj34TJqF27Np8PQC/qta+88ho574uoGlsFf7/hWhPt5TAiQ10CDYPfUlqZNGkKxeml6N3vPAwdci919lgC+008R2BvXreGHPsBA7bTsR3HNhqjrSCMoE1OSSaIR2HCuFdRv3FzgvR+nHnmGQ7Y4yexjc1w7XX90b37mSbOh4SEmbPPnNnvY8S/RtEaGI5nnx2Dk0892YyRMgLaQVznSCE9yo5i6thf0XiWSeNZF3CwlyTnA7sAIZiWZsCWVZw6tjg29eZqVSrirgF30YOsEgYOHIrt23Zi8OABuOTii8xKO2nyZEyc8AaaE0j//MdNBEIinnpypFmE76Qofs455+A96q5D7x+MEzp2xD0D7kEnTp2J4/FNWC22b99GK/wcDhAvU+ysTPH0cbQlR3/yyScxmXPj5/bsaaKrBhOzSBMo8th6ffx4TJyo5+dgyOD7kMJBYuyrYzF10mSc16cvhhCAdevW47uWe2sI599T8NFHH2Hk6DGICI/CPQMHUn89AyNY3zdeex09+/ajJf8mGspaEoy0fGvwJ8eV2D9p8pusy1s48ZSueJjcuXmLJpg8RRz7RWxZuxoPDHuIksNlBURxl57T/AbsEQFgN2zWikbIISZNDH9iBNWNN9HzvB7458034Xjq8G7On1NdHBS+X7oMA+97wPwJnhj5JAednvZFE/WczbUbpoXuowvchQF72Q9LSDutg63iXwas4l0JbAosPrALwFpSI/vFgJ3noDL2pVdQvSoBfe8gNG3SBKNGPYM5s6gjnnsWHn74IXqoJZBjPU9R9mtav3viqquvwob1G/E4RWG5Wd5x513kSmdiypTJGDNyBM46txcefGAowVbfgCZJUn+J/MztJ598giefGoMoOno8+OBQnEwLvHTsSdQ/L7nsEgO2QCoRNCw8jPPDWzBh4kS8xim2s846E/cPGYzd/JTPf559DvM+/gj9r7sed999J0XjKgSIptUEsmzMX7AAo0eN5iCQhrvvGYiTTzoZjzz2OGZPn4qb77gL11OXlQVeYq2tUmNPbdu23cT+//73ZbQ/oTUeemAwCawdyxewqWOv/Y3AHkZgB+vYHtCUD1i33SaKz5g+HR26dKWzzyDm0ZF693BMfXMaRXxOd/39BjRs2DBgfHODwjrOAgwcNAQ/LPkOQx4ehgsu6IdqlBakg+cBW6+ThRxF4C4msL9wwO7QjaOhD+w/oNrIQsCW8SyEnmdxmEPPs7GvvIpqlSpg4OB70aF9e/Mqe+yxEWbFHjN6BOPF49n/PEtulEKivN5E5SVLl+JftP5mcR73jjvvoNX6NOOsz/3f0+jV73ybLqtevYZVQaAW19b0lSzmAnaZMuUI0vtwEnXqMWPG4A1KA1fTOHbbbbfQcFbLLN9y7Ni8ZTOB9QZeJ7C7dz/DgC331zFjnsbXC+fjn7fdjltvvdlsAZoG05y2OOD8BfMJ7DEBYA9A167daNEehrnvz8a99w+lIa4/01QwBxJVjwzb3GrfeXcGnn3uJbRpI247mC62JxQA9sMFgM3EPJSHbAKrV6/CI48Ox7dffoHzL+JARcNds+bNYNNdBPaVV12KG264zoDtidnZnL/etHkrJaX7sOTbr3H/ww+jH42E1apVY8Y+sDmP7QPbqKyIH4FMc8fSe+VS+t5772EcgV2FxrNB5C4nntgNP1GvvXfwg+ZNdcvNNxogZ7wzg4amRriFIOpIUXv+/AUUoUdx1ROBTR1b/uKTKa6PoRjZ/ZxzMfjeezk328j0YWfjyMGO7dtt0HiJum6NajWofz5gIukz//43Jo4bh6uvu9a82Dxga/DZumUrJk6aRD17vHHsIYMHmwrx7HPP45P35+DaG2/EnXfeToNXrAFL7dKc8ocSxUeONlXg7rsH0Fh2EqWPRzGHc9K33H4bDXt/48BVk4B2aoIGhXVr12Lym2/ReDgdXbt1wjCK4i1aNKN4PhXPPU9RfN1vGPrQMOrY4thVKK3kOcyoX/clJODTTz/FiBGjsZtTgoMGD8JllEKkpz/00COcx56K3n164qZ/3IhWNJwJ2JxQs8Fl9arVuIcc++flyzFi9EhKSz1s4BGwrYYaOezQC8y98QKP2HOxOPYsAVueZx0oivscu9CXLbFTxCzQOM+z2Rg3dhyqct530H334JRTTzEAjhrzDGa+OwdNOV2UzSmanXTkOL9vL1xNV8mGDRuSgD8zHdumu2h17nF2D84Pz8HDQ4eiSavjcNutt+DUU04xf2lVRN5mK1Yup5/5FHz44Sc0yrWksWg46tSqjZFjRmMKOfJV116D2zg9VJ2gd9w3FL/TcUb69bhxBDat8dKx5RgyYcIETHz9dZxJBxBx/oYNG3O6LczSSZefTlH4eerFMt4NoI59VvfuFPnHYMKrr6AH59yvvfZam1OXDUDieAqnyTRVJ5F/0Tff4ZyeZxuwY2OrYepb0wjsF7CZwB/8AKcBL7+cq7QI7Ey33FX9qZVuq379FePHT8CMt6ejbsMm7J/h5jOuKUOJ4m9OehPtO7Sljv0PnMK+0Uow8Xottpn32Wf0ahtGx5UsPP/CM+jWtSsirW5Sniyafnkc3cCOi9eyzSWUlFrT914fVaTnmQ9s9+qL+tVYL04hkTWBizhm05glq3jVyhTFB92NUwnsxH378P4HH1J8HE7vsngxDTSjoemf/7yRRqjTuUSxAubN+xyjRo4xHft2iuK9zuvFlWJLyRUfwXbOWffidM41/a+hGNqUVvVwOovspmX9EwP2rt176IhxLu6gx5o8xEZqukvAvqZ/PmCH0/Xz99/JsWlYE7C7d3c6tpxOZs6cRVVgJKrE0uh3522m40vP3rNnl0kTUznnvnTxt5QyWtB4NoDTS+fhDXL+p//vOURGhOEKctJLabWX55y4/GbOP8+cNQtvTXvHpIzLL7sY1193HcqWLWPAfuHFl7BhzW/0sruN+u+F5NgVub46ExnpmZxi28fpsvVY8Pl8Gu0+RRq/I3bBpRdj0MC76XBTlRw5i4bCEZhKl9IKFekwc9EFNh/fpHETE7XXr99AVWMiJtOW0O3UM/DoY8PM5VSLXihcOb/JXCbtA9s3nhWGcHIXj2ML2LPoB206Nq3ig+69x4At7voL57PvvOserPl5JblgGs7q2ZtGqttx/HHH2cAw77P5GPXUaAI73RxUNN2lD+NNfGMiXSpfpc9quM1Vt+ISxnLlymArOa8Gg59WrKTF+ST84+83md6bxDSjKR1MIQe+2jj2rbkcuzBgP0DHmTp0SZUuO+T+B7Fs8SLOVbdAtxNPpE4ai507dnJZ6WL8Ss+vrEw5qBxP49nduPCC8+kIsorz2K/gHYrbsbXroHfvXmYsFLB/XfUbPqcUsn3HLpzX+1yuwLqG4nJLmQboUvou9e7naLFejdZcntqSg1x4RIQZv9LIbeO5Pl3upBvI0SM4GPWg5fsa2gu60LtORkAtZX18+L/oKz6FHDkJ1WvXM8+7dm3aWF8uX/kzPfW+YF9mU8++k3r4lY5b810da6K4z7ELA20xwjTwC9iUyE1XlXvleHKLyhTFBxC4pxB0WiCxg+KsjFyyjotj97/mKhqcrkK9enWMS2mV15jRz/A6HTdT7+7buzfKxcRg9apfORX1Gj6b/wU3cUgkgUaSA2oeO5WcETRKHY9LL76Q02M9CPgYq8O/yUWn0Hh21TV/I8e+OQBs2gGYTqL4G0Gi+EO0pNeiL7dE548++QgffPARFi78EumcOw8Lj0RkdARdSmtTt440D7RqsVU5INFBpV9f81BbSqOf3GIXLfmenmnprHM59genqfYmoUy5sjjt9FNwKbltl86dbP5eizzeefcdvPAiXUrX/Mx55iiE05FGdgqB3rmlhKB8pRg04oqtjnTL7cMBQwOg+lF9LWPl48O5CGTq27QFVEIZSgG7dsdRlM80G0VGWjrBXotcvB8u4OKbZk2bmY+7rOFarmrit0Two/AoqGP7wD7Il5yfLOQjlWNz0FpAsWzZMjMynXRSVwKXLpb0I09NTcVSEv9yGtIiqSO2a9+OnKq5bcCgFVESH7+h95cIt1OnDmjcqDHdIN1SxtWrf8PSpd+TC66mpXmn6b3y1JL7ZpvWrWkwa4VKFSub0SgjPcM4rOLLxbQz8ypXvrxN8aiWSZxqW0Euv5LrwOvUrYNT6fNdngOIynWrqjZgyeKlNLJtMQ5aNbYy3TWbmAg/hcYqLcYYMOBu+qd3N+6YzDlueXot++FH1m8NRfd403XF7TXV165dGzTjWSCXdV3HGorgX3zxpW1MocFGg6IDtc7c+oi6fcWKal8DNKhXz5xiFCmLwNVZ0Rd+sRBrfvvNLN3i9lq0snHjZhtsZEhs0bI5OnJarE6d+hwIKQ0wrebXldg5pgQKVcFH0eED+398mSILHSIWEazuRXLpFKVTU5KNM2hrH3EZAVfAkReXprgkqpaJLmPun5YJaUvcRo4gMjxFRUbbMyNhyz/LPNK0fdI+zl0zK8QQrBVpeS/LVV7aSkgVkK6vsuRimpScZCvAtNVSLukyoeoqcT8tIw3hoWG2gkxha9etw4rlK1CN8+/Nmjahl1aktS2Si0YkHXz44cd48aWxqEX/8aH330cO3NnaKg6ovccSqBfHxSUQrElmA9CiEa2sioqOpi86+4Blq688K7vWXavO4UyvPd90OG7s4qluqru89AR+9Y82bVBdlUcK25fO/oxmHNUhkVN/CQmJZqMoV74ctLpMGzXQrJnbfvUbK6EfFRc4FJjbQ17gEXsuFrBnzltoVvEuvlV8vy/aWcX12BGHiFd/HpFasBG1261ERCnikuipeB4ghVZ7xpy0CYNHespHg4OeS7e0QYTp5OHlNvFTyRJPHblafJZheTNcYFeYZagzD9vJRGXzuebNNRh98cVX1HtfQN1a1Wmpv4IW7nYGjCSuFltCSWPq1GlYMP9LnEm/7IGDBqBhQ66YIqCtrcxKWcvzK9OAF2aDhgAnsVl1UNu8fsk7W3Wsfl7bra4umJB0/Wi3gQ6x9jPc2scwc4ZhW6R7y6im9OobDRYaGDNYHw0sFt9arIwCmVnG6hPXL3Z7hP8UBPYeWsWX0SreqTPXY5dTv6QjxAf2gd+ykYmBRBzTcR6PiJTaCI3+y6QsA5GeBaIH9D3GEfgY15GbiNlxJUdu7oni6PDS2517lEemzMA4GgsIBogl5I9K8UjaCF91YbjSLKbo/uhjT2Drxo00UnVC27atObVW3pZqrli+0pZ0an31JZdSn6crqqSRHAJZgFa+qor7Iqd02LxD+SuOpgNVd0276awwJdJJv3nAV3xXT6+u3pZKxtktjZ7zqf13sZSn8tEgonCvv6zNLFvlWRQ+zOsFV7bSHS2HD+wSfJMeURmxGpEEiI1lKMz2/RIxB4BvRfPexXIVMWJzGQQeBz9VPo74XFkiRd7zv3fviNyBVGEW31GyK0C/zEP6vv0jAPTY4vKRW0b6NnctmUtX0G30CedOKvwTV1ZeTZs2Rk8C+nSu+qrGZaDyYhOCVC3VzP0JNO6w2lsbC29HIFrgpFQO+JaTl4mF6ieQBwsLemRpc3PXBR96/ZSbxmLlpXKgzk3lEv0hV0t0RP78Adhxge2Hu7Sl+kaOne1z7BJ5sY6E9BtMTCWS9UFmIuIO/gskV7UCdL9x4yYa1n6kx9h67KGPdgZ1WO1F5gxhjXHc8cehJt1avW9l57XJ6bGWe6CZtlGqtflA7fbqlL85B0qVP3bx745FYC/9/jt06dqOwObWSNl0UJn56QLf86z4NLPfmI5I/ypS3W+xhTyQqhBAsZ6Ko7Ja4rrGucnF09JSuLlCEq3nyWaEK1umDK3m5Zyxj4YsccS8HLw2OU4twOc9swKsOC+WQrwjN54bAbxgO1t81SlfaMncHJPAXraY6pU4di6wnfGscwcu2/RdSkuGsg5nLgaiXEixJk78NfGVMpxgKaBLdTAAU3XQnDkVYEO/dHE523jiu2uKg58TAfPr18FNLYhfxS/qsMfBVS0qchHPChZz7AF7J5YasPNxbAE7O7AemyO16WV6/V6Pe+cietZ/RPwUs58sWkFSLMkOZAEFss/VxwNIM8Md0e35wBcsvbCWeNV2oCmYwt0X7IIDAVupCqYpPOeiQws0V0NXIQkKa1Uh0Y6AIBtgKVW590rbSfxOfP/9YnTu0t44dpYTxR2wu3TsynlENweqBHmHOiTw5wUX543lZeBflcIe8F5lwaodPeRfsGVHz72Yrv5pkwy9rzgaz8SxO3d2HFvuzNSxiwtsdQyzEUX4wFZn+IffA4elBxys5SMhYHOPgALADhjPFuakpdLFsUNnzsG6zdfzc2yv7gGu7d0eKeeSkPWKNZB5uqeb5z5Susev55HXA0UBu3w5fTCATkUzaBVPJ7A7tu9kxjOb+88ninsNP0KB7VX/Lz/7wP7Lu9gvwHogF9jmSqtdfXZzPfZibubRhg5HkeTiBPaseW4HlY7tO5Jj02WQK1llO/3joTCTw3kWyIt/uNgHSlN4qcGlqEFFH/vLwwNd0akLf1pcDvy/lFF4yX82tKDE5aavXN/lucf+2dz9dIe+B/Tu8mjfA7aC5KmnpcTLV/zAxTituJmhpivpoDJbwE7LQvs2JzCx23JGsjsF+Pz1DxZH/4x4m1ev/Pl6dwWK84LznQ+UhyIXzCe43vkyO4ib4rS3JMo5iCrtL2pBUCuedZsmsnXovboAd+//lvoeyA9FvTyqzAS0BmxNTWp/vVWrfuby3pZcMMQdcWQV155niYlpaNmcC+G51NC9/oLcR2gpiJiD6Y8/z2uDSzlQLq6GBeuZ/744NJ2/I1UD1yt5dQmqSS6g85fzxzzyUntXHta8+4Ln4uRRME1R9648N01SVDz/Wenqgfx0QFoMEagpW2tBDsXsvXsTuOX0ehzfujl3r9F6dnLstz+el7Nrxx5uHleN6BdrL6xRItr8hFtYLC/MIyB3T/E4N2nuhRfVzoKJnuRPFxzF5aHnhXEkFzMYbF4jlGthZRYWFlyel94L070XxrRK7t1SyinsUJvNKaSwh7lhB1uP3IT7vTBlJChbLZjQiih9VF7LIv3jSOyBXGIj7QkrGpzzBug07h2XlLiXwG7BjTi0FJc69ueLl+TExSegDNcHZ3B5n8uicGItHCR/7KggiAVgFURpf4weFBKcMiiYl/vTnvPHcnf5csnlqO5Z3iBTWMpA+qB+tJAgUdy1pHjtsWy8vJTEu1amvC9OLm6ws1oU68cGFJe9bTywfdsO+4LmCe3b2qColVfFK7lYxfmRDkUPBNGfiMicehmWu5yVYrn2AajPnXoio7T2ncD+Ye1vOdqRI4Jb5OjzqXz7+V98PupUKwqhyIOlvkPRGcdoGXpdkhS0XlkbMSxZsoQ7nf7ED9ddx293l3MbJ/AdFz2oFPKOj9H+LJ3Nzm/Q1fvW9tGVuM99Tk4mZ7coiq/YsFoehvQXlvM4L4p+46WznX6tcnvAE/+1TW8C9+z+ZO5cfo3kKzwy7GHuuR0TJI4Hv+hgUSIwtufm6F8cvh4IfkcFa6F3pufk3wR2Zma67YiTlcUluJzb+n9nva195W6tBwAAAABJRU5ErkJggg==;" vertex="1" parent="c_AYpVPlN-h9lZ-HARwW-48">
          <mxGeometry x="163.00172413793103" y="53.412921348314605" width="68.33" height="40" as="geometry" />
        </mxCell>
        <mxCell id="c_AYpVPlN-h9lZ-HARwW-35" value="mongo-network" style="text;html=1;align=center;verticalAlign=middle;whiteSpace=wrap;rounded=0;" vertex="1" parent="c_AYpVPlN-h9lZ-HARwW-48">
          <mxGeometry x="47.6793103448276" width="225.5448275862069" height="40.78651685393258" as="geometry" />
        </mxCell>
        <mxCell id="c_AYpVPlN-h9lZ-HARwW-39" value="Streamlit App" style="rounded=0;whiteSpace=wrap;html=1;" vertex="1" parent="c_AYpVPlN-h9lZ-HARwW-48">
          <mxGeometry y="50.41573033707865" width="124" height="45" as="geometry" />
        </mxCell>
        <mxCell id="c_AYpVPlN-h9lZ-HARwW-41" style="edgeStyle=orthogonalEdgeStyle;rounded=0;orthogonalLoop=1;jettySize=auto;html=1;exitX=1;exitY=0.5;exitDx=0;exitDy=0;entryX=0;entryY=0.5;entryDx=0;entryDy=0;" edge="1" parent="c_AYpVPlN-h9lZ-HARwW-48" source="c_AYpVPlN-h9lZ-HARwW-39" target="c_AYpVPlN-h9lZ-HARwW-33">
          <mxGeometry relative="1" as="geometry">
            <mxPoint x="-27.830000000000155" y="109.41573033707866" as="sourcePoint" />
            <mxPoint x="-41" y="109.79073033707866" as="targetPoint" />
          </mxGeometry>
        </mxCell>
        <mxCell id="c_AYpVPlN-h9lZ-HARwW-40" value="" style="shape=image;html=1;verticalAlign=top;verticalLabelPosition=bottom;labelBackgroundColor=#ffffff;imageAspect=0;aspect=fixed;image=https://cdn0.iconfinder.com/data/icons/social-media-2104/24/social_media_social_media_logo_docker-128.png" vertex="1" parent="c_AYpVPlN-h9lZ-HARwW-48">
          <mxGeometry x="103" y="53.41573033707865" width="19" height="19" as="geometry" />
        </mxCell>
        <mxCell id="c_AYpVPlN-h9lZ-HARwW-36" value="" style="group" vertex="1" connectable="0" parent="c_AYpVPlN-h9lZ-HARwW-49">
          <mxGeometry y="64" width="728" height="261" as="geometry" />
        </mxCell>
        <mxCell id="c_AYpVPlN-h9lZ-HARwW-34" value="" style="shape=image;verticalLabelPosition=bottom;labelBackgroundColor=default;verticalAlign=top;aspect=fixed;imageAspect=0;image=data:image/png,iVBORw0KGgoAAAANSUhEUgAAAPgAAACQCAYAAAAldqY8AAAMQGlDQ1BJQ0MgUHJvZmlsZQAASImVVwdYU8kWnluSkEBCCSAgJfQmCEgJICWEFkB6EWyEJEAoMQaCiB1dVHDtYgEbuiqi2AGxI3YWwd4XRRSUdbFgV96kgK77yvfm++bOf/85858z5869cwcA9VNcsTgH1QAgV5QviQ0JYIxNTmGQugEZUAANGANXLi9PzIqOjgCwDLZ/L+9uAkTWXnOQaf2z/78WTb4gjwcAEg1xGj+PlwvxIQDwSp5Ykg8AUcabT80XyzCsQFsCA4R4oQxnKHClDKcp8D65TXwsG+JmAFTUuFxJBgC0NsgzCngZUIPWB7GTiC8UAaDOgNg3N3cyH+JUiG2gjRhimT4z7QedjL9ppg1pcrkZQ1gxF3lRCRTmiXO40/7PdPzvkpsjHfRhBatapiQ0VjZnmLfb2ZPDZVgN4l5RWmQUxFoQfxDy5fYQo5RMaWiCwh415OWxYc6ALsROfG5gOMSGEAeLciIjlHxaujCYAzFcIWihMJ8TD7EexAsFeUFxSpvNksmxSl9oXbqEzVLyF7gSuV+Zr4fS7ASWUv91poCj1MdoRZnxSRBTILYoECZGQkyD2DEvOy5caTO6KJMdOWgjkcbK4reAOFYgCglQ6GMF6ZLgWKV9aW7e4HyxzZlCTqQSH8jPjA9V5Adr5nHl8cO5YG0CESthUEeQNzZicC58QWCQYu5Yt0CUEKfU+SDOD4hVjMUp4pxopT1uJsgJkfFmELvmFcQpx+KJ+XBBKvTxdHF+dLwiTrwoixsWrYgHXwYiABsEAgaQwpoGJoMsIGztre+Fd4qeYMAFEpABBMBByQyOSJL3iOA1DhSBPyESgLyhcQHyXgEogPzXIVZxdQDp8t4C+Yhs8BTiXBAOcuC9VD5KNOQtETyBjPAf3rmw8mC8ObDK+v89P8h+Z1iQiVAy0kGPDPVBS2IQMZAYSgwm2uIGuC/ujUfAqz+sLjgT9xycx3d7wlNCO+Ex4Qahg3BnkrBY8lOUY0AH1A9W5iLtx1zgVlDTDQ/AfaA6VMZ1cQPggLtCPyzcD3p2gyxbGbcsK4yftP82gx+ehtKO7ERGycPI/mSbn0fS7GhuQyqyXP+YH0WsaUP5Zg/1/Oyf/UP2+bAN/9kSW4gdxM5jp7GL2DGsHjCwk1gD1oIdl+Gh1fVEvroGvcXK48mGOsJ/+Bt8srJM5jnVOPU4fVH05QsKZd9owJ4sniYRZmTmM1hwRxAwOCKe4wiGi5OLKwCy/UXx+XoTI983EN2W79y8PwDwOTkwMHD0Oxd2EoD9HvD1P/Kds2HCrUMVgAtHeFJJgYLDZRcC/EqowzdNH+5d5sAGzscFuANv4A+CQBiIAvEgGUyE0WfCdS4BU8EMMBeUgDKwDKwG68EmsBXsBHvAAVAPjoHT4By4DNrADXAPrp4u8AL0gXfgM4IgJISK0BF9xASxROwRF4SJ+CJBSAQSiyQjqUgGIkKkyAxkHlKGrEDWI1uQamQ/cgQ5jVxE2pE7yCOkB3mNfEIxVA3VRo1QK3QkykRZaDgaj05AM9ApaBE6H12CrkWr0N1oHXoavYzeQDvQF2g/BjBVTBczxRwwJsbGorAULB2TYLOwUqwcq8JqsUb4nK9hHVgv9hEn4nScgTvAFRyKJ+A8fAo+C1+Mr8d34nV4M34Nf4T34d8IVIIhwZ7gReAQxhIyCFMJJYRywnbCYcJZ+C51Ed4RiURdojXRA76LycQs4nTiYuIG4l7iKWI7sZPYTyKR9En2JB9SFIlLyieVkNaRdpNOkq6SukgfVFRVTFRcVIJVUlREKsUq5Sq7VE6oXFV5pvKZrEG2JHuRo8h88jTyUvI2ciP5CrmL/JmiSbGm+FDiKVmUuZS1lFrKWcp9yhtVVVUzVU/VGFWh6hzVtar7VC+oPlL9qKalZqfGVhuvJlVborZD7ZTaHbU3VCrViupPTaHmU5dQq6lnqA+pH2h0miONQ+PTZtMqaHW0q7SX6mR1S3WW+kT1IvVy9YPqV9R7NcgaVhpsDa7GLI0KjSMatzT6NemazppRmrmaizV3aV7U7NYiaVlpBWnxteZrbdU6o9VJx+jmdDadR59H30Y/S+/SJmpba3O0s7TLtPdot2r36WjpuOok6hTqVOgc1+nQxXStdDm6ObpLdQ/o3tT9NMxoGGuYYNiiYbXDrg57rzdcz19PoFeqt1fvht4nfYZ+kH62/nL9ev0HBriBnUGMwVSDjQZnDXqHaw/3Hs4bXjr8wPC7hqihnWGs4XTDrYYthv1GxkYhRmKjdUZnjHqNdY39jbOMVxmfMO4xoZv4mghNVpmcNHnO0GGwGDmMtYxmRp+poWmoqdR0i2mr6Wcza7MEs2KzvWYPzCnmTPN081XmTeZ9FiYWYyxmWNRY3LUkWzItMy3XWJ63fG9lbZVktcCq3qrbWs+aY11kXWN934Zq42czxabK5rot0ZZpm227wbbNDrVzs8u0q7C7Yo/au9sL7TfYt48gjPAcIRpRNeKWg5oDy6HAocbhkaOuY4RjsWO948uRFiNTRi4feX7kNyc3pxynbU73nLWcw5yLnRudX7vYufBcKlyuj6KOCh41e1TDqFeu9q4C142ut93obmPcFrg1uX1193CXuNe693hYeKR6VHrcYmozo5mLmRc8CZ4BnrM9j3l+9HL3yvc64PWXt4N3tvcu7+7R1qMFo7eN7vQx8+H6bPHp8GX4pvpu9u3wM/Xj+lX5PfY39+f7b/d/xrJlZbF2s14GOAVIAg4HvGd7sWeyTwVigSGBpYGtQVpBCUHrgx4GmwVnBNcE94W4hUwPORVKCA0PXR56i2PE4XGqOX1hHmEzw5rD1cLjwteHP46wi5BENI5Bx4SNWTnmfqRlpCiyPgpEcaJWRj2Ito6eEn00hhgTHVMR8zTWOXZG7Pk4etykuF1x7+ID4pfG30uwSZAmNCWqJ45PrE58nxSYtCKpY+zIsTPHXk42SBYmN6SQUhJTtqf0jwsat3pc13i38SXjb06wnlA44eJEg4k5E49PUp/EnXQwlZCalLor9Qs3ilvF7U/jpFWm9fHYvDW8F3x//ip+j8BHsELwLN0nfUV6d4ZPxsqMnky/zPLMXiFbuF74Kis0a1PW++yo7B3ZAzlJOXtzVXJTc4+ItETZoubJxpMLJ7eL7cUl4o4pXlNWT+mThEu25yF5E/Ia8rXhj3yL1Eb6i/RRgW9BRcGHqYlTDxZqFooKW6bZTVs07VlRcNFv0/HpvOlNM0xnzJ3xaCZr5pZZyKy0WU2zzWfPn901J2TOzrmUudlzfy92Kl5R/HZe0rzG+Ubz58zv/CXkl5oSWomk5NYC7wWbFuILhQtbF41atG7Rt1J+6aUyp7Lysi+LeYsv/er869pfB5akL2ld6r504zLiMtGym8v9lu9cobmiaEXnyjEr61YxVpWuert60uqL5a7lm9ZQ1kjXdKyNWNuwzmLdsnVf1meuv1ERULG30rByUeX7DfwNVzf6b6zdZLSpbNOnzcLNt7eEbKmrsqoq30rcWrD16bbEbed/Y/5Wvd1ge9n2rztEOzp2xu5srvaort5luGtpDVojrenZPX53257APQ21DrVb9uruLdsH9kn3Pd+fuv/mgfADTQeZB2sPWR6qPEw/XFqH1E2r66vPrO9oSG5oPxJ2pKnRu/HwUcejO46ZHqs4rnN86QnKifknBk4Wnew/JT7VezrjdGfTpKZ7Z8aeud4c09x6NvzshXPB586cZ50/ecHnwrGLXhePXGJeqr/sfrmuxa3l8O9uvx9udW+tu+JxpaHNs62xfXT7iat+V09fC7x27jrn+uUbkTfabybcvH1r/K2O2/zb3Xdy7ry6W3D387059wn3Sx9oPCh/aPiw6g/bP/Z2uHccfxT4qOVx3ON7nbzOF0/ynnzpmv+U+rT8mcmz6m6X7mM9wT1tz8c973ohfvG5t+RPzT8rX9q8PPSX/18tfWP7ul5JXg28XvxG/82Ot65vm/qj+x++y333+X3pB/0POz8yP57/lPTp2eepX0hf1n61/dr4Lfzb/YHcgQExV8KV/wpgsKLp6QC83gEANRkAOjyfUcYpzn/ygijOrHIE/hNWnBHlxR2AWvj/HtML/25uAbBvGzx+QX318QBEUwGI9wToqFFDdfCsJj9XygoRngM2R35Ny00D/6Yozpw/xP1zC2SqruDn9l+Q6nx9NLQJ6AAAAIplWElmTU0AKgAAAAgABAEaAAUAAAABAAAAPgEbAAUAAAABAAAARgEoAAMAAAABAAIAAIdpAAQAAAABAAAATgAAAAAAAACQAAAAAQAAAJAAAAABAAOShgAHAAAAEgAAAHigAgAEAAAAAQAAAPigAwAEAAAAAQAAAJAAAAAAQVNDSUkAAABTY3JlZW5zaG90Oxo+sAAAAAlwSFlzAAAWJQAAFiUBSVIk8AAAAdZpVFh0WE1MOmNvbS5hZG9iZS54bXAAAAAAADx4OnhtcG1ldGEgeG1sbnM6eD0iYWRvYmU6bnM6bWV0YS8iIHg6eG1wdGs9IlhNUCBDb3JlIDYuMC4wIj4KICAgPHJkZjpSREYgeG1sbnM6cmRmPSJodHRwOi8vd3d3LnczLm9yZy8xOTk5LzAyLzIyLXJkZi1zeW50YXgtbnMjIj4KICAgICAgPHJkZjpEZXNjcmlwdGlvbiByZGY6YWJvdXQ9IiIKICAgICAgICAgICAgeG1sbnM6ZXhpZj0iaHR0cDovL25zLmFkb2JlLmNvbS9leGlmLzEuMC8iPgogICAgICAgICA8ZXhpZjpQaXhlbFlEaW1lbnNpb24+MTQ0PC9leGlmOlBpeGVsWURpbWVuc2lvbj4KICAgICAgICAgPGV4aWY6UGl4ZWxYRGltZW5zaW9uPjI0ODwvZXhpZjpQaXhlbFhEaW1lbnNpb24+CiAgICAgICAgIDxleGlmOlVzZXJDb21tZW50PlNjcmVlbnNob3Q8L2V4aWY6VXNlckNvbW1lbnQ+CiAgICAgIDwvcmRmOkRlc2NyaXB0aW9uPgogICA8L3JkZjpSREY+CjwveDp4bXBtZXRhPgoSZLl/AAAAHGlET1QAAAACAAAAAAAAAEgAAAAoAAAASAAAAEgAADBIKtPQuQAAMBRJREFUeAHsnfdzXDmS57NY9N6IEimRIimvlpfajbmdnpnd27mI+3Mv4iLuh9u4mJ3pnu6eduqWd/QiRU+Kvqr28008VBWNSEpNSaSuQFbVMwAeXgJfZCKRSKTuDT3ILSws2/jYpC0tr1hlZbXlsjnLZLKWzWUtlzPjf+eQ2jXGzumL7qYsZfrfKeRUqF1CKrVzJvuRhwiT24U6H9z77EJXVctutH1XNNlL/WxtRpvb1s7taCs6lL6QRzhSHjGfwq/TYWsBClcK2eRTF26SI1mVlYWcU2Upy2YzVltbaR3Hjlp1TQVRs5a6O/AoNzu3aCPDE7a+nrOmxmYSVVguRUrPNhYuRbHjcfFj9vd4D+3HO53dnrpbPnvoI5yAuz1nt3x2K4fy3y0Pxdktn/3IYy9l2a0ce8rDX0hfrw778j4ApAgjycN0JYLs1c8v3Nkt7uYn6JxuP5VNnpOkz23FTsBT4Umbj4pTbOWhpOZiGZ9cLmPrmTWbnZm2ikqzkyc7rbGx1lJlGUs9HOmHg6/a2NislaerrKOj06qqdLOcDMr40M/EMm4uwabz3SrFs0ny2pR0w+mu+RyiPPRiH9L7eHPe3KY31N72ndGGKtslvWe3IcGmB8TTN8hHdbGXZPERXow9lCXWsaIKy3pG/Cgvv578enZ7LEcxsCMOPb0yJfh9vpaXl214eBApfMY6O49YY1MN4F8H4KMDuYX5FW5OW21Ng3V1dQH08oSDexbKRgcE/SbHkUrxlt8vfR1GChQ3xLdRfm81PEQy4EEIzkx3LUto63G4EYd8fg6g4jv5+3AiEVnXwjlvysnSShapGDEZRlmWLmPYm7GqyjKrLOcmpMgwFPYDfryDcKk5ycN/SMtvPt/iWxzHTqUMOX19fc2GhvttZvYFGD5izQA8lRIHH4WDz6/a0NCU1dU2WXd3t6VJkPPuYnPWOz5Oj9xUhNLpYaFA0tT2vbixxXhLOujNA+BuLGJo/36NL3FLwSKCPRJLoFccdWD6ZaRrMwuLNjQybs/Hp2wdICsnMG4nT3TYiY52q6+rhsOGPHVTeSjOxqDcXh1y9CICecoBvg7AB2xurgBwSiKAPwPgazY4OMlDW5Hfu3iweiCNwRX02M2P3ny+c0E8m9LXPlBAdH59Wm+urc0FiTnG3833f835bs/+NXm/WdrYrrdLHegb6RDLLmAXc3Jx5OIgoMWAWtpWMjl7Pj1vPz94avefDNrKGkDjrwJEX71wmk+ftbXUWZpEKe8c9AAUZs5U9XR9dg8Ct7CZSqWRBgD44IBNz45ZNxy8paWWbNYE8Ke5eQF8YNoa6lsAeDcPEgePD9BB/iS5WPyCey9QzLH0+6YUeDNaq4HuFAp1vVOsD+Hedm1543sFHhwIlm/1zl3DmfhsykL7L9BNICMfkoFtW4ZjD08t2Lc/P7A7j4dsDTE9DabK0Wp/fOWc3bzUZ+3NtXmAF3KOZdHzQxnila2/4t6xhDrOWv/AM5udG0cKP2otzdUR4E9y83PrNjAwBcDbrLfnpI8nCsKKMokZxceUAB4p8W5/91LxG0vkNVfUVmK9Bi7EDd0jUlGUjRl8cGeb2/LGFxR9EpKEVi8SFRFHh2VlznvzCZWjrusj3fkyCUamluwfP9232w8BeEbieZlVWMY+v3bObn3UY+2MkZVLWT7vzSI6OeXvEXFLiO8RfjWl3T+gMfiY9Zw8Zk3NVaQXBx95DAfP2EA/AG8QwHt4AebUvKjKVRnEzOJTSgCPlHi3v7EZUSM7Vv6rS+XJxJFocN6C3jCfVz9h6508o9l668BdieTIt3ouZHkBnec0aOZcSi0Pfo8vjwwXVRw+K+Lgk0v2ze2H9svTUVtZJwpxqsuy9vmVs3b9Qpe1N9bA0cnLM1K6YoArl73WsT8ctGasvx8RfWbUeno60KIzX5baFuC9RQDXg5RBcQgZFl8JrxUKtfF66Wz/KbDHyqeatqsRNVX19j79qcJtF2mfC32YAB5ePQjioo3opTNpvDW+FriDQixn5XDyrF+nEwDB4t5KsU4HOsXM1D3A/fj5DGNypptJW2FrdvlUp13sOWrNdZWWVj147lRDUg/FtEr5yWb8hRJuqDg9Wxy8v9+mZp/DwTus6dUA7+MlJGqouJtrPz4s/hY/bHPceK/0ux8UeG2OnQd4oV7EJaRfyao1JVxpc03uR1kPdR6R0Am4BO5VZOzpuXlbXFmxdDkjaaa7BMyWxkZeNWULWIAur2egqzgyI3TipNKV9mLmpQ1MvrS1XNrSaa5nVu3M8WbrO9Zo9UyXlTnAw1RYHuB54qlmxN9fVUOxXvl1gOcA+DMAPoYerYNpsoSDP0BEX1gQe9cY/Agiuji4oC2A67P5AZvPibKlI9C1UthPCsR2F/OMPX3henG9qNJDTIluUsBIy7q+toYRE9MzGDFxiSiKFL5jvoXfmF9sSIU7H9KR6OhvGl8zeW26QuiWsjVQOzW7aA+eDtjzyWlLVQDwLEozxPWzfb3eWY6MT9o002IS5dPkVl9ba+1H2u3l6jocfIo8ULAxR5bOrtrl3mN2vrvFmjElTWOBxlMCOROES5T3aTc0435LGntVJxXtMWNPkFRCKL84eM6eoWSbmtEYvAjg90cBuI/BpUUH4L0ag5NaLWBTZkmepZ8DQAFVrEIEeARruKoWoQahbnoNze6qzc3P+udIa7vV1TXRd6e9AYcmmTTy0ISUa/JRburkP5yQkA0BRnAJoHHa5QkKb5aUAw2kEV9BAz48Pm9f/3gHsL6wHEZg4tQVFWn75MYVN17RVNjY1DzAR5lGupbGBuvt7rKl1TX75bGmybJIToj01MNvr5yyTy522zGUbBVcyyvZwJqeqmF+RhlJ/Fc1AkZNpQn4wmOcrlONhCKHuhLApUWfmkZEZwze3FRFGqbnCgCfCVr0EsBFu0MXQsMNle0NF1to2UPnUqs00gW3chobH7FTvWfs2NGTNJpK+nBEScRHNfCQXq8tQBfOlNeHFOKbOrS9E9Tb8r7+mnA2kCQjLxTfYcoLgA+NLaARv2sPR8fpFyv9ehqO/PnH1xxwvzzst+cTcwAcLk261qZ6O9PT7SL97fvPEPHX3cilHA7+u2tnULR1W4cATlwHuMidAFyHAqvKkM2J0xKHi4HTUzfci6FgjKbOKMdMGGPw6aBkKwE8UunQ/oaxm6p+Y9DokHaAxtbKEMtzL21mfsQeP71rA4NP7cK5K3bh7A3mZetpSYzTshU075CHGldQFRUa0ca8D/tZeMPwFurIioPuASMHeOjmZJG2ChsfHn/pAH8wPGbr4qya02ac/dnNq85t7z4esLGJeY4DJdsa6+1cb7ctr6zaj/ef2CpmpAzBAwe/esY+vXyyAPBYBACqmnMFHlxb4r44v87LQXg5VVROh5TULql0RG1RXoXAwdGiT4/sxMElotO7k1mqJKI74Q7qVwCiSlcAeISlxM9cWqPvJZt7OWrDY/dt5PkTG30+bMc7eu3GlT/AZboslcUYQgBHXFeDCc1fDT/mpPw/tBDpVQzwcC0AhrcHNJGDr7FseuzFS/vh3mO7P/TcchXMZiM7V5RX2M0rF1nFlbGH/aMo1BiDq0+Fdq0NcPCuTgf4z4+fAdQ1xuCANLdun146ZTeYJjvSUO0c3KkrwkNypZW+JEUnoo5l5MWsLS6tWGNdjR3BMKamPO1xYt0XAK4OAT3awA4AHxyYxVSVeXABXD2FAF4KB5YCsZIjwF2so7QwES4xB5JatNnF5zb0/B6fu7a8OmsLCwvUa7VdPPu5nTt9w+qr24nKWA2ApxJxUOM9hZB/4BJ+4QP7CnxPuAoLQfTay2jL10CpOLSPwwUBIi6jLBsYmbChiRnYqATrLNzU7FTPCQf1KECcXVzlOnnx3VBVYZ1tLRi4rNnTEbg+TxHHz6ws2sXe43byWJNVwZVzPAtIA04x1JwvQqmoJB7Hg6zu/OEXOmVs2dvJ68q5Pus+1my1FUH7Lh2Zd+Qo4xzonA/KVJV58G4MXVoYg/tqsjgGLwGcmjlEoRjgXsGUXRVO58/vis0sjtrA6C+Il/dcRC8rp0GA/lk4TWNdt105/6n1dl2ymgrW/zMeL8tpPE6rzQNcxFDzi1A4RMTZQ1H1VgK3vy6AlkJscmbOJmbnbYkxc4YOTyCvqanBR0Kjjb6YtOco0pjvgo4ZF5cvnDkJwCXCT6NFXwWoGoPnrL6q3Dpaml18fzL6nGGSuLKAmYGzH7OG6gqbZ+324uKiP0POVaoAbndHm5uZrnL+471h+79f/oToP4vSrp766rOr53qtq73eaiTvq3MQE0YX4Oo5yhQBfrIbgGPJtkHJVgL4HlrFgYoSJawgXosXMO+CaLliC0svbAhgDzz/yeYAusbhmqZJlVXaBNxmfbXCTnZetIunP7auo2estpL5XET1MincND5zJu5fB+qN96MwAi39YBKCplyKtbnFFXvUP2wPBkZs8uUKnByuynRia0uLnejsAOATNjA24YAU5wWP2JVfdBA/7B9xEd2lAYjXWFtlvcePYoO+jhb9qc+Rq++spA6unumF3mkbHBqyielZYsPJAXQj02afXDltH18/g3IuY3/75oH9v+8e2PT8Epw9bcfbm+3WxVN27exxOg+s4HgHeV7yV0Ea0FJUAXwGDr4DwFsR0bt5X8Zj6h1K4eBSQB5DXKxWD47GV4JgGdNhgHvkxUMbfnEXrtKPkQXTN9gkVzB2LE9X2zgi3/JLXPtUHbG+45fswqmbNJ4+q0rX02CkUXdTDfLOo+Dg0uC1SwaYaNsKklZcOlF/xqUplkz/jDb8F6a8BPBV5+BpO3oEvVTXcRscHbMnQyMYsMCjAWQFv7+5dRlGmjVXsk2KztJjZK25odbO9XXb6uqqfX/vEZZsSARUVwUAv3X5gtXB4R89G2Qp6aSXIQX3bcHV0r/cOm+/+fi0zS+s2398ecf+dvuZLa6qntU5mF3o7bDf3Thj508esRqVm3G6DGjI1nUBgwODSGjPAXi7c/BtRPQSwF+7zbynBOLYYV2yZk8ziJRLtrAyCbAfwL3vIKIP2XqKRgdHVyOsqKhCMVRjL8YnbIkGXJ6qscbqY9Z34rKd77vO6ib5AcCTj4vqkvPhR8j7Lga+p3d83ccKqAr+k/RPgnGhq5LYnUTyzpHXBBzSW0wC8NsPBuC4A4GD6wZz3kcxWOnt7rQhRO3HAEiiNnh0sP5O02TQ9o606JMzAFw0M0TqOoxgelzJ5gB3KzdpwstcMVdTVWkPnjC1BsC9tIzVm2vK7YtPLtjvAfg0i7/+z19/sq/vDtNBY5SkN6KTONJUbZdPd9rpE20MA9J0ymlrqKmyhroqRPyUjY6M2izTZL10ALJkKwHcm8Ph/JIiJrRkNdBVzCUnsLR6ZIMvfraJ+ac0jDkaKFwdTk8bpEEK4NWI6AL4EmNFOHquFpvoTjvVfdVO91y11sbjDnxUxa4u8mXDh0iSywM8j2gXgL2CHdhEcLA4yEEiQdpy1oLYFGPonx8O2L0nQxwvYx4EN05X2JE2xsXHjwHGMXs6OATNyYN8xME/u36ZDjGHlRuGLgBcY+0yJrZbNA+OsvolJqy3H6BFh30rjWzXL184a9VYEz7uH7LxCQCuenSAV9i/fHzefvvxKZudX7f/9R+37Z/3RygHU5lS3dGrVOBjrbWhwlrqqxDzy1zUb6qtsaMtjdbR1ohkNosib9L6etqtuZE6LDZ0CWNwcXBp0XmPQ1SxUOD/uyArq2DIkmFKZd5GJ+8zRgTcc49ZjzwJ6FdoF1FJxrwt428B/MX4C1teBOBwqDKAXG511tbYbadOXrO+7suIl500J8xZ4Rxlbi5J73BIggAex9ccEoT0iHZdCYozqRnUOwrcejsBfHYxY0+H0V2MTQHMNTpIhipw8CamvNrbmtFOzzIOf0FMYRx68jl/mqlGsh/BI/H03EukKAHc3FtL59F2FHer9mzkBdp0lGzqMgF4Dx5dKpGmnk9M2czcgktIqeya26ZfOn3cPjp/lLwy9r//ehcOPmir6EYc4HQEKSzh0pQ2jSumNA+uYHK8GmVAE2P+vmMt1lafpsNGkQfAW14N8J4igEfi+HuVvg4IBdSQNbWSo4deZ657cm6QxvkdXkSYDstOWKaMOVnuOLeiScgctRwLrEq4uIvoaG/TZCKdr0TyylQD86y9drr3BuLoFWuobbdUhtVOKS1oVMM6IC/+GsXYDuBSgiFjM9OAEQlWLAtLS3SOUIr3WwTlU/PLNp8o2LA2h75pq66ssDrE4CXmo2dfzruIrpG28j/a2kBFZG0Ojr+M5l2dhqaYywFebXWVK+BmF5epC2gtkR+QNjU06Ax/bVgYMj/uQyDmx5kcQ4KqsdbWWsqxZl/+8NRuP9EUW+DgGgoY8bxbQhsv2cPt0+H+VUyLnu5osbMnmqyzNW3nevDo0qj6Qw6J02QD/QVT1YKSTTV7CGuXUn+wgZYlvqxxY9aW0f4+t/7nP9vg+I82vzps2bKXfNa4J7FQCrOgOJPH3EqUbC/gQksvAbiaGXlI2ZTCoq0y3UyDPQtX+sR6T1yyqnLs1eHwindYAK6OLwaVWQJ5bL/q7ATwjDo2uN40Y+4ng8M2ObvA+m0WlXB9GbFIi0uAqIMbfgyNJFpzH434MoB0Fk2uelSNLzxBgmKMrfwFXAedpF99SKvOQxzflXp0JuVa6OOlCvPfqkUHL1zcJ7yQGhbXsCsfnWLKbpnnVXp6acwVN7pJzgF2tGykXbUmxu9XTx2Hi9dZY+WSnT3Z5hw8XSyiFwPcfUO5iF4gELmXwkGgAC1LS0hyTIktr09jEHHHnsC9ZxafYUY56+PxDCKcas6boYMcbyIagxdx8HIanxqjxpASxw0DmKp0m3V1XLbL539rnUdOc11eR8TlD8KL716GYoCH2AHW4Rj9NrTQ/LZMyEbkkIEFJE9wjLgMVjJw6wxADOu7pLgUBw8zFAKgxG8pK2UEo+AKTq7pnobRkgwCvXWXeCjFiMSROkhBX8o5xaVMTnv1rnQ6nj7ko2WojjhE+RX6kvWM4mCf4H8e3fPO0RnQdaAUzSJdVDC3fsQ+PnfSGivobBZG0am0YKm4aQxeArgq5hAE0JalZ86mV+E+A/Zw8Bs0578YZ1xDHHRwR82xegM1MC1XZAwugKNkW0ZsTKuRefODSeiYhSe5TDXWbSewo/7EPjr7mbU0HEdUlwFMaNQHnTrbAVzdIVRwOjCpxBsDNPqzkakV+9v3PzPvPQbnRvAFVH4voYriBoBDSyGYf2DIcZALBE7QGQDqhCkCOPG1y4geLKlBz08hJSgf58ReIM8yXNP15Bkc8afOiI+bEJNvZLZ0BhLRKzBaqoNrtyHSdx9rtY9wIqE15kszMzYz+dT6uliOihY99SoRvcTBvcYO3pc3GAF82VZys/Z46DtMIb+1+ZVhGugSH4271XDUgsKRXkKmqGl2qynnMznJPDhGHQ5woqm5+gcQ5wTmTD3j8dN27fx/Yy73Bksa67kvRQ9BWR6CUAB6eDcVOcx7w6UB3Drv/Xxm1f7zOwDOjj5LrALLOsATYDn9pJArgFKw839+fL47Abi4ugfVTXyw4iTXI8AFbK8VgV+A1p9AHaivxPr34GklEcC9/Q3oLNQZVzMZ3sSU2BHMUI8xZdZ1tNlOdrRi+FKFO6icjQ6O2cz0oPV0t+KTrQTwQM1D8q22o0Yh5cp6asFeoC2/8+TvNrnwCKMMRHONuz2O4nlTooFoLKjGLQGx3Ln4FABfYfrGx6ji3PpjLKcUUrhZhjnVslYazyW7cfkPeVE9aHKJcwjoFXEWKaEiC+B6B3FpqcPG57P295/u2J3+MXuZcHDNTAi8EredhhyLa2cZY+vNRTNdl3ukQA+BUsehZgJ1SO/58OUhUExGKYF44u6uIUnu86POlWcJ4BLfszjncAnBHXPgKQZFWj3APtfbibFLp3XiErm5OsXceQqjGXQEZJHFjn4YK7zZ2WE8urCzCaAvK3HwAo0P1pEaRWgYXi4O1SSyKFZkrba4Ps7Y8Tu73/81yqFJxo7YNNPh5/2C+aDZ+34ajyAMwImQpsEI4KvYXbtCKHlG4OC0LjUwTY9la6w63Y6V2+d2/aMvrL7mKJlLhEdwReFUKFk8IuGBDyq3yhsAPrGYsy/xevozZqZzKLWk4loXuPn18XQCuMhlvT7gwuK+AmgYg4dzvXrgvqKD8lAnINBH+ihCiOTdgSKrY+DjlNNpAnLluw7AtVOKg17KN+r9bM8x++2N0yxWaUaRhkxFcgFbhsr6ZAD4gExV5bIJn29NABzV4PZadM3lhQL44zkphXdLgdBI9EyvAU41ts4y0l7PLdjYDEsXB/5u4zMPqV3mX+mpffxI46DJ0b7UjPjxVhcadgT45BQuhOTmk4Ycm7yeUkbc8FSuo1VPZZiyaThtn1z9C3PkVxDp6wB4gEjoEPwRh+groSlA0tB2ZiVn39zpt2/vP+WYVWTARBp20TEAnFdz4HEqji7AJuNovbSA6NecxoKLwB7oLu7rSu8i6iha6Cx0oGPFlQSgfLmgMb96aZ4l02LVoYv1HB9lqehneGO9eeEY68grDIfIdMJ0tqTVTIjks3WkjIHBfjY+CB5dxMGliNt2mqwE8KKaeY+H0axSjSGLFZOl1zBHHUex9k/G3t+g/ZULoVUaJtpXKs3HjHmAA1jnSLQVNQiOJcxNTbOVjuybNwCcOGosXHUYsOhEziAqU212uvsz+/jan7Ge6kRU9UkzjyOyuKCgg0MRAsAFIgEcuxb7+ek49t4PEdeX6TrD+FxDZ+/qHIR6sZAO9AWA6xLHsRNw0BLFAU5iQTVwXx0VgpJ4XAE7nHhcXfNnOrjFi5W34mC/vrpsbW6e2mWf4SSil2mwWtapMoHCBymCtKpjdUB7BHhw+FACeKFi3udRACx1rQp3oxaNvZ9i+/wlXPwuMhpz3s7Z1bDEV2NcP9KJF99HlDQgieWTU9OIc7qfaHc9pVpo4OeRO/sa8Ww9llGscLr6J7j4dassqyMejZDkHk+5KysHgX4PcghA1VSZXmGF00dD8/bXH+/ZIAtFluHOUsA5B+ed/LWgiX4DsxUQAz393KWlwIFdXCdeVKxF7l5MDXUA+gvg1o8/wTsGZs8goaQE8qfXdM6LaF5Ot3P9fK998lGfne1qYO2ANk9QZ60OQB/FVT1i3wYHHxwawOkiq8m08UFLNcBHt1IwdJl1p4s9PexNJklBnCCUobicpeN3QIEElzxJDYw/5jt97L02gVHLbfxtf4UxxAgePqVYg3tT2V5VtA9vRPpWW0zqT5zZL3BxmiWKGVlfkLc4sKI5F6ChKOhc6fwac+MVcPFTXTfs1tU/WzNcXGvHpbQLHUHIJ0mllAc4+JtSvjAGz4CU8dl1+9tPKCufjdhLOr0MswwCm0vMejV/SwFX9IAsScWEXUGT+6K9x9U5dE+OI4B1VcEvc9PrR/l4foof0mgCTIkFSsN4pQqJ7eyJdvv9jfN2rrsJcGONSCIE+aRUykAZq2NG+kDTrjG4HD4I4I0AvKwY4LJFl1dVbT5IZxJ6CS9a6etdUyBpR0lV0gDQkK/bok2/HLJHA98A8p8QM+cc9FmN1VTTalkJOlXvCsongtgbAxxINtVZAdxBGpIoTjgqgNzTAWbLakFKt316/S+scb4EF8fUUuvGSaFxu9KpyR2OEMRZjbWZEcTyz+wnzEG/vfPExnCNHMbhGgPrbfROvJtIBcAVNgPcOTWRpVDLB47jNFj+WnIQuDj5KnqSxEX0fHqBex3NuNmp40fsEzYp/Ki3haWkAjeloSBivIK0hyQfbT64DsDzDh8c4NKiF3HwEsADzQ7Cd37sTWF8QQma8+XMDAYt9zHM+Ae2ys8sVbnMPVwiU+ECeAApNZ60H72HX+fXm4MaAw01AFw3pZpRiGkVK350xLEsQljsUJFqxqPIF7gN+i3LE48y/pMC5/ABXO8kUDrA+V3lJQYnlu3bu+wCyhzy7BLjXsAiG3TVgaQYxxC4U4gAD6AM15zKADSP0TzA4/3kl4y8I1CGMXCsdKGD5iHoUuqry+3UiVa7eb7HLnY3W1sd4CaOj7fpzEOJknoKiXmnrQDX3mQbRPQSwCPV3/9vGHurEql6Wa2VYXO+MmaPB79neuyfTJO9sHSFloLSIEMT9EKr8mP7ib+65o1CF/IcXFkXAVypXGwIsR3cRBGnNqbNcmvVGFRcw4PJn+xY62ns1uvh3kFMj+m8AAf8K8BCGu5kvE3/JW363WcT9sPDZzaA6yWNxTFWh1Tq/vhAGonoCg7whLA+LCqgOgDV7wWwBykgpFN3GURxRYgZ8BwHaLhWBngbaisYDrXj9eW4nTnB6jDmuhl2Q2vlE8Gd5On1peyoXwC+QURnSq3J/aKXOHhCrYP1EwGOsEdDQzzHcYPWeN9/hlnq5F0/T5eLdwf+rUajxhtD0oQ4DeCOsJX15Ax+x9xMugjgSicJIEoOAm3IDxCjcs6uV7EksctuXPwX1jnfsrrKNhod8+X8KWa+nccCHNBfvZM+AqqUaRktIgFAo9Os22YduLy5jM8tMRwSwDXiDSCPOPT3JK2mpoINucCcdKqin3LXOccFsT08VddUn+oYXCknuZ+KUN1UsYmCthM+jSeW8+x8chKz0ybAXUkU/DgwwlbQczwTf4dwRZe5BsBlGhvH4HHzwRIHF5UOYHBY0oocwIjnK6zvHp64Y/eefW1TLwdgqliiyXJNjUTtRxW/XVDdcy8PcMbeMzgVlBZd2lfBc6fgNugab6ORKkdMP9dzyw1fWhpOuJieTgWf6mrshyWEN1anFLi4jPfwYGUD+Kq7/Qjb/qExdB1rrMNmBxPMV1MCuuLyioHc0A3xXSdyuCiAC2QB3KoJnQvgoklCfdIribhwMJKR3YHWdGfcfVNne5NbqGmZ59HmGpwq+noYF80DuEmq5yhjQqy1/BWkDS1UKQa4bx9cbOhSEtGddgfiS40lC0t1byzpFWzNR9xy7dHQP9H2vmAFIZybxf9iu6HKC5WuF4jXJNpFgOtIyrUAcIl7Arg41E4h6QQyNLP1WryGnLNPrv27nTh6FmWbxHQ06vxRmJ0yOVD3IjgkfvvqMkonVcMctgHPxqYR14ehtfYaW/U9xXICOB/Xrnt/mtCMVy6AOxxHMTw8Q52IIE0dQR9ZAOZkEowoLq8vtbDmIywWOclikVPdR623Mzhs0By3jFjkltnXC3gHIhKGjnojMVW73HkVwItNVUsA30i693pGd09fD8ixO2cRydTLZ5ilfmX9Y2jPWe+dYvytzQTfPsD9ETQ0nBesluMH7IR9eu0vdhrvLzUVLQHg4k7OXd4rxV774ergBBntRiIV9Ro/cyv4FoeTPxx8wTLcafy0LeGVJYeGOqwj19jdxXt/X8GYD8fezTrggwiuwsgbjri13+NXGu00wK5jnN2Ey6XjuFjqxU1yD44a2uHaXDYWiXlnqZJpGOBdiRDsYSvAwxUi7hXg9UyT9TBNVpoHj0R9P7+qOAE8h0+1Vbyijk7ft3v9f2MF1EO49yo9Nj64+VOI9a/mFkO89us5uACu0sDF1llummq16xf/aB+d+Q2ugTsAOJpaAZxSaAx/mIIArhBoDb05ZRtvg3EzZbaM48oZ3E5P2Sh7jk0zLl9axbElb6pdR9wwJXlZf20HuTIDzojmGrLETk9YEvduYj/wtuY66ziC/7Qj8rzSiDhebY1VWgYEnRkmaNpRnUAIyiOUMdSySloIihV0JrpaENGn2Lqot6/TlWxWzMHDevCSJVuBhO/riMYmToEoZ+WYpiKSP3v+I2PDr1xUd+6NhZMUNgqxOWyufN3bDuBTKNlyiOp7E9GVi5oPCjW8u2RWqlECsQDl4hfW3nIKzl6DEu5wAlzvFUDu3ZPTUcx8HUyhWGfr3xyusNZwQT3HZ9rGpufwobYI0HGThUJL3FkGLxkW4ETFWRloLgPM2peg0t02VeL8kOW3OEXsPNJsx5obMPmtYCoMBRqRWDPi4NYQx7m2lymBM/fUafKTD7GuI+BfBfAe3Cs303kkAH/E9sFZKwE8T8f3fBABTpeOpdrc8ijg/sYej3zt/tZy5VrzrU+o7ljp2zWE/QC4xpXy3SatuabLutov281Lf7QTxy7hQKLxUANcFV0AOdIxQyOo7pxczlS0+cEyCsn55Sy7w6yxT/iC734yN7/AdWwTlpGkALrnQ9rKikqrqcVpBp9WthDWjiTNjLPrWdZZzaBan6gV11jbDVfg+Kq7+FFeea8xiqMLSSjUeHLkmjvF2MjBNwH8YQLwYMkmr6oSK1xlSOWWwrumQDLOk8xWvmwTC7jyZfw98OJ7t16TJ5d1uezxedq3z8GlGHKAS0xfq2TTvFN29cIXbr6qzROiVdvhEdGD2OsSUr5qk2vASbKNWr1gK46OMOWfNTj1Op9llHH6FecWBxfGHGdKxIE2IqgAyM6h4eKVHAuCoo+D2o/1FAGbi0rnwWP5kZ6pECzXwrG+Q1S+k/vqesNJCeAFKh34owLAc+lF7KWf2N3+v9vI9M8AfAHusoIlFvOnKHEUYvtI6nzDtW05OLboWdiTpsh216KTfwS4lEZsedRQ2WEfnf4tLp1+h236CfhA2NMsADyWxotxAL+KQRQ4b6GQAdyCo9MSsCqG3ih+wHOe3hFkMX2eFxJHgBftteNIYJako0OQ4izffShBeJCG7nzUWSR16te5nXD3/DP0dL/Hr+e0HcBZLspcejMeXRIRvcTBIwHfzW9Se/4wVZRCuKZvH41xWX7XMmVSsD2Ag7P2e+4e9tMLXA/mqS5aqqtPWGcU2WNeynUrwFOsJptx4Uzg3m0eXHmo9YVGT2y8vZTnGnE+8HF+HG64Vw5WcWpsETQb30tvdXBCQv9tRQ7uUVSHeDgMJY/FT5IKkLsFj8pXkiTJNyYMv5FTF8iTxI6JdnnQ5jG4bx/M1kW9fViyCeBhHrwE8N0qa3/vq/b0USXHChc4kobFrziFgLyWmnXLtfsDX9rEy4dwcDl3wHSVdHkN67YAp4mSR+BJAqieA0fCGdlUAnCtQApP1ZN3CbRE5/dyBLFejaO/S3bz8r/aifaL5FJLYekskiFDeKcI9PgEPV+fgxcilraW7NV3/F12eh1Pul36QqLC0dYn7/XKqwHeAcC1sHRVy0WlZMMKpr80Bt8rYX9dPFW8PqriWM3bARwlTm6KPal/sQeDX9n00lPLILIL4Eql6SkPWwAe8hL3Vv4R5MUAD4x2rwDnOQ5wIA7ANQ4/1nIWu/R/Y3XZVQwy6hOAS7yM73R4AO403OUrofQusbbejrW79c7+XHklwBHRnYMznZoAvKRF3x+S7yUXNRd9IhiUZjPAmQST77WMtqy9bQ+H/2GzKwNwcAFcel6BTukIbxvgPhfrQiuPQuwD4K0NvXbr0r/amZM38aXe5K6cfJuj/Dt9WAAPhD5431sAPjjIev/RojG4A/xxwsG1s0m7FRw+0IJ2GQMcvFc+LCWKPCGidDPAMWMB4C9xrqg58EfD39j8+hDXcI0sgEuLEzH0lgEunUAwZlFfIoBjiVV7wm589Gd2Jf0Ei7ZW5tUlon+4HPygtqoon2lGJdiis3EiDh96cLoYlGxFAC+Zqr7PaiwGONxb1lBMhy2sPccu+gfmwL+1hczoewC4BHwB3GUGN3bJrpdbQ3WnXb/wR7t4+nNWlh1hbI+4D8DDtjrqtGLvE95ro7TyPun8YT1blBbIpX2PAHePLvKqyhh8w8YHJYC/z8oXR5cYrF/pw8XBVxKAf2+PWAP+MvP83QMc8VwLGSTJSeMuYxcHeE2HXQPgF/o+xT69HQ6unUj1kVVXCeDvqiWVAP6uKL0vzxG8xfEEcHlJZRWZc3AB/LsE4NqpUiK6Yy489W2K6BHgPMm9ssoBBEtHGwH4VTy8SESvq2z3ayWA70sjeK1MSgB/LXK9/8gB4IJ4EcBHv7fHw/+0hXU4OEtHfy3Ap6dmmQdX09iDFj0CHC26uh5tipDChZMWmlw7/wd22viUTeiPYMCtje5KHPxdt6CtAEfJxjy4b3yAiF7GjEveq2pJRH/X1bP1ecUAD1p0LTT5gWmyf7CUcQjbdPkM0zoyrTSSOE94TQ4+w6IJ7XL5OgCPSrYyOLjG2y31XTh++CNa9I/x091W4uBeEe/+a6uSTV5V2dnkZLtPk5XhmbUE8HdfL698YgS4hr1Bix4B/iXTZACc1WVvDHA079J2C+AZ32tr7xy8AHC0tQC8rbHHblz6M/boN/E+0lIC+Ctr9G3eiBYOUrJhxFTk0cX9ouN0sYzNKEsAf5t18Jp5R4BrFJ5jF5NlXDUNjt9mm6IvbXLpGQBn9ZI4ePH05V45+BsDHLdFyIKuT0dqkELtKEtFb17C0OUEmyHgykk+iEsi+mtW9q+OvjvAUyUR/VdTeV8ziADPaAkiThVXDVfJWLLdx5LtxfxDfLFp/+9fB/DZmXlbZ6M6GddoXL1j8DF4BDiryhzgle666dblf7eeTizZrCEBeGmabEda7vvN7QE+NTPCPDimqu5VtYiDx/XgPT3dvmjd19IUc4p9L2Apw80UiAD3VUuIV+ssNhmbeeCryUanfsF32KKvINFeZHLT4+E1Ofgca5rXcFqwd4DHeXABnGkzVpR1d1zBVPV/4JvtEksgZYsucV/lCWqf0jx4qJq3+/0KgOPRRevBNwE8mqq2WWk9+Nutlp1yDwCnawUnOQCuxSUTC/LH9qX1j3/vi09SeMEP3lRfD+Aap+VwniiAr+CoQM/StURV94pihUbk3xjfaB48hfPFUydu2q3L/92OtZ1nhRl7YMnzqudUAvgrCPkWLu8M8CKPLjJVzdnAM0xVG1pLAH8LVbHXLCPA5djPNzUoX7KZ5WGmyYJHl8W1cUvjLDsD2AIHB5575OAB4OUAfN4BrlG1VoDtDHDxZMUA3Ppol5NcC26bPmO56J9RtvXRacgvmwCuUAK4k+GdfJUA/k7IvJ8PCQBXjhog4feLee8F2aOPaars7za3NGTlVQK4VpTJi9d2ABcv5U9Y8xjJZIpz8HKbn8Pd0NKKP2NvAA+gdZ9h2SqrK++wS2d+b5fO/t5t0nPMgWu7zgLA9VxNw+lKuFoAvu6Vwv5QoATw/aHjO80lgDMAHGUaWvOVHIq2yTuI6f+Jd5dH7KqzEsR3QFUM8ACiCChy8HnyBNyKCbeWiP7aAKenUK7uPALPqm0NpzFT/QNz4Ldw9YuZKpZt+bXpPKcQIsAjVy++V4hVOnoDCkBarxVJetRO8TSZvKpu8slWEtHfgMRvMUnSMwOsXBq/6Ckc/c0/gYMzDsfoRW6bTONzcfACnreUJ3BwdRhqAvoQH8cMrwtwiQIOVRyUaS14b8d15sD/hLOHCzgQbIJZy2VT1MdHEMdzpSwBfEvl/MoLod6pDz8oAfxXkvPdJ9c6X4cFU2IZlojOrQzb09Fvccj/NX7Sp+Dg8osOdPYEcMkD3s+/AcB9Rp6xusBNF5Gps8uI59c/+oI14T1w9aBBz1vV5UnlXQJnJYDnSbKPB28A8JIWfR/pvw9ZASiwoa0FZdG2nJ3As8ttttX5knH4gC8l9W2F3zrAvRuB96NiW0uzKX2rfYz2/NLZ37CK7FiiYJOiTt0RhdnQ46hwsYCRi+8DaUpZJGSG6k7vTRzc14PL6WLeL3qxwwd2Nuk56Z4gS/Pg77MlCTLy0S2As7so8+Ev5h7Z3adfMi9+j2svMXhhQQoc3kOCr+ISF0T0X8PBE4Azz22Mv5vquuw3N/6n9XVdw4JN4nkl0BeItwO4ShNBnpSzuICl4zemwE4cXOvB3dAFU9UNO5uUFpu8Mb3fQsIAcG1AKCDLVdP86qg9Gf7Onib7g2tbI191xre73FUpEKVjiGJzgFgU0dM2OzNrqyvBr/quk2TOeBntM/+dzjVY34lrduvqv9nRpj6mzGoZe2t30QhwRVbgfAMnD1dL3/tHgR0BPgvAT3ZYYxMOMkumqvtH9P3NKQBcY3EHOGvDVxh7a2+yRwNf2ejUQ/bG0TicjbS2C7SAADzBTeDmI/CjENNik9UVDF3QqkdV2HZZ6JpLAfL+ryWicvLA/uAX+j63GtaAp+Do2jtc+Xi/EqWJEsBfRc59u74TwGfmWC7afawE8H2j9lvJqBjgiOl4x8wglruyDQ7+ePh7xuUo27guPAnMUoflwysALo6r9eB7BzhdAJp3+UPv67oM9/4T3Puc+0bXunDteCJwuxeXEsDz5H/bByWAv20Kv/X8QY0jV+Nwielr4Cxw8fHZB3bn6Vc2MfcYZdsKAAvQ9u8ijG/l4MAxVWkTL6awRY8i+g4vok5CBiw4Wqxlq+Cbl3Hw0Mf674oOODebDjKnLhHfJQNlUwL4DsTc31uvA/D/AgAA//8Iq48OAAA+4klEQVTtXQdgFNUWvSmkhwCh14QmTZAqKFUQywdBFLAhWBBUUFCsgIhi//aGIiJSFOyooKIUAenSOwQSQgupkJCe/efct5PdbDYhINW/A9mdnXn1vntue+/NeO04tMeWejxX9sekSGhIealZs7p4eYt42/LEc5wvCnihYvx5eYkNZ3mSK7le2fhLlfS8oxJ1YL3s2r9c0nMSMVB5kueFVMzCgxlwmJ828bLxgk18fHzF3zdQjhw5KuknMsTX28dK5JSepzZhFm8vH/GxlRLJDZBaVRtLi0u7SKWytcVHSotXrj/4wzu/Si3A83HOKGDTwQVv6IkX2MRL8nJzJWZ/jCQfOyw1a1SS0mF+uJ4jXh6An7NxOcWKOIr4s4M8R3IA5AzJ80mVo8eiZGvUIolL2QvoZ+J6LiWylq+fQKg9N/DKK3ni61NKAvyC5PDhODmRlg6A+9oBbvKpKFHGAcAh271sEAAAcpmQ6nJZw/ZSr1YLCfQrL965gaiqFMrnP+Q1/0+xb57k/4QCHoD/E+pdMHkVbWgNYeQFINsA5Gyx+aRDc8fJ3sNrZE/seknLPIrrWWKDJrdRk+MgpvMBbr9AQAcFhMjBQ4clPS1TvL2hge2AVpSyFi+71QYOsuX6iq+ESZ0aLaR5ow5SvkyE+NpCxCvPDwD30bxsmcoPrdXzca4o4AH4uaL02ayHYMVI8l8e/gjyPAAwzytTcryPSWLqHtmzf60cTtwtGbnJasLbCFBqfINz5LADHRd8APDgwDAFODW4N/0wFQhaMlKabwW9zRdADpJyobWk6SWdpE7NphLgUxaAD4IxAMFA89yeV0lgOO5sUsNTthMFigV4Ckz0mm5M9Jho44PXqlUd0p2MQQazc4pT4Z7Tc0QBBTjrIky97QCHFqep7n1CsiRejiTuUn88/tg+ycxNhRbPgUxAev5ZY4dvllDKx09Kh4TL/tgDkpaWhmv4lw9wmPj5YoQA9pcgv4owy1tLwzrtAHTwRF4g/G/4dSp0kJysoW1k6Z7jXFKgOIAnJR+SWrUqS1gZf4xPtsMHj4lO1iBbRERNBbg6YhaTnMvWe+pyQwEDIqNjAXLvTLH5npAMmOrRhzfJvkObJCn1ALR4uprpBuTEOFAIpe4NwPv5BEiF8KqyJ2qvHE9NURkAOY6DZjltBP4Rs75SyjtMqlZoBNO8s1QsV0/88Ns7j1od4Nd/zOc5zhcFTgbwmrUqSZkyAR6An68BOr16FX52TQ5f3JfBtVRJOhEr0Yc2SwyAnpoVh2u4B3+cBwUCNa43dG8pALxa5UjZsXMnIq0JAL1N/1ThI6pmSkfkXAKlXOla0gCau0GdNlLKq6z45AVoOSgcZTGlqm+tw/Nx7ilQHMATkw5KrYjKHoCf+2EpeY2EEA/jIBlAUXNCJOsfo+a5GljLkmzbMYk/Hg1TfY0cTtgh6fDHaaoDiaYAaF0fLz/x8w2SalXryvbt2yQpKQ5ToXl2kCMdRQG4xscrQMKCq8DnbiH1I1tL2dAaiKQjap5XSoP02i7DXczkOc4TBTwAP0+EP1PVKpBQmPGe+YtnBu7GH7dJrg3+tjdi695ZkmlLRrBtG0z19Zg6i5Is23Ekg18NE91mB7h/qdJSo0pd2blrl8QnxkJWGL+b5jutdB/xl9CgChJR/VJpWLcNpsfgquUGiy9Az8CaN5JpuzwAP1PDfNrleAB+2qS7eDKqfw0tnYugmw0+eSYWwBxJ2il7CfLkvdDsaQA5TG+Y1dTMgaXgV1euI7EHYmX/wV0QF1noLO4jIm7LxfIVgLt2zWZySe1WUrFspORmByC7P+bL7XPelny5eEj0r22pB+D/2qF1dIwA98JqM8x+azAl1weR9bwEgHuX7Du4UQ4n7ZPsnDQETL0QNAuQkMBwqVwhUuKOYiVc9FbJykpDzlxo5lISEhAOcDdRcHO+28cWLHk5mO+WUpheox/vqNdzdv4p4AH4+R+Ds94CNZe1Fh81181il3To5WRJPB4jMYe2ycH4PZKVmSoBvgFSrkxlRMQjJCEpSfbFbJfjacmSl5eH65VgljeU2jUaS3gZmOVYzGLLIbAxzQLt7oi0n/UueSooIQU8AC8hoS7mZMYnp3b1Ue9cA29YtmrzzoDRjuh6aixAvh0aO0bysrOlUvmqAHN1OXEiXWJioyQpOV6Cg0KkTmQDqVGtPoJrlWGOh8Jc90eZmBIDuOl100VXJ/1iJta/rO3FAZzz4DUxD16m8Dw4F7qEC+fBuQCC86LKOf8y4vxbuqPjo/rVAJGDRZPbhg0GnCrLzDsmKScOy1EAPDH+iIQGh2IlWzg2JdgkOeWoZGZlSKUKVaRq1QjcqwBAByAgB7McEXdqbhO1J7XMlNu/hW7/hn6cDOD5C13EaaELd5OFBDsB3LOb7ILmBVeAG41OkAOS1pJWBNpOpCdK/NEDkp2ZpcE2amUbIvDBwcFSrlxFCcLyVW9E0G2YCrNhMaqZ6abaNo63KfGCJsX/XeOKA3hyUUtVPQC/yPgEIObcNafNVNtagTBcIijz7Jo8Ly8Du8cSJSUpEdtEs8Qb20ZDQ4JhwpWVwMDSyA1g59HMx+4x/SMdzLQcy+GZ57iwKFAswIvbLurR4BfWQBbbGm4sAagxCWYAzh/5B/U7/3GuOxsR8XRJTkrAApdk8fH1lfDw8gB5KPaIY4UatDZNctXs3ICiB81yS4N7AG4nygXz5QH4BTMUZ7MhFqCpv/nPFZDQ4upm5ULT58ixY0kSHx+v20QrVqwI7R2MczzQwQsAR27Hn6W3Le3tAfjZHMXTKdsD8NOh2kWexy0MAXDuP6M+T009JkfjjqgoqFS5kgQEBinAsSLd3nNTgoqJ/IlvXDPcdJFT59/VfA/A/13jWaLeFAVwNbUB9PSME3L40EEtq3LlygiuBWM9uq/C37mCQngudME5tef8fFDAA/DzQfXzXKdbgEN/64o3+OKZmZly8OBB/M6TKgQ45sD58D2HBjcdsAz/89wdT/XFUKBYgBcVRTcPfHCaJoNst7t1xVTluXWhUMA9wNE67gnHQGZh3tsCeGX44EEhBDii5y4a2gPwC2VEi25HcQAv8MAH53lwzwMfiiboxXCnEMDNEjRg20TEMzIy1ESnRmeQLTSktD79RfHv1EEPwJ2IcYGengzgRaxk8zzR5QIdzxI1yx3AFawAOCPsGRmZEnfkiK4/Dw8PB8DxAEU8OtkV0K6/S1S5J9E5pUBxAPc88OGcDsW5q6wogNPn5pGTlS0pKSkKcII7MCAQFroVQXe00wNwBy0u1DMPwC/UkTmL7SoEcNRFsOq+cXxz51g2Np3wt78vdov58sUHhXN5AH4WB+kMFe0B+Bki5IVcjAOaPHP8crTZLFhx/MaZ3eHW1ApuGu/u8lq5VERYPzzfFwgFPAC/QAbibDbDAcvCZraptzDAHXmsFLzietW11cbEd73q+X3+KOAB+Pmj/Rmr+WSwc1RUcoA78lhnHoBblLiYvk8T4I794HzxgU6vuM6hXExUuIjbWnJws5MegF/EQ31aTS8O4OaBD26ei+68XfSsAVw5186+RQgPGpY8dAOFPQhUKPBTRN7TotYFmKlEALfTJn/ZuEs/yARWgM3lltNP1nSy2v5PTXQlC7nQHMqD4Dt+W9fst+wXXK8irZ1x+fbP/B/5mU7/5GQAz3/gg/ObTZwBbp7ogtZZLTz9tpxyTrcAPw/tOOWGn8EMrqxiina6ilPrlzuAk69IRzt/FdMylmKVVFSy/y+AWzQjKC3KWNfyKXQyfrTnzbOnU4BzNAoVlF/iKZ0UB/Bz/sCHQn0q0Gk3/XKhquZ3IaghmJu8/5JLFgmcu+PaZ1ueoay7tMxnmOBkPMXcRZVg1f5/BnCL1whSkgZkpqg0gOc17M3j2gInxi7Eo5q3KLpqgRZxT+u7WICf6wc+ONGhQGeK6n6hREoPqxSTq0R5CxR0cf1w1z9XgHspI7pLafpqaXCLcu4pwPxFl2G4uPgS3Jd78V6lW6OABl0K0Jyg1W5xapFMWZAuBX8ZqhbIbyeJyfvP6HPBAFw7CMJwNVVubi4e+McnjOCpX3DyfXz4jmkSCwc/lHroPgnHP9ieNizO4AINvY20vnhDpuZxIS6LOOnhjo9Z8AV4FG4qaYEHKoIWhqYgD5++Yqlpex+0O0osc4G3Nb3+LFyqScXrTGh+FWTcC41AViPtbT3lr5L3h0BU3gOvGX7F1lo8sFIPBTvPzW/ybK6Oj5WWj7/COcYoJydH/1iGL3leA1xWTlPcqX5eMADXl8yj9dzokJAQLwmJicpHIaGh2LJYBU8VCQQR0VkQCDQDSUAwCAM+pCAzI10SE/GYoeRk7T/3L1etWk0CAoKQh4TlYBsiO5hYk7r9cE2jQ+MiKJRweqNgERZbubmVn9BKY13IT+t6gwmsm3zskrsDDTH/CFCbpKen42ENcXL8WIqUKsU93LzO6DkLNxWo5gHtSBvSnTQuV47PXSONzTVHxaZS0wzkJ8OaATAC1tzG9SLaZ91n3VqIaUP+5bNwYvTnP62HjbWIX7CRhn64RjrgSDuRhifSHtVdeHx+XZUqVXHOF0XwGXikJ0x1gJrlpaefkKPxR/HsuxN4bW+YVKpYSXyxWpAjxDfJHD58WMqWLYvr2MUXxH343KZb+HB3rXAq1KhNpOLkiRk7Ks+Y/TF4sSTeD17DzfvBCwXZ6Gf8w4OMRq1z4MABWbpsmaxctVo1ee3ICOl+dXdp2LABavAGofgiPJLKAJ2E2xe9VxYsXCDr1q3TVjRo0FBu7H2j1KqJ1+rkGK1uBsvuH9kHxmoyB8z5cAW48z3rnDkK5bNu2r8LlmouGpZwSYifTOuu3vw63EXImMf+D41BIXkSGxsrf/zxu6xZu0aZSpnRZXrMKpO09A8IkBbNm0v3a7qDXrWU5prHhSY6PqiPwSArv7v2Ion7Q4lRVO/dZzmdq6YGfv7TuthgbXShZhj6gBuxPj8rO0e279gm8+f/LocOHZYrrmgnvXv1Qu3G6szNwWOw0BTs1VGrNCoqShYtXixRe/dKs6ZN5Jru10j5cuVVMM/5cY4sXPSnXFK/nlyD8ahbp46CXwNwLt1x37JCTb2QAA4CgBi78MK7L76cLbO+/Eqyoc2r1oqQuwfdIQMH3qkSkUxJxiLAfUjgzAxZsnSJfDDxI1mz4i+8+raUtO3YUUY/9ZQ0bNBYNZLyqgLEPVlcGdX1N4NU/FfgQBu0HS5AsMbBJXXBrAV+OdjIAo7zbde2ON/jef59tgMA37ptq3w08WOZ8/23+M03h+I5alajrMxIy1cZ0R3y9w+Snr17yP1DhwoFI9eg58JU9IaJ6HwYTUIhjGLtfXaRk87JizhnQ1wbU0TSf3DZOHPFjUDJCi+qBAvgPr7ekoFHTC9b9pdMBP/t3rVb+t3ST558/DEISmpu0Ji8Y8sFUPFWmdxsWbV6tXwyeYqsXLFKevXuKcMffEBqVq+O97Afl1deeV2mfvq5XNHxShnx8DC57LJmUgraPRdluJKtqLa59uyUNPj2g7ttqcdzpYAGh23hZUbdtewS/9Zhx0debo7sxDupp8/4Qr6YPlPystLFzz9ErgcDTnhuvATzwQPoKd9yqUwGszAJj/j9Yc4ceffd9yXhUAzM0gBp3b6DjB83DgBvBIaFP+oETgIiHxRsISjlfJ+XCtznBdfDnodEZtp8hndJ524QimJvqyznIjS/iwBxvs9z3ibQDA1tsnXrZpn4wUSZ9+PPUqdhfenUsYP4BeCBiU4HZKSajWw3fb169etL28vbSvnwCmCmPLyKCJaSa72ox0aTM9/cJ+NqC51KLsmptrQkCU8rzZkCNysvqnfsN7vu7eMFUzxLLc733n1Pdm/fJf0G3Cbjxo6B4oGQpNoGNmhlgqRa4urVa2TSpE/kr2UrpVefnjLioWFSvVo1aPA0eX7CqzL906lyeYf28tioEdKsWVPkg5uFylx5sqi2sRbnoziAJ6UcgtVWWUqHMV6VI17uAK4NPxMABzkJ8D27d8vML76UaZ9Px1srM6ClS0mDSy+VN//7CjRMAxCLDA1NAqmYl5eDl9TvkJkzvzAaPysVr9TxlRZg1heef14aNWqC1+9kKDP74hHAlnmZA7MqF3XxscC+ePY3AaIMDULqoKAtFkENQ5vfHFTdUmkHtTPhKXSYJy8XDWRf8Mlr1ISGIVAGrjGAaJVtAYS/LY1pBVp4j2ZxqVLwz/DNvNk52aAHAzgog34KrloDzV+sd9vWLdDgH8nCBYulT99eMnTIfXhJRYjkMI+mwaf+Z152SMTPzx/+dxAJC+1NX1GgcVAPiM3ymU+/7e3gff4ml7PtKhTQT8u6IkNng8alUAZpjCRMqnSgP0rfNAuCl+UygGqe6Cp4VBReuIDfFi2ZkeUznY4PvnlOa4J01ELthTMf06uvi8qoOdkeLQ/peVj1+AB41KYsh+WxLxw30lzTwzKk1uR9lqHuCTtgP8x42gGebQD+7tvvStTOPdJ/wK3yjALc0JF9IV9TGJBf16xZK598MlmWLv1LevfpBU39kFRDjCkz64Q8//xrMm3yJwB4JxkFgF/WrJmdPqiY/XQ6HK1xuujmtFiA49VFBRa6WAA/00900UEDmQ3AdynAp0+bqUwWGhaq78h6YcI46d27FwafjEfGIkOky/zff5fJn06RPVF78XBAf4k/dECaA+AvPj8BAG+MNASFjz4GePfuPRAIOzUIRYYpW6aMREZGIl1DqVSpkgENrh87dkzW/r1O0hAIubQJzfw82b0nSg7EHsBAZOJFAMhXO1Lq1a2rAZEcDCABQUbIgYkbuz9WtqOegwcP6cBUrVIZhKwFIPnBTzskfkjbsGFDCeGDFNCPbDBr3JE4+HI7JAr1JKUk47qXVKhQAVZIA6kPn4zn2Vl4/S8G0QFww5wcVzP81OAAODT44kWL5Zbb+8mIESP0iSw5iEVoKiQk0/Fgv8i3BB2Dm+zjli1btS+NGzeSOrVr6znTUkDsgvAlDUnP2ug/6cBHOyUkJKJ95bU/0dHRsjdqH15YmCoVypeXuqBRgwb1pVzZcmg7xzhXA1Kr165Fm71US8UhKPj32nWw1vylffsrpDpMVgq2JLz8cM+ePVpnfEIC2uIj5ctXQLsiVdiH4I0rWaA3u8P0KSnH1MXbvm2HxMUd1bpIY5ZHbVitWlUAm3SgYPGS48ePyfbtO5Fnt8QnHNUINoVh9RrVMT6N8N6uCBJHhQVpZAlkB8AF9RPgS+UdAHzvrigA/DZ5ZozR4KQ35bDR4BbA18BEnyzLliyHBr9BRj48HEHkqhjbdHkOGnzaJwR4Z3n00RHSHCY6t+pimJSP2G7rOBMAT1SAOy1VPbsAJ+NmQ4PvkhkzZ8JE/0KqR9aUiFrVZdH832TwA8PgJw6RsNJltI8EE83zGTNnyGefz0DUvJJUqVRB/vj1VyeAN4EJlS3R0TEIPC2QFatWSRSYL+UYXnoPzg4KCpQaGMzWrZpL165XSePGjbXsmJgY+fDDj8HQe2C6tlLNsmXrdjDzYfVRg/G2jzp1IpGnC4Ik3aR06dLI56UR0rVr/laf7O8NeC3v4SPgDx8IjwpSo3o1BTgZrybO7xp0p4KeGnvDpk2y+M8/ZfXqvyUmZj8irOk6oGFhpaVevTpyRbu20r371ehjVQUltY3R4AS4Aav5pAbfKhM//FAWLVhkAP7wwxIaWgaa2c4aSGgsIMPo5qoNQvQEtMsamTJ1OgAYD+a6VAbeOUDrz4FWj9q7V779/ntZvnwNBE4dBJJu0Mj7vF9+kQ0bNgN44dq/6Oj9Er0vRk3X4NAQALy2XHN1VwUuhSgtpw0bNsg7732ogOrU4UrEDbbL2jXrpCbedffQsPvlUlhsjEr/tXyF/PXXctm5a4+C1xcgLle2DIBaRTp36iBdr+qCNoQrwJMxg7J8+Ur5Y+Ei2bxpK17egAdWYIz9/f0AoEo6xldf3U2aomwKKM66LF+B9H8sRP07JDk5Ra2CgAB/0LmKtGndSq7u3l0aNzHpSScKRB5FA5wa3BngeOMqYj/GCrADHMHPTwDiZUv+AsB7AeAP6SxRNp6D99yEVwDwyXJ5R2hwAFw1OJSBzgTZhbI2gG2wj7v1u6jv4jR4oSe6nE2Aq6TD4O8mwKdPly9nfinNWjaTVi2by8cwOdtd2V4efeQRaNtGalJSou6Axvv444/ld4C3c5cO8GWqysT33gfALzcavHETaMaj8iP80a+//k6OQgvUB2Bq1qyh9KCG3Qnp7YdARo+e10q/vn0h7aupRB83foKsWblWKlSuAICEYtqigpSHlkpLTUO9u+QQ8l5+5eXwoR6UVq1aKXNs3rxZPvtsGgC+QjVKrVo18GaQcsqctDD4thCawC3Rr3FjR6sW4nQFXZK5c39Vs5Dtqwwg0FKI2hsNy2SfCoT+CN50B4OWK1fOSYNDu9hH1gA8zw7wibLw9wXSp/+Nct+9g6FZAXBrXhbpaR1Y2ojMHgjLhwHL3bt3y1S4Rj/Pmw9Xx0uGDxsqt952ixzD011+/nmuzJr9Dd5Amig339xLbunfT0H88aTJ8tv8BWoVBAHQl9SvKxXQZ5roW7fvkCOHjkiLFs3kxht7AeRXQuuHybK/lskTT46VpPgEiYQASARdKoSXBbCbyB233yplwsrIggUL5cc5P8kB0Ll6zeoSGVFLe0qabAf9q1WtLHfc1l9uuKGnjg8FwRezZsu69RvxosQK2g5qeArULVu2qQDr2fN6eeD+oVIGQoLlz/xitmzbthOArqxWQQBmFCjcyBNZWTnSs1dPufvuu/IFuEUzA3Az/ZWdY2nwd9REv+VOC+A00WGjYGAKaHAFODU4AU4N/pBUhYnOB10agEODd+zsBPBSdoDbB1q/6F6ZEXe+6u78nAH8ZM2xAE4NPh0An/XFLGnXoa30ApGpTRPABCOGPYjpr95qCtLco1ae+OFESUlOkhtvukEC/QPU976sTTt56cUJqgl+/ZUm/GeyZfM2adeujfTocT0Gv77SYt++aJ3emA8GrQgA33PPQOnXry8AvFPGPPOsrP5rhZStUBGaurN07NgeGrcm5pdTEbVfCr9/lvjD5H78yVHSH3lozk+fNl2mTPlcfTfW0xpaIBxzmkfAZH8uWSK/z18oRzHP2brt5TLh+XFySYNL5EvMGHw+bQa0fZz8p8e1aklQg9Dy2AJtPGfOz7Jh4xb0pbHcP2SwXHnlFdB8xr8jA1njzCGnXKcPTpr88vPP0uiypnJF27ZCzWfLc4wANThBTj+2Avp3Rds2sF4aQoslY3ptrUydOk0Wzv9F2sIXHD7sAWi7RJk162s1Z1u3bin9+/eVtuhDNOj3AcZm7k/zIDBypQusmf79bha6JDSFGV3+6ae5cgh969SpvYL3MrTpr+XL5ZFHH5e4AzEShreWXnft1bCU2gifwU7ze/PmLaDlDK3v8jbUpN3UXaCbwCDsL7/8Jr/M/Vk6dO6C2ZInpXad2ph5mSWfgfa+mPvvA83YqUNHCIrScgSuD8H8JdpfH8Ln2XFj4ZZFqJn82ZSZUhbz/3379oGV1E5fskgXasHChfL9Dz9L46ZN5cknHpM6deuAzMYvJ415EORUMtkaZKOJDoBDMNxCDT52LIJsZowMwOHHwyXIRQxlzVpE0aGll6kP3tto8CoG4M9Dg38+aZId4CPtGtwCuGP8OOiWYNfGFPPhDuAc9/1QLIU0+LYDu+xRdDx0Mbi81IJJBUsZvYXpgg4Xdzg3z106Z4DPmAGAA0AdruogDw1/AIPzlczG75v63ozfw7CQoArevpEKpputzFivXm255Za+6t9OGP+cMdEnPAfzqom89BIik9O/hD9VTQbccYd07dIZ5mR59auSoZko+T+FANi4fpPc3P8mGf/sMxINE/2p0WNkLUzETl27yh133A4t1FxCS4eqr7pq5Wp5GwO6B0GV4SOHy3333Yv55wOo6xWZP+83ufY/18igQYPgPzcUP4CLi082bNwkn0M7/v7bfGnZprW8hPZVhyUxatQTMCv/hEnYAtpiEKyBFhKIBQ4M5h2CiT8PzMz2J0LbPTLqYblzwJ2qEUhyBTc5CCE9a8i3b9siH37wofz0wzfiFxQmYeXKIC5A+9wh9X0QiGSgKRuC4tLGl8g9qJfWQXp6hro9v/76m7z6yquSmZ0r3bp1hvBKQ0xig1o/t912q3Ts0B6WSTgE4Xb5cOIkmffzr4jElgbNHpeePXvo1A4FcBRcnNlffyvffz8HgiRchg69Dy5Nd1kLIfLwyEclAcKuLbT6yJEPSyPEJOh2Hce4fjX7K5k540sAvqIMumsgZgI6Kvg4hcdnxS1e/KeMeXqchMIaeHbcaLUMaAVNBcAZF7gNVkA3uFwVocnpEkRFRSFW84ea5tdfd51UhaX3zjvvyYxpX0oNWAd3DrwDArwDZhHC1affCctw0Z/LMA4h0g3CJTIyUtkboZ8CBwVlNiytv2CRvP322wD4HrkVQbYxo0fDgjHmPHS4BvcoDHKg7dl3NdEh/HrDqhkBF4r8nI2A8nPPv2z3wRlkewTz5JdpkPJM++AEeCwBnnzQ/n7wALAHYhlnC+BkUQvgaqID4DTRO3ftpIBbsnSZPDv2OamPYM3YMU9jfvAymNE75dMpU+G7LpHrr+sufW++UVYCeC88/4K0gs86YfyzEoEg0chHHpXfwIB9+vUBUG+D9r4EzG38GvpGe/dGwaz+XL6CxdDhqqvkv6+9BB/9GDTz0/L3ylXy4PAHpS80NP1fjBXMY5jBmGt+6+33ZPWK1TIUZuyDMPtWrFwpr772umyGoBgJIPa9+WYwWEXVkuQKagZq648mTpZmzZvIKy+/qEw7+L77ZdfOKBk2bIgOOLWYMhLqYlR5PUzODz/4SNairkFD7paRCJrRrFYRDnATSA6A26D14INzmuynOVKrXj34ni0UOGwDqKz5HBo8T6rBJbmqc2f4pk1VGzFoFAsBN3nKZ/IDXJs8gCoHmqc0LJGBd94ufW7sDR+4mpqetHQ+nPgxrKCF8NUjIeAmSFNEfrPw4gTSNhvxBS4A+RhpGPcYMnSwBko3QtgNf/hRyYTfP/i+e+TuuwapgGDkew/G9RMI3J9+nAsBWQ806a1BRsYq6ItSczLY9+Zb70laSpIMe2i4DBhwOxaILJYpk6fIfgjalhDGtJ5ocdHdKQ3BzCMAD4+km0XLi64IZ2qSk49JKwhX5omAG8BXNTHQxhUigSGhMOfL6qub2B+oYS3H+uBsgAJ8+V/y7jvvyK4duxTgT2MNhglqwgcHY7NflMM059fafXAqlhv79FaAc8wNwF/KD7L9+wEOCX7V1Z2hSV5CkGyfPPb40wBJvIwb9xRMumtgnv8hUz6bCq2TCeDeKldBM/8GzfMcNHgrmFsvQkOWg0R++OGR8heEwCOPPQrTrY+CTpGKUaKZSh/tC0yzvfPW29K8dRt54/VXVOI+9sRTsm71WhkDDUE/LywsDAPFRTb0VXfJ2++8L0sh5YfcP1iGYbHCN99+K+8BiEePJmAO/mm5FiuRyCiUlqyHZi5jAW+AMRtcUkcBnoEltg88OAJ+bby89soLiCN0ARMGmCktcgT+9uyOkvcQkPpt7ny5ET41I7QBgQFgdNzH4QrwHdu3qYn+BzRWz17/kcH33g2XxjC46bfR5OpHgvH84Nbw7aH+mCozBdogWDJgcWyQsc+Ml10QGFRfrRDXeOSREXI5rA9r6m/nzh3yPvq8BBHhNm1aypgxT6m2Y/yAsQZ/RMWXr1ghb7/xpuyOilYw94UVtnXrNmjwx5T5n37yMfnPf66HgMf6a18fAGC1fPTRJI0hhEEb17uknvrYNPlJRwIm/US6/A3Bl4nFIbdD+5L+XN78FeIsC/6AG4Qx5Qq9igAz4y21IyMggOpJkyaN0L7aGgz8e93f8u233yMesALvRE/QYFylShVVKNSByV+3bn1phKBr9Ro1pBT6QbeIj452PrhegMJs+Yrl8v5778k2uBZ9b79FF1lRQHAxkRfSGL4hwDOhhFbK5E8m4XuNWowjHx6hFuUFC3DlQ876/gMTnazqrMGNDw6Awzx89ZWXUXSePD36GZkPf1q1QK8e8JF+lK+++U411N13D9Jllj/O+VGeHz9eWkKDv/TCBPXVRz4ySlYuWyZPjx0Df74XorDhqM2Ag59H4uKgWWfJO2++CyZuLa+//qrkYL5y1ONPyPq1G2A2jQMDXqdMRknMrHvga737/geyaOESGQqAP/jA/XAjoJ0nfarm+OinHperu12FabsgMDrnQL3BgAnwp3+SN1BPo0b1AfAXoD2S5KGHR8EXOi5vvfGytIffWArahdqCjEHlvBtm7rsA+HwEvvrAhRgz+ikzZ63mIsHKuWqGXHgBGhwmOjX4IkST+9/eHxp/uHlxAe6qBueXXTjkAx79svrGMrKzs2TTpg0yZux42YkIM98T3rZda3nooQexrBVmIy0IDDz94Q8A8KUASYf27SCERymg6BJQ61NjcsnsG6+9gWnD3XaA99WpuJGPPAHh4ivPjH5SrrrqKi2P04grAZYP4GIsw3LOsnh1cd16dbHAiS4LtbcmQ9UAFoQIr1Gw0y1gIJRB15WwuihAjsC9iYdbEx+fqGZ3OFyV7ojm97+lv/r5fD3TNkTvOS+9bft2XQMeF5cAQZykQrki1ohffc3VUAo3wsevi/5wVaArwOHmoB0rV6+Sie+/L39DIfSA//804gKlMdvDGRS22QqyUXD++edi+RRz3Zs2bpb+t92iFhmVhzPA23RgkI0+ePOzYqJzqlJ98EImeuxO44PvPwbtVE6lnT7wQR1Cck7Rh4GU+/u85wzwGTNmaJCtM3zw1159SQNBr7/xhkz6aIqaU5wrXbpsuWzctBmBm/4wHe9ECV7y7TffIrj2Eha6tIGpPh4avJyMeuxJWbpwsQwfMUxuuulmmGxVlDGYnh3dvWeP+vHffvUtgjad5M03X9FNK6MefwoAXycTXhwvPa6/Hq/vAZMBeBwwRpvffx9TUX8skvuHD5UHAPB5835RIMYeOAQt+6T857prdBqOfiMBwbnemXA73keUvyXMRwKc/uF9Q4YhEJQo48ePhlDoho0fpXXhCAFETbUGbfjo409k45oNcvfQu9Sko/9sZI0zwEnbPADcPk2GtvW7rR9mHkZAIASbhRsCoYGDAGH/HUDnNQSNUGdWdqbO978DjfTbbwskF0DIgeYJRLuGDr0bJvqNGgxjObt27tIlwn8iItwGwbcxY5+WyIgIWADQ4FjswkVENEXfeesdiYuPR1/vk149e8radRvUBw+Elh399OPq/3v74PHMYIL10KyTMI30x/w/EPe4DMHTG3W9AS0hBQpoyXHg3DsFYT0IAL4/jfczIZi4Mo902x+zX4Uj59E5Dbdm1WoJw1w8Bd5NN/VRAcSxYVAuJeU4GH4/5tyjdGwZdV+PmEN5zE8PG34/4ju3gD4IkmHsnQ9aHWzT5s0bMZszCVO087FMGjEF+NXNml2GNjEDBRNWDMI6ST2eolONUz/9VAOaAwYNkKH3DZEgWHoWwKdPniytruwIH/xRTFVehnz2paocL6fDpSlOdwqeGlkOPtETWhWG7/fHMsh2CD445sHDYL1xJdu28wBwAqFq1WqIxv4Ms/g9LEhI0J02Bw9h1w1MuCHw4WhCp2L66qvZX8vLLxmATwDAa0dGQhM/iWWbc+U6RKgHDLhDmjRqjCksLM0Ds3NnD020iRM/li0bt8qNmP4Z/+wYOYDgz2ME+N/rZcILzxYN8AV/wge/T33wNWv/lpdf+a9swDd98H4332SmtMCEZD5qic8QM/jph++kVVsT5eeU0cC7BsvO7VEIsN2JCH4/DbxhFHSU+I7ueQjafTYVviKmp0Y+PgJBtgFgKg6vSUPtzcP6RYB/9CGtiwXQ4LeD2YZrsMjavsiB5iAzB4WVOYcFQCENkHMX2s9z58kLL7yG+7nYhHKVcLZhO5i+KSLgA8GUHSBgqaF27dql5vQ8WFYR8HdfffVFTAG20GAdG5SMhSpzIfimTZkm/nArhj4wFMGvbrqRiILXD3PUTz0xSuf4GRehkIlSgTtVfvhhjjTBYpt7Mb6McFNIqmWDtnMxzZwff1K6MmjHwNpqzOHHxu7XWEJrtIFuCTUmg7Ecmzdefws+8jYZdI/x+VcB8IfwBtXmLVpIs0sv1fZxkdLx48cR/V+OmZtPJHpvjNyGfRBPPf0k6vdVIUmwWgdpR6EYHb0XAdTP5fPPPpeqcAkG33sPphH7g88QvML4mPGyabrPpk6Vb776Wqpjam7gPXdhPUFvKIIgBfiEF16WzyHcWl/JefBHNNbkC8Fn1qKbEbbqdrTCuuL++4IF+OwvZ0vXq7sAsM/r6qW9e/divfl78vMvv0oqIqk026+59noAfDAkfQv1wb779jukf9lo8AnP6bzqm2++JZMmT4W56Ce339pf+t50E8zIWhos4xz0VyD2pMnTYLqHYVnnvRox3wkNzSDbBkhxmug9YKJzHXwBDQ4zePGiJfDB79W51QSA8cWXX5O53/8AAF8ObTdY/VWanXuiohBJ/kEF0NHDsdL6ig6YJhsvkRERMnr0WPkJ/jXn8Bll7tatKyyPshjwXNm0eSumcz6Tebh/CdaVP4qIfadOnWAW4qUEQBD/mQFUuCozqQbHuoHFi5ZKn5t6yKBBAyUAfjaFDBmS/Mk/mo+MWhM0ftBiYQhEkXk3bFwPOn+A+MICad+ps04TbYHJ+ynasQ8LWLphTAYOHICgVAtdL/ARNNdPc+aqazH84ftl0MCBWN2HyD3qWwg3YQqYfgX8TU7FDR6MsWreQrX6E0+PgS/sI6OffEK6wERnW/h34vgx+NJfIyI+Wft4xx0D0A8G9qrDLEcAMDYWtPxeXv/vW1IZNHtu/DOYlquKgOtn8gsETbeunWXwPXdL06aXQvv5Kq02btwIQf2yrIL5PwSLpXphkQ6F+gLMXlx33dUa5GuI1YzU/rQ+1sJqeh0CYR2+B2GGZNRjo5ReOYgDuAKceZKTEmTuL/MQmX9XEqF4roQQGwarjqvhQkKCJANxosNHDmvcaBbiPZylufq6bpjVud1EylEGrbmXXn5VpmIKrQ00OC2vZk2babxDrTW1uhwgvqgAzmZbJrquZFMTfbZ0QRT9jddekVD4KBzcWbO+hBn8gRyK3YdAU1n16W5HUKM6Bj/uaJx8/90PiOS+Ji0Q8HlhwngEVZrImtVr4BtPRtBmkVTBajfOqVKzc2nmnt17dD6S89RkIq4ui4iM0GWvBuAbAfBnigb44qVgmLvlgaH3q4b5+ptvwHhvIsiTIFdgEQyDOr6+3ojUR6sWObg/WnwBsjbtOyBWMA7R4fryO4JhEz/6BMy0QS5DJPeKK9thTr6SnEhPhwuyRZkwKDhQ7r3rTiww6QN3pYKuryfNCFh88IxQ5yWNonNh0Nwff5SaderoEk0m4by6pmcianECiiYmQN0I0eprr+nGGxoV/xEWj59/KXkKc/yMmnNV2VeY7pqNhSEZKOcOzPXeCl+W02ccD06TZWenY+VhpHSBm1M7MkJ91iWY610NcNetV1tuvfVWNcXLlAnXzRmPjIIG9ysl4xCY6wqhxraxJ1xwY6aSPsXageVYAVhV2oMmdevWUSG1HUHEPyA4EkDjvohJDAEAacnNhqD+HBuUyCftsVagOaL5jJ4nwpTn8tu5v8xHLCJIYxhXIl5Ad4nrD0i7zpgia47YAn19Wk3rN2yShYuX6Sq5Rx8ZKdfA3SIA+YZV50Mpj3Znw63Zs2e3bnr64suvJeNYqjRt1QrCrJm6aVwjwW3Q69aukbjDh6CAWsltUDadQavwchW0SC504Tz4tE8+lpZQAI/RRMc2XlqbNPVdAe3627ldzufnTIM7V+p6TkIR4FwIwMgsif/dd3OkC1anPffcM1jTXEElJwMor7xGM3gt1kLXU4Bfe213jXCTCecg8PbiS/+VZlg5NWHCs7rQhSbaUkyzcQvqqlVrNJgUGIQoNMRiOjai8KEIXIRxJ6ZaOMi5YHhaC08+NVY2wkR/FgDvdUMPTGlxwwb8FPzjNA213LJlK+Tee+6E5h8CC6EUorFHVVPPnferrutmsIpR39KlQ3Suk6pzG4JW9C2ff+5ZqYfgDddP/zR3LoJ038jO3XtVYnNdNaPGXA3GmQAuBLkFi0siIiKUDq5ahFqY4OQfp/A+hs/+05zv4IRgjbYv5zgJf9y3uALAzhcOuNax85VwKfqg/XHQIv9Vrde3Xx/Mj9+Fpbw1UAoFxw5YOlPgl/+hC0YGAORc4z1r1leYY16IIFewBoQSEpMRdUagEBZWOnzbKtWrYIXgTVhg1ANlYb85LBMuEeVKNm4PHv/cWOl6VRcVkLTKCPDjmFJbuWqVTtNx+SnHKQBjxg5Qw9Jcv+6arrr2gWv1SS+6QAT5b7/9jr0EqUpzrvlPQ94MzO+XLVsai6RuEM7jU+Nv3LRJg6u/wddPw9LgcuFldHNMKoTWiROZiDNUweq73nIzov48p7+eLyCVImgNxlNjFxhjChbyzTeIzHPtwpEDR7CLz1/HMxfjyGXYXFfe5NKGckPPHggOdtJyUYDGU7IysuS1N97S7aJXwo8fPux+s120lL/ygjV09qpBCaLm5McFA3DVQBjgpMR41VzcdFED/kynTh305XckJtcPM7gWjzdfVqhYUc0wzsly11I6NDKBR+YpDy3XBQTUZZ1g/lT4VZtgZm5GUI4LUlKPp6pZyidncAMC1yfXx3QMfSFOhyRjfnUxtDMB2+6KdhrkMavBzFQNo9/0+fbD1GrZsqU+MMGGyDuBFgdTjH7kXvitSSiHTMHVYmVghazHGuwZWLDD1VlcUVWrZk0VNEeOHsF89ybdCHPwUBwYLB1tCUYfyysommJFVWRkhJqwzuB2IFYxrMx2FCD9e9162bc3CgxIs9wOZvBCUSxBC4gPGUhGBHnd+nUa/W7VqiXW2/OBA74KIDL+3xB4OwB0Rvq5GYVtmT5jpo5JSwjVTqA5V8PFYnlpWuoJaKdyWI57iTTDpgluifT3CwCNvPBq4kN46MESzc919pGRkXpu41NhwMmkWRqmwLbv3CUbsaZ/X8x+9aXp75ZFNJzLVrl5pE7tCF2lR9OeK8roCtHf5sKWVAgJzsP7QQNynTwtAAatIiAkKURowZFf1iHgx/Rci04BzsAfLajatetgbFurO0eBwii6BifziUjI0WQHT/Af2pCJMml+02Lgk1mOxB1RXuO8ezjcLm6U4SYdrqijJcYgJF0ZZFY+4HqPTRA8NbEx6XIEYiti2o5lU3wXHD2iJb8hereoj3yAMz0tN9BQo+ixboJsW/cjip7qtB+8Vg1kQFXo5D852FT+qRZHh9MxP8y5VM7NBmM9sSU5OeXETRGMXFJq8z6DH1ZfuUiDwTZvSMpggJV+JkYA971QXoZKdjJgBsxfErd0aCgWWITqfDXL4XZMMguH7gQCcKwnGEBjJFOBZS+Lvnh6Rhq0SZbuYGOatDQIEQiQIwjcVMbKJIKXu6NYFk1RLpnkdNxMrJ66rue1WIn1lO6wYp/Yfvb3+PETiOCnoOxMuCCBaF9pBMgCQYNQNacZmdb+okxzOIaeNMJ/jQ6fSE+zaxwrnfm26FzwqtkaSiCwLcrIGAi+UZR1kRmseW+2kcDgwfn6vVgnP2nyp/CxV2OFYAdMGQ5RM/cw+sr1CQx+0R8PRICNwSKdF4ZdQeskFbvNyDt8rBbHkcKRU34kGDfSEMwZqI8LUVIwZnRZODYhIcEQ3GUwZqHqM5MmPNTfhpZNxk68FOQ5AYHEuANjICGIn7AdQaApyyDBSa8caFXuHExISNIVdGxDAMaMU25lkD40NAyRfTP2pG0eB1NH1PpmY8li+OYfDgoJKhtqdLab5bPM0hDwIcFBSjfyrmmHZkFbTPwhBQFOriYMhObnFKvyovIc2swG5B+nDnBtqNp06AfoEhO7X5eq6vvBEUXX/eBnF+B2mYR+WFqHhDPmJ8HPfcfmOVeclyWhaWYrcS2iIw2ZgzShJqZ5zAimMj/OedjQOZaJlMoglLwkHq9RmlK6kxjMq/fYBhaoY0iJbaaTeJ+Dq3t98Z12IhXr0KfKkj+XIvrbUHrCrFcNCBeA2oHrsqdN/wJLBPdjzftdMgSRVmpCgort0z7hW+eQ0RaCSwFGDNvbp3Urg7In5uA17R9/Upuw3UivDWajec7287B/6W0msR9KR9IEjKbbEwFACjemZ9+ZnvQi0K3imJ3bW+kOMIjWtWtHzOljGTGmrNIghBn5pdCgkDVjxGYYxuRYarvRVuoGmvMsj+3W69puq3G4j7blaho8CAl0IeMzLduIVtnLwjVkYXs1GGoHvqENAAShj4QYL7tQRH4dX+Shf20JCsYluIDFC31lr62x17axXXYa8sQGAWUukA/Bo+QdpZcZA0blqXSoTHTmBmVrG9CX/HFDo805isJhhCkFHR7OyLayCuZj5/IPQ8f8n8WcWBrcFEDeBo1OBvD8/eCWBteO5/e8mOrc39LB1VsoA/9JTHISO86O8tABJTdgQNVU0qu8B+Jq/XqBkgCX7IxilQHqsEh+sIs85WGK1tz5v5nOuqKD6lQ/22MNBtOxnDyYwSyTyxCnI8gzdSoeVAHNwCBb7dq1dcC4Wm4DTM29UXth8rfFvP0dmDduow0wDxpg0ziILNEaPPOtdea3WJtZ6IO59ED7qBW1HKWV/TJ6pGkMKXE7P4c9m4PGvODoZ8F0BGb+gfOd9qWqy5avQvS/oz68oAo2mtAKYD+0L1o0zvkT5/yprSFd7eUZmlKE8NAM+DIpmYbtNffsKTSJNcaGae25ONOnxTr3URfxaNksHQmYGEVpqU7f9iSmDUijwsJU6bhV4IwFsUR+s14kduoXs2rflGc5nnrB/m3aafKTr0kV8CeECwWeSYocRKhFJ73Kj2IblZ+KJ24BDuEXA0WTv9kkzL4W3dLgzgBXhcIG6YAUKPuUfrDJJ2u2YVPXVIa4JJA5ii9Jc1tJ3bUQHGINmLvbjmssxBRkhs4mm7dskR8wHcYHRtIELQXTnAfNNZrplzZqgFVXPaUNVswFB5rHT7EIwxN2QNupYIckbhffH60AH4YqVsestlm/rfsmlZXn1L5NWY4SvHSR0LTPZ8haLBtt17aVDBlyj/qv1BDGnLVSG5Bqq7QY63rhFli0LHzH+QrzW2VY3477esXRdceNEp8hMwopvghz92S8YkRT4TaaprAM57+iGmh4o6i7xV13B3A+VjvaHcC3xOwwPnh0Mvya8ljcUAMSh208MwBnZ4siBSnuuOuaynkorHvO1wqSwEpR8KrjV9E5HWkKDgzNdgI5UwM33O64d98+OYbgHiUy/caqMF355BhuywzGyjIGgLgijRYJDzU18c0+Wv007ThZazW7Pafj3NE+R37DbFYax7ejv460jrs8Mxql4Ph44fG/8QjKrdf4Ah/CcDmmf0qHYCUeTXwtgDWiTLsG4qWT6QEDcE2pJbj/YDtd22roZvJbFHSfuyRXHTQpKnVJFIFpp2tLC5Zo1WR9F7zLX/+kN8UBPCkJu8kiKiMAbNfghQFeHQyM5p8RgLODRXfSAoJJYQhXmBTOVyymNNeKJ7JzPp6bQJvrVcdvR1vhpdkvm2GgdDyBICG3NTIazggsA4UEOQNXXBrJjRiMvtLfcwgu0yerf6c+qI42qZ2aT0uOT1HQdvTIAKYoKrGPpmWOb/iu8I0ZmLRM7ABMj9HVYNyDoOY/zWVl1d4611n4XJPm+7aF75srpk8F7zra7hASBVOczi+nphfMftI2IrnNCO+CGc/tr9MEeBIYNlw1uPGPSIYiSWF6dJLbzO8YIvdEcKQ4WUrmL1hhSXJYtTrqsa64+zblW8ykphpAS0CzLg2QaBvA5hCCDNyQ6S1wO3xEwwRWaaypZPUX3SYDcKf7ZpSLoe/JqGMZomilPSlBzcMKeGmgzk5zA2zct9fr1BIru/OlAuda08maUyAHfritx7TPNemp/HZT7KlkN2nPSCGnXq2Vw1RPgvLPzmuIG3E6L4lr0SO4Fp0aHMFeS4PHxiRBK5XT9ceGUS0JT6Jao2N9m6pU4JnTf+2nBfZT66Ch0z9nx1Or1ZP6/4kC5EzwmVqMkIcKcKzTSD6MtSYVsRIwALoHMxInBziJVhDYFhn/HwBu9dXz7aHAhUUB9wDn64Nr1KiIlaABsMTyAZ6DJ34k2jV4BJBPQFt+qNUtXnMGOuTHyaIrVlbP9/8HBTwS//TG+bRMfvcATzl2BMuNKwDggcAxTPTNjKIf53O/4yUkKFxqYckg/a3ChxuA2/2zwmk9VzwU8FDg7FLADnDLBxfMg2PLbUpqHJZql8e6fbsG37RvO6bJsvF88CQJ8g/DmtmaCCphrreQdi4McCQ6u33wlH6WKQBR7iTLzZD/0zE9/1Hms0y0C6Z4a6S4WCkLMx+HDsZKyvE4PGuBAOcSXpjom6O3245Dgx85nIL1taF4OiU2EGC3i+W85/fGnRnhMcnyyXNRnBDBYAaHhWaxiHPrnRDvfLlE5yXPa0XsiyrWMSNRVArqIHftd6QvURlMXlw5Si9HmUWdnYm2FFW283XXepQCaD+Xzx4EwNNOJGILdbgBuAmycbMJAH4oGZobT6gsX143VJgFG1bRrtrb+bp17vm++CiACSwnjJQEEMX3saQAd6q02AKLK69g290VY6yT4sqgDYq2FNOckpShpRRTBttWuBxkOEUF6RDMprdsO6cyua6fW27j44/glVlp2MZcHptqEEUX+OAborZAg2diy2U8dhXl6WZ27XOBBrsDuLtr7sjsuXahUEDXRIMhuCDHArZhPDvDFBjzs9dq5zqLqsVqX1H3ef1k5ZSkjJOVcybKYB2FyyGxT4fgjjwUyGbNAmvAbklsjvIP8IKJziAbdmx6Y8PPluhttsxMPPAu/hi2N+KFe9hKl4OVWxAKOFyln+tvpvEcZ5sCjiEteU0cfP4jY+luPAzocWy7DcZWVWs3mCtAjPnnvjb3V0vengIptW0FrhT6YQBRXK3o3UnYUXMXRlbBuk7SljNRBit025+TtL9gQ/MLcVxG2+l/c3z5nZOLh2jgkVnlwsOwNdkP6eCDb4/dDpGOp1ZmYHkiNu7z3cUcaLOxoLiASXHEd7TBc/bPKUBKuwuBFFWysfzIPWbgqSji44/iyafrpTHWzvNBDbr8tJAG0ZoKFmsHiI62MuSpcmXB4jy/zjQFrPHA9ts8vKoZD9jge+m8ob25XdZra8xWGwcb22cx3GQIbpYw57pSpsj26JAXebfkN85UOSWv8aJLaY3hqTQcFhj9M5pwfKDDkqVLZPasWXLtdddLTzxqiW9h1Sd7apnOY+B87qhQr55OOxxFeM7OOAU4IPjD4EAlw+rOxm8+OIX79bE3AgD/H3Gu8kI4oG7JAAAAAElFTkSuQmCC;" vertex="1" parent="c_AYpVPlN-h9lZ-HARwW-36">
          <mxGeometry x="487.00344827586207" y="37.99685393258427" width="67.59" height="39.25" as="geometry" />
        </mxCell>
        <mxCell id="c_AYpVPlN-h9lZ-HARwW-45" value="Client" style="shape=umlActor;verticalLabelPosition=bottom;verticalAlign=top;html=1;outlineConnect=0;" vertex="1" parent="c_AYpVPlN-h9lZ-HARwW-36">
          <mxGeometry x="-14" y="24" width="30" height="60" as="geometry" />
        </mxCell>
        <mxCell id="c_AYpVPlN-h9lZ-HARwW-32" style="edgeStyle=orthogonalEdgeStyle;rounded=0;orthogonalLoop=1;jettySize=auto;html=1;exitX=1;exitY=0.5;exitDx=0;exitDy=0;entryX=0;entryY=0.5;entryDx=0;entryDy=0;" edge="1" parent="c_AYpVPlN-h9lZ-HARwW-49" source="c_AYpVPlN-h9lZ-HARwW-33" target="c_AYpVPlN-h9lZ-HARwW-34">
          <mxGeometry relative="1" as="geometry" />
        </mxCell>
        <mxCell id="c_AYpVPlN-h9lZ-HARwW-43" style="edgeStyle=orthogonalEdgeStyle;rounded=0;orthogonalLoop=1;jettySize=auto;html=1;entryX=0;entryY=0.5;entryDx=0;entryDy=0;" edge="1" parent="c_AYpVPlN-h9lZ-HARwW-29" target="c_AYpVPlN-h9lZ-HARwW-39">
          <mxGeometry relative="1" as="geometry">
            <mxPoint x="27" y="57" as="sourcePoint" />
            <mxPoint x="-6" y="97" as="targetPoint" />
          </mxGeometry>
        </mxCell>
        <mxCell id="c_AYpVPlN-h9lZ-HARwW-44" value="localhost:8501" style="edgeLabel;html=1;align=center;verticalAlign=middle;resizable=0;points=[];" vertex="1" connectable="0" parent="c_AYpVPlN-h9lZ-HARwW-43">
          <mxGeometry x="-0.032" y="-1" relative="1" as="geometry">
            <mxPoint x="-36" y="-11" as="offset" />
          </mxGeometry>
        </mxCell>
        <mxCell id="c_AYpVPlN-h9lZ-HARwW-46" value="" style="verticalLabelPosition=bottom;html=1;verticalAlign=top;align=center;strokeColor=none;fillColor=#E6E6E6;shape=mxgraph.azure.laptop;pointerEvents=1;" vertex="1" parent="c_AYpVPlN-h9lZ-HARwW-28">
          <mxGeometry x="220" y="11" width="660" height="361" as="geometry" />
        </mxCell>
        <mxCell id="c_AYpVPlN-h9lZ-HARwW-47" value="Host" style="text;html=1;align=center;verticalAlign=middle;whiteSpace=wrap;rounded=0;strokeWidth=1;fontSize=15;" vertex="1" parent="c_AYpVPlN-h9lZ-HARwW-28">
          <mxGeometry x="523" y="28" width="60" height="30" as="geometry" />
        </mxCell>
      </root>
    </mxGraphModel>
  </diagram>
</mxfile>
